%
M48
M72
T01C0.0150
T02C0.0315
T03C0.0354
T04C0.1200
T05C0.1575
%
T01
X10833Y28140
X10533Y30340
X10133Y31540
X9333Y31640
X10533Y32590
X12083Y29990
X12783Y30140
X12333Y31990
X12333Y32790
X12283Y33690
X12133Y35490
X12083Y36140
X10483Y34740
X9333Y34640
X13983Y36140
X14283Y35840
X14733Y34890
X14999Y34140
X15583Y34540
X15783Y33390
X14933Y32940
X14133Y30140
X14833Y28140
X16533Y30140
X17033Y33440
X18783Y33890
X19833Y33140
X18783Y32390
X18833Y31640
X19383Y30440
X19083Y29740
X18633Y29690
X20883Y30440
X21883Y30440
X24533Y31640
X25333Y31540
X25733Y32590
X25733Y30340
X27283Y29990
X27983Y30140
X29333Y30140
X30033Y28140
X31733Y30140
X30133Y32940
X30199Y34140
X30783Y34540
X29933Y34890
X29483Y35840
X29183Y36140
X29933Y38440
X31283Y38340
X31833Y36740
X31533Y35640
X32233Y33440
X30983Y33390
X33683Y36690
X35083Y34940
X33983Y33890
X35033Y33140
X33983Y32390
X34033Y31640
X34583Y30440
X34283Y29740
X33833Y29690
X36083Y30440
X37083Y30440
X37083Y35440
X34283Y44940
X33833Y44890
X34583Y45640
X34033Y46840
X33983Y47590
X35033Y48340
X33983Y49090
X35083Y50140
X37083Y50640
X37083Y45640
X36083Y45640
X32233Y48640
X30983Y48590
X30783Y49740
X30199Y49340
X29933Y50090
X29483Y51040
X29183Y51340
X29933Y53640
X31283Y53540
X31833Y51940
X31533Y50840
X33683Y51890
X30133Y48140
X27533Y47990
X27533Y47190
X27483Y48890
X27333Y50690
X27283Y51340
X25683Y49940
X24533Y49840
X25733Y47790
X25333Y46740
X24533Y46840
X25733Y45540
X27283Y45190
X27983Y45340
X29333Y45340
X30033Y43340
X31733Y45340
X26033Y43340
X21883Y45640
X20883Y45640
X19383Y45640
X19083Y44940
X18633Y44890
X18833Y46840
X18783Y47590
X19833Y48340
X18783Y49090
X19883Y50140
X21883Y50640
X18483Y51890
X16633Y51940
X16333Y50840
X15583Y49740
X14999Y49340
X14733Y50090
X14283Y51040
X13983Y51340
X14733Y53640
X16083Y53540
X15783Y48590
X14933Y48140
X17033Y48640
X16533Y45340
X14833Y43340
X14133Y45340
X12783Y45340
X12083Y45190
X10533Y45540
X10133Y46740
X9333Y46840
X10533Y47790
X9333Y49840
X10483Y49940
X12133Y50690
X12083Y51340
X12283Y48890
X12333Y47990
X12333Y47190
X10833Y43340
X14733Y38440
X16083Y38340
X16633Y36740
X16333Y35640
X18483Y36690
X19883Y34940
X21883Y35440
X24533Y34640
X25683Y34740
X27333Y35490
X27283Y36140
X27483Y33690
X27533Y32790
X27533Y31990
X26033Y28140
X26033Y58540
X25733Y60740
X25333Y61940
X24533Y62040
X25733Y62990
X25683Y65140
X24533Y65040
X27333Y65890
X27283Y66540
X27483Y64090
X27533Y63190
X27533Y62390
X27983Y60540
X27283Y60390
X29333Y60540
X30033Y58540
X31733Y60540
X30133Y63340
X30983Y63790
X30783Y64940
X30199Y64540
X29933Y65290
X29483Y66240
X29183Y66540
X29933Y68840
X31283Y68740
X31833Y67140
X31533Y66040
X32233Y63840
X33983Y64290
X33983Y62790
X34033Y62040
X34583Y60840
X34283Y60140
X33833Y60090
X35033Y63540
X35083Y65340
X37083Y65840
X37083Y60840
X36083Y60840
X33683Y67090
X30033Y73740
X29333Y75740
X27983Y75740
X27283Y75590
X25733Y75940
X25333Y77140
X24533Y77240
X25733Y78190
X25683Y80340
X24533Y80240
X27333Y81090
X27283Y81740
X27483Y79290
X27533Y78390
X27533Y77590
X30133Y78540
X30199Y79740
X30783Y80140
X29933Y80490
X29483Y81440
X29183Y81740
X29933Y84040
X31283Y83940
X31833Y82340
X31533Y81240
X32233Y79040
X30983Y78990
X31733Y75740
X33833Y75290
X34283Y75340
X34583Y76040
X34033Y77240
X33983Y77990
X35033Y78740
X33983Y79490
X35083Y80540
X37083Y81040
X33683Y82290
X36083Y76040
X37083Y76040
X26033Y73740
X21883Y76040
X20883Y76040
X19383Y76040
X19083Y75340
X18633Y75290
X18833Y77240
X18783Y77990
X19833Y78740
X18783Y79490
X19883Y80540
X21883Y81040
X18483Y82290
X16633Y82340
X16333Y81240
X15583Y80140
X14999Y79740
X14733Y80490
X14283Y81440
X13983Y81740
X14733Y84040
X16083Y83940
X15783Y78990
X14933Y78540
X14133Y75740
X14833Y73740
X16533Y75740
X17033Y79040
X12333Y78390
X12333Y77590
X12283Y79290
X12133Y81090
X12083Y81740
X10483Y80340
X9333Y80240
X10533Y78190
X10133Y77140
X9333Y77240
X10533Y75940
X12083Y75590
X12783Y75740
X10833Y73740
X14733Y68840
X16083Y68740
X16633Y67140
X16333Y66040
X15583Y64940
X14999Y64540
X14733Y65290
X14283Y66240
X13983Y66540
X12283Y64090
X12333Y63190
X12333Y62390
X12783Y60540
X12083Y60390
X10533Y60740
X10133Y61940
X9333Y62040
X10533Y62990
X10483Y65140
X9333Y65040
X12133Y65890
X12083Y66540
X14933Y63340
X15783Y63790
X17033Y63840
X18783Y64290
X18783Y62790
X18833Y62040
X19383Y60840
X19083Y60140
X18633Y60090
X20883Y60840
X21883Y60840
X19833Y63540
X19883Y65340
X21883Y65840
X18483Y67090
X16533Y60540
X14833Y58540
X14133Y60540
X10833Y58540
T02
X21621Y63040
X21621Y64040
X21621Y78240
X21621Y79240
X36821Y79240
X36821Y78240
X36821Y64040
X36821Y63040
X36821Y48840
X36821Y47840
X36821Y33640
X36821Y32640
X21621Y32640
X21621Y33640
X21621Y47840
X21621Y48840
T03
X24533Y49324
X24533Y47356
X24533Y34124
X24533Y32156
X9333Y32156
X9333Y34124
X9333Y47356
X9333Y49324
X9333Y62556
X9333Y64524
X9333Y77756
X9333Y79724
X24533Y79724
X24533Y77756
X24533Y64524
X24533Y62556
T04
X24033Y67290
X21833Y67290
X21833Y82490
X24033Y82490
X37033Y82490
X37033Y67290
X37033Y52090
X37033Y36890
X24033Y36890
X21833Y36890
X21833Y52090
X24033Y52090
X8833Y52090
X8833Y36890
X8833Y67290
X8833Y82490
T05
X9333Y27540
X13333Y27540
X17333Y27540
X21333Y27540
X24533Y27540
X28533Y27540
X32533Y27540
X36533Y27540
X36533Y39740
X36533Y42740
X32533Y42740
X32533Y39740
X28533Y39740
X28533Y42740
X24533Y42740
X24533Y39740
X21333Y39740
X21333Y42740
X17333Y42740
X17333Y39740
X13333Y39740
X13333Y42740
X9333Y42740
X9333Y39740
X9333Y54940
X9333Y57940
X13333Y57940
X13333Y54940
X17333Y54940
X17333Y57940
X21333Y57940
X21333Y54940
X24533Y54940
X24533Y57940
X28533Y57940
X28533Y54940
X32533Y54940
X32533Y57940
X36533Y57940
X36533Y54940
X36533Y70140
X36533Y73140
X32533Y73140
X32533Y70140
X28533Y70140
X28533Y73140
X24533Y73140
X24533Y70140
X21333Y70140
X21333Y73140
X17333Y73140
X17333Y70140
X13333Y70140
X13333Y73140
X9333Y73140
X9333Y70140
X9333Y85340
X13333Y85340
X17333Y85340
X21333Y85340
X24533Y85340
X28533Y85340
X32533Y85340
X36533Y85340
M30
