G75*
%MOIN*%
%OFA0B0*%
%FSLAX25Y25*%
%IPPOS*%
%LPD*%
%AMOC8*
5,1,8,0,0,1.08239X$1,22.5*
%
%ADD10R,0.04331X0.03937*%
%ADD11R,0.01575X0.01575*%
%ADD12R,0.06299X0.07087*%
%ADD13R,0.07087X0.06299*%
%ADD14C,0.01181*%
%ADD15R,0.03268X0.02480*%
%ADD16R,0.03150X0.03937*%
%ADD17R,0.05906X0.02756*%
%ADD18R,0.03445X0.00984*%
%ADD19R,0.03543X0.03150*%
%ADD20R,0.03937X0.04331*%
%ADD21R,0.04724X0.02362*%
D10*
X0149987Y0291400D03*
X0156680Y0291400D03*
X0156680Y0311400D03*
X0149987Y0311400D03*
X0134180Y0316400D03*
X0134180Y0323900D03*
X0134180Y0331400D03*
X0134180Y0338900D03*
X0134180Y0346400D03*
X0134180Y0353900D03*
X0134180Y0361400D03*
X0127487Y0361400D03*
X0127487Y0353900D03*
X0127487Y0346400D03*
X0127487Y0338900D03*
X0127487Y0331400D03*
X0127487Y0323900D03*
X0127487Y0316400D03*
X0116680Y0318900D03*
X0116680Y0326400D03*
X0109987Y0326400D03*
X0109987Y0318900D03*
X0109987Y0336400D03*
X0109987Y0343900D03*
X0116680Y0343900D03*
X0116680Y0336400D03*
X0116180Y0299900D03*
X0109487Y0299900D03*
X0149987Y0356400D03*
X0156680Y0356400D03*
X0174987Y0353900D03*
X0181680Y0353900D03*
X0181680Y0346400D03*
X0174987Y0346400D03*
X0174987Y0338900D03*
X0181680Y0338900D03*
X0181680Y0331400D03*
X0174987Y0331400D03*
X0174987Y0323900D03*
X0181680Y0323900D03*
X0181680Y0316400D03*
X0174987Y0316400D03*
X0174987Y0308900D03*
X0181680Y0308900D03*
X0181680Y0301400D03*
X0174987Y0301400D03*
X0189987Y0291400D03*
X0196680Y0291400D03*
X0261487Y0299900D03*
X0268180Y0299900D03*
X0268680Y0318900D03*
X0261987Y0318900D03*
X0261987Y0326400D03*
X0268680Y0326400D03*
X0268680Y0336400D03*
X0261987Y0336400D03*
X0261987Y0343900D03*
X0268680Y0343900D03*
X0279487Y0346400D03*
X0286180Y0346400D03*
X0286180Y0353900D03*
X0279487Y0353900D03*
X0279487Y0361400D03*
X0286180Y0361400D03*
X0301987Y0356400D03*
X0308680Y0356400D03*
X0326987Y0353900D03*
X0333680Y0353900D03*
X0333680Y0346400D03*
X0326987Y0346400D03*
X0326987Y0338900D03*
X0333680Y0338900D03*
X0333680Y0331400D03*
X0326987Y0331400D03*
X0326987Y0323900D03*
X0333680Y0323900D03*
X0333680Y0316400D03*
X0326987Y0316400D03*
X0326987Y0308900D03*
X0333680Y0308900D03*
X0333680Y0301400D03*
X0326987Y0301400D03*
X0341987Y0291400D03*
X0348680Y0291400D03*
X0308680Y0291400D03*
X0301987Y0291400D03*
X0301987Y0311400D03*
X0308680Y0311400D03*
X0286180Y0316400D03*
X0279487Y0316400D03*
X0279487Y0323900D03*
X0286180Y0323900D03*
X0286180Y0331400D03*
X0279487Y0331400D03*
X0279487Y0338900D03*
X0286180Y0338900D03*
X0301987Y0443400D03*
X0308680Y0443400D03*
X0308680Y0463400D03*
X0301987Y0463400D03*
X0286180Y0468400D03*
X0279487Y0468400D03*
X0279487Y0475900D03*
X0286180Y0475900D03*
X0286180Y0483400D03*
X0279487Y0483400D03*
X0279487Y0490900D03*
X0286180Y0490900D03*
X0286180Y0498400D03*
X0279487Y0498400D03*
X0279487Y0505900D03*
X0286180Y0505900D03*
X0286180Y0513400D03*
X0279487Y0513400D03*
X0268680Y0495900D03*
X0261987Y0495900D03*
X0261987Y0488400D03*
X0268680Y0488400D03*
X0268680Y0478400D03*
X0261987Y0478400D03*
X0261987Y0470900D03*
X0268680Y0470900D03*
X0268180Y0451900D03*
X0261487Y0451900D03*
X0301987Y0508400D03*
X0308680Y0508400D03*
X0326987Y0505900D03*
X0333680Y0505900D03*
X0333680Y0498400D03*
X0326987Y0498400D03*
X0326987Y0490900D03*
X0333680Y0490900D03*
X0333680Y0483400D03*
X0326987Y0483400D03*
X0326987Y0475900D03*
X0333680Y0475900D03*
X0333680Y0468400D03*
X0326987Y0468400D03*
X0326987Y0460900D03*
X0333680Y0460900D03*
X0333680Y0453400D03*
X0326987Y0453400D03*
X0341987Y0443400D03*
X0348680Y0443400D03*
X0348680Y0595400D03*
X0341987Y0595400D03*
X0333680Y0605400D03*
X0326987Y0605400D03*
X0326987Y0612900D03*
X0333680Y0612900D03*
X0333680Y0620400D03*
X0326987Y0620400D03*
X0326987Y0627900D03*
X0333680Y0627900D03*
X0333680Y0635400D03*
X0326987Y0635400D03*
X0326987Y0642900D03*
X0333680Y0642900D03*
X0333680Y0650400D03*
X0326987Y0650400D03*
X0326987Y0657900D03*
X0333680Y0657900D03*
X0308680Y0660400D03*
X0301987Y0660400D03*
X0286180Y0657900D03*
X0279487Y0657900D03*
X0279487Y0650400D03*
X0286180Y0650400D03*
X0286180Y0642900D03*
X0279487Y0642900D03*
X0279487Y0635400D03*
X0286180Y0635400D03*
X0286180Y0627900D03*
X0279487Y0627900D03*
X0279487Y0620400D03*
X0286180Y0620400D03*
X0301987Y0615400D03*
X0308680Y0615400D03*
X0308680Y0595400D03*
X0301987Y0595400D03*
X0268180Y0603900D03*
X0261487Y0603900D03*
X0261987Y0622900D03*
X0268680Y0622900D03*
X0268680Y0630400D03*
X0261987Y0630400D03*
X0261987Y0640400D03*
X0268680Y0640400D03*
X0268680Y0647900D03*
X0261987Y0647900D03*
X0279487Y0665400D03*
X0286180Y0665400D03*
X0301987Y0747400D03*
X0308680Y0747400D03*
X0308680Y0767400D03*
X0301987Y0767400D03*
X0286180Y0772400D03*
X0279487Y0772400D03*
X0279487Y0779900D03*
X0286180Y0779900D03*
X0286180Y0787400D03*
X0279487Y0787400D03*
X0279487Y0794900D03*
X0286180Y0794900D03*
X0286180Y0802400D03*
X0279487Y0802400D03*
X0279487Y0809900D03*
X0286180Y0809900D03*
X0286180Y0817400D03*
X0279487Y0817400D03*
X0268680Y0799900D03*
X0261987Y0799900D03*
X0261987Y0792400D03*
X0268680Y0792400D03*
X0268680Y0782400D03*
X0261987Y0782400D03*
X0261987Y0774900D03*
X0268680Y0774900D03*
X0268180Y0755900D03*
X0261487Y0755900D03*
X0301987Y0812400D03*
X0308680Y0812400D03*
X0326987Y0809900D03*
X0333680Y0809900D03*
X0333680Y0802400D03*
X0326987Y0802400D03*
X0326987Y0794900D03*
X0333680Y0794900D03*
X0333680Y0787400D03*
X0326987Y0787400D03*
X0326987Y0779900D03*
X0333680Y0779900D03*
X0333680Y0772400D03*
X0326987Y0772400D03*
X0326987Y0764900D03*
X0333680Y0764900D03*
X0333680Y0757400D03*
X0326987Y0757400D03*
X0341987Y0747400D03*
X0348680Y0747400D03*
X0196680Y0747400D03*
X0189987Y0747400D03*
X0181680Y0757400D03*
X0174987Y0757400D03*
X0174987Y0764900D03*
X0181680Y0764900D03*
X0181680Y0772400D03*
X0174987Y0772400D03*
X0174987Y0779900D03*
X0181680Y0779900D03*
X0181680Y0787400D03*
X0174987Y0787400D03*
X0174987Y0794900D03*
X0181680Y0794900D03*
X0181680Y0802400D03*
X0174987Y0802400D03*
X0174987Y0809900D03*
X0181680Y0809900D03*
X0156680Y0812400D03*
X0149987Y0812400D03*
X0134180Y0809900D03*
X0134180Y0802400D03*
X0134180Y0794900D03*
X0134180Y0787400D03*
X0134180Y0779900D03*
X0134180Y0772400D03*
X0127487Y0772400D03*
X0127487Y0779900D03*
X0127487Y0787400D03*
X0127487Y0794900D03*
X0127487Y0802400D03*
X0127487Y0809900D03*
X0127487Y0817400D03*
X0134180Y0817400D03*
X0116680Y0799900D03*
X0116680Y0792400D03*
X0116680Y0782400D03*
X0116680Y0774900D03*
X0109987Y0774900D03*
X0109987Y0782400D03*
X0109987Y0792400D03*
X0109987Y0799900D03*
X0109487Y0755900D03*
X0116180Y0755900D03*
X0149987Y0747400D03*
X0156680Y0747400D03*
X0156680Y0767400D03*
X0149987Y0767400D03*
X0134180Y0665400D03*
X0134180Y0657900D03*
X0134180Y0650400D03*
X0134180Y0642900D03*
X0134180Y0635400D03*
X0134180Y0627900D03*
X0134180Y0620400D03*
X0127487Y0620400D03*
X0127487Y0627900D03*
X0127487Y0635400D03*
X0127487Y0642900D03*
X0127487Y0650400D03*
X0127487Y0657900D03*
X0127487Y0665400D03*
X0116680Y0647900D03*
X0116680Y0640400D03*
X0116680Y0630400D03*
X0116680Y0622900D03*
X0109987Y0622900D03*
X0109987Y0630400D03*
X0109987Y0640400D03*
X0109987Y0647900D03*
X0109487Y0603900D03*
X0116180Y0603900D03*
X0149987Y0595400D03*
X0156680Y0595400D03*
X0156680Y0615400D03*
X0149987Y0615400D03*
X0174987Y0612900D03*
X0181680Y0612900D03*
X0181680Y0605400D03*
X0174987Y0605400D03*
X0174987Y0620400D03*
X0181680Y0620400D03*
X0181680Y0627900D03*
X0174987Y0627900D03*
X0174987Y0635400D03*
X0181680Y0635400D03*
X0181680Y0642900D03*
X0174987Y0642900D03*
X0174987Y0650400D03*
X0181680Y0650400D03*
X0181680Y0657900D03*
X0174987Y0657900D03*
X0156680Y0660400D03*
X0149987Y0660400D03*
X0189987Y0595400D03*
X0196680Y0595400D03*
X0156680Y0508400D03*
X0149987Y0508400D03*
X0134180Y0505900D03*
X0134180Y0498400D03*
X0134180Y0490900D03*
X0134180Y0483400D03*
X0134180Y0475900D03*
X0134180Y0468400D03*
X0127487Y0468400D03*
X0127487Y0475900D03*
X0127487Y0483400D03*
X0127487Y0490900D03*
X0127487Y0498400D03*
X0127487Y0505900D03*
X0127487Y0513400D03*
X0134180Y0513400D03*
X0116680Y0495900D03*
X0116680Y0488400D03*
X0116680Y0478400D03*
X0116680Y0470900D03*
X0109987Y0470900D03*
X0109987Y0478400D03*
X0109987Y0488400D03*
X0109987Y0495900D03*
X0109487Y0451900D03*
X0116180Y0451900D03*
X0149987Y0443400D03*
X0156680Y0443400D03*
X0156680Y0463400D03*
X0149987Y0463400D03*
X0174987Y0460900D03*
X0181680Y0460900D03*
X0181680Y0453400D03*
X0174987Y0453400D03*
X0174987Y0468400D03*
X0181680Y0468400D03*
X0181680Y0475900D03*
X0174987Y0475900D03*
X0174987Y0483400D03*
X0181680Y0483400D03*
X0181680Y0490900D03*
X0174987Y0490900D03*
X0174987Y0498400D03*
X0181680Y0498400D03*
X0181680Y0505900D03*
X0174987Y0505900D03*
X0189987Y0443400D03*
X0196680Y0443400D03*
D11*
X0138333Y0458144D03*
X0138333Y0463656D03*
X0130833Y0463656D03*
X0130833Y0458144D03*
X0130833Y0311656D03*
X0130833Y0306144D03*
X0138333Y0306144D03*
X0138333Y0311656D03*
X0282833Y0311656D03*
X0282833Y0306144D03*
X0290333Y0306144D03*
X0290333Y0311656D03*
X0290333Y0458144D03*
X0290333Y0463656D03*
X0282833Y0463656D03*
X0282833Y0458144D03*
X0282833Y0610144D03*
X0282833Y0615656D03*
X0290333Y0615656D03*
X0290333Y0610144D03*
X0290333Y0762144D03*
X0290333Y0767656D03*
X0282833Y0767656D03*
X0282833Y0762144D03*
X0138333Y0762144D03*
X0138333Y0767656D03*
X0130833Y0767656D03*
X0130833Y0762144D03*
X0130833Y0615656D03*
X0130833Y0610144D03*
X0138333Y0610144D03*
X0138333Y0615656D03*
D12*
X0147822Y0605400D03*
X0158845Y0605400D03*
X0158845Y0453400D03*
X0147822Y0453400D03*
X0147822Y0301400D03*
X0158845Y0301400D03*
X0299822Y0301400D03*
X0310845Y0301400D03*
X0310845Y0453400D03*
X0299822Y0453400D03*
X0299822Y0605400D03*
X0310845Y0605400D03*
X0310845Y0757400D03*
X0299822Y0757400D03*
X0158845Y0757400D03*
X0147822Y0757400D03*
D13*
X0113333Y0806888D03*
X0113333Y0817912D03*
X0113333Y0665912D03*
X0113333Y0654888D03*
X0113333Y0513912D03*
X0113333Y0502888D03*
X0113333Y0361912D03*
X0113333Y0350888D03*
X0265333Y0350888D03*
X0265333Y0361912D03*
X0265333Y0502888D03*
X0265333Y0513912D03*
X0265333Y0654888D03*
X0265333Y0665912D03*
X0265333Y0806888D03*
X0265333Y0817912D03*
D14*
X0263259Y0763778D02*
X0263259Y0761022D01*
X0260503Y0761022D01*
X0260503Y0763778D01*
X0263259Y0763778D01*
X0263259Y0762144D02*
X0260503Y0762144D01*
X0260503Y0763266D02*
X0263259Y0763266D01*
X0270164Y0763778D02*
X0270164Y0761022D01*
X0267408Y0761022D01*
X0267408Y0763778D01*
X0270164Y0763778D01*
X0270164Y0762144D02*
X0267408Y0762144D01*
X0267408Y0763266D02*
X0270164Y0763266D01*
X0270164Y0611778D02*
X0270164Y0609022D01*
X0267408Y0609022D01*
X0267408Y0611778D01*
X0270164Y0611778D01*
X0270164Y0610144D02*
X0267408Y0610144D01*
X0267408Y0611266D02*
X0270164Y0611266D01*
X0263259Y0611778D02*
X0263259Y0609022D01*
X0260503Y0609022D01*
X0260503Y0611778D01*
X0263259Y0611778D01*
X0263259Y0610144D02*
X0260503Y0610144D01*
X0260503Y0611266D02*
X0263259Y0611266D01*
X0263259Y0459778D02*
X0263259Y0457022D01*
X0260503Y0457022D01*
X0260503Y0459778D01*
X0263259Y0459778D01*
X0263259Y0458144D02*
X0260503Y0458144D01*
X0260503Y0459266D02*
X0263259Y0459266D01*
X0270164Y0459778D02*
X0270164Y0457022D01*
X0267408Y0457022D01*
X0267408Y0459778D01*
X0270164Y0459778D01*
X0270164Y0458144D02*
X0267408Y0458144D01*
X0267408Y0459266D02*
X0270164Y0459266D01*
X0270164Y0307778D02*
X0270164Y0305022D01*
X0267408Y0305022D01*
X0267408Y0307778D01*
X0270164Y0307778D01*
X0270164Y0306144D02*
X0267408Y0306144D01*
X0267408Y0307266D02*
X0270164Y0307266D01*
X0263259Y0307778D02*
X0263259Y0305022D01*
X0260503Y0305022D01*
X0260503Y0307778D01*
X0263259Y0307778D01*
X0263259Y0306144D02*
X0260503Y0306144D01*
X0260503Y0307266D02*
X0263259Y0307266D01*
X0118164Y0307778D02*
X0118164Y0305022D01*
X0115408Y0305022D01*
X0115408Y0307778D01*
X0118164Y0307778D01*
X0118164Y0306144D02*
X0115408Y0306144D01*
X0115408Y0307266D02*
X0118164Y0307266D01*
X0111259Y0307778D02*
X0111259Y0305022D01*
X0108503Y0305022D01*
X0108503Y0307778D01*
X0111259Y0307778D01*
X0111259Y0306144D02*
X0108503Y0306144D01*
X0108503Y0307266D02*
X0111259Y0307266D01*
X0111259Y0457022D02*
X0111259Y0459778D01*
X0111259Y0457022D02*
X0108503Y0457022D01*
X0108503Y0459778D01*
X0111259Y0459778D01*
X0111259Y0458144D02*
X0108503Y0458144D01*
X0108503Y0459266D02*
X0111259Y0459266D01*
X0118164Y0459778D02*
X0118164Y0457022D01*
X0115408Y0457022D01*
X0115408Y0459778D01*
X0118164Y0459778D01*
X0118164Y0458144D02*
X0115408Y0458144D01*
X0115408Y0459266D02*
X0118164Y0459266D01*
X0118164Y0609022D02*
X0118164Y0611778D01*
X0118164Y0609022D02*
X0115408Y0609022D01*
X0115408Y0611778D01*
X0118164Y0611778D01*
X0118164Y0610144D02*
X0115408Y0610144D01*
X0115408Y0611266D02*
X0118164Y0611266D01*
X0111259Y0611778D02*
X0111259Y0609022D01*
X0108503Y0609022D01*
X0108503Y0611778D01*
X0111259Y0611778D01*
X0111259Y0610144D02*
X0108503Y0610144D01*
X0108503Y0611266D02*
X0111259Y0611266D01*
X0111259Y0761022D02*
X0111259Y0763778D01*
X0111259Y0761022D02*
X0108503Y0761022D01*
X0108503Y0763778D01*
X0111259Y0763778D01*
X0111259Y0762144D02*
X0108503Y0762144D01*
X0108503Y0763266D02*
X0111259Y0763266D01*
X0118164Y0763778D02*
X0118164Y0761022D01*
X0115408Y0761022D01*
X0115408Y0763778D01*
X0118164Y0763778D01*
X0118164Y0762144D02*
X0115408Y0762144D01*
X0115408Y0763266D02*
X0118164Y0763266D01*
D15*
X0118833Y0749928D03*
X0118833Y0740872D03*
X0153333Y0731928D03*
X0153333Y0722872D03*
X0193333Y0722872D03*
X0193333Y0731928D03*
X0270833Y0740872D03*
X0270833Y0749928D03*
X0305333Y0731928D03*
X0305333Y0722872D03*
X0345333Y0722872D03*
X0345333Y0731928D03*
X0270833Y0597928D03*
X0270833Y0588872D03*
X0305333Y0579928D03*
X0305333Y0570872D03*
X0345333Y0570872D03*
X0345333Y0579928D03*
X0270833Y0445928D03*
X0270833Y0436872D03*
X0305333Y0427928D03*
X0305333Y0418872D03*
X0345333Y0418872D03*
X0345333Y0427928D03*
X0270833Y0293928D03*
X0270833Y0284872D03*
X0305333Y0275928D03*
X0305333Y0266872D03*
X0345333Y0266872D03*
X0345333Y0275928D03*
X0193333Y0275928D03*
X0193333Y0266872D03*
X0153333Y0266872D03*
X0153333Y0275928D03*
X0118833Y0284872D03*
X0118833Y0293928D03*
X0153333Y0418872D03*
X0153333Y0427928D03*
X0118833Y0436872D03*
X0118833Y0445928D03*
X0193333Y0427928D03*
X0193333Y0418872D03*
X0193333Y0570872D03*
X0193333Y0579928D03*
X0153333Y0579928D03*
X0153333Y0570872D03*
X0118833Y0588872D03*
X0118833Y0597928D03*
D16*
X0097664Y0615124D03*
X0089003Y0615124D03*
X0089003Y0655676D03*
X0097664Y0655676D03*
X0097664Y0767124D03*
X0089003Y0767124D03*
X0089003Y0807676D03*
X0097664Y0807676D03*
X0241003Y0807676D03*
X0249664Y0807676D03*
X0249664Y0767124D03*
X0241003Y0767124D03*
X0241003Y0655676D03*
X0249664Y0655676D03*
X0249664Y0615124D03*
X0241003Y0615124D03*
X0241003Y0503676D03*
X0249664Y0503676D03*
X0249664Y0463124D03*
X0241003Y0463124D03*
X0241003Y0351676D03*
X0249664Y0351676D03*
X0249664Y0311124D03*
X0241003Y0311124D03*
X0097664Y0311124D03*
X0089003Y0311124D03*
X0089003Y0351676D03*
X0097664Y0351676D03*
X0097664Y0463124D03*
X0089003Y0463124D03*
X0089003Y0503676D03*
X0097664Y0503676D03*
D17*
X0100223Y0495211D03*
X0100223Y0489306D03*
X0100223Y0477494D03*
X0100223Y0471589D03*
X0100223Y0343211D03*
X0100223Y0337306D03*
X0100223Y0325494D03*
X0100223Y0319589D03*
X0252223Y0319589D03*
X0252223Y0325494D03*
X0252223Y0337306D03*
X0252223Y0343211D03*
X0252223Y0471589D03*
X0252223Y0477494D03*
X0252223Y0489306D03*
X0252223Y0495211D03*
X0252223Y0623589D03*
X0252223Y0629494D03*
X0252223Y0641306D03*
X0252223Y0647211D03*
X0252223Y0775589D03*
X0252223Y0781494D03*
X0252223Y0793306D03*
X0252223Y0799211D03*
X0100223Y0799211D03*
X0100223Y0793306D03*
X0100223Y0781494D03*
X0100223Y0775589D03*
X0100223Y0647211D03*
X0100223Y0641306D03*
X0100223Y0629494D03*
X0100223Y0623589D03*
D18*
X0145213Y0666463D03*
X0145213Y0668431D03*
X0145213Y0670400D03*
X0145213Y0672369D03*
X0145213Y0674337D03*
X0161453Y0674337D03*
X0161453Y0672369D03*
X0161453Y0670400D03*
X0161453Y0668431D03*
X0161453Y0666463D03*
X0161453Y0522337D03*
X0161453Y0520369D03*
X0161453Y0518400D03*
X0161453Y0516431D03*
X0161453Y0514463D03*
X0145213Y0514463D03*
X0145213Y0516431D03*
X0145213Y0518400D03*
X0145213Y0520369D03*
X0145213Y0522337D03*
X0145213Y0370337D03*
X0145213Y0368369D03*
X0145213Y0366400D03*
X0145213Y0364431D03*
X0145213Y0362463D03*
X0161453Y0362463D03*
X0161453Y0364431D03*
X0161453Y0366400D03*
X0161453Y0368369D03*
X0161453Y0370337D03*
X0297213Y0370337D03*
X0297213Y0368369D03*
X0297213Y0366400D03*
X0297213Y0364431D03*
X0297213Y0362463D03*
X0313453Y0362463D03*
X0313453Y0364431D03*
X0313453Y0366400D03*
X0313453Y0368369D03*
X0313453Y0370337D03*
X0313453Y0514463D03*
X0313453Y0516431D03*
X0313453Y0518400D03*
X0313453Y0520369D03*
X0313453Y0522337D03*
X0297213Y0522337D03*
X0297213Y0520369D03*
X0297213Y0518400D03*
X0297213Y0516431D03*
X0297213Y0514463D03*
X0297213Y0666463D03*
X0297213Y0668431D03*
X0297213Y0670400D03*
X0297213Y0672369D03*
X0297213Y0674337D03*
X0313453Y0674337D03*
X0313453Y0672369D03*
X0313453Y0670400D03*
X0313453Y0668431D03*
X0313453Y0666463D03*
X0313453Y0818463D03*
X0313453Y0820431D03*
X0313453Y0822400D03*
X0313453Y0824369D03*
X0313453Y0826337D03*
X0297213Y0826337D03*
X0297213Y0824369D03*
X0297213Y0822400D03*
X0297213Y0820431D03*
X0297213Y0818463D03*
X0161453Y0818463D03*
X0161453Y0820431D03*
X0161453Y0822400D03*
X0161453Y0824369D03*
X0161453Y0826337D03*
X0145213Y0826337D03*
X0145213Y0824369D03*
X0145213Y0822400D03*
X0145213Y0820431D03*
X0145213Y0818463D03*
D19*
X0112770Y0749140D03*
X0112770Y0741660D03*
X0104503Y0745400D03*
X0112770Y0597140D03*
X0112770Y0589660D03*
X0104503Y0593400D03*
X0112770Y0445140D03*
X0112770Y0437660D03*
X0104503Y0441400D03*
X0112770Y0293140D03*
X0112770Y0285660D03*
X0104503Y0289400D03*
X0256503Y0289400D03*
X0264770Y0293140D03*
X0264770Y0285660D03*
X0264770Y0437660D03*
X0264770Y0445140D03*
X0256503Y0441400D03*
X0264770Y0589660D03*
X0264770Y0597140D03*
X0256503Y0593400D03*
X0264770Y0741660D03*
X0264770Y0749140D03*
X0256503Y0745400D03*
D20*
X0113333Y0268054D03*
X0113333Y0274746D03*
X0153333Y0388054D03*
X0153333Y0394746D03*
X0113333Y0420054D03*
X0113333Y0426746D03*
X0153333Y0540054D03*
X0153333Y0546746D03*
X0113333Y0572054D03*
X0113333Y0578746D03*
X0153333Y0692054D03*
X0153333Y0698746D03*
X0113333Y0724054D03*
X0113333Y0730746D03*
X0153333Y0844054D03*
X0153333Y0850746D03*
X0265333Y0730746D03*
X0265333Y0724054D03*
X0305333Y0698746D03*
X0305333Y0692054D03*
X0265333Y0578746D03*
X0265333Y0572054D03*
X0305333Y0546746D03*
X0305333Y0540054D03*
X0265333Y0426746D03*
X0265333Y0420054D03*
X0305333Y0394746D03*
X0305333Y0388054D03*
X0265333Y0274746D03*
X0265333Y0268054D03*
X0305333Y0844054D03*
X0305333Y0850746D03*
D21*
X0294310Y0804900D03*
X0294310Y0799900D03*
X0294310Y0794900D03*
X0294310Y0789900D03*
X0294310Y0784900D03*
X0294310Y0779900D03*
X0294310Y0774900D03*
X0316357Y0774900D03*
X0316357Y0779900D03*
X0316357Y0784900D03*
X0316357Y0789900D03*
X0316357Y0794900D03*
X0316357Y0799900D03*
X0316357Y0804900D03*
X0316357Y0652900D03*
X0316357Y0647900D03*
X0316357Y0642900D03*
X0316357Y0637900D03*
X0316357Y0632900D03*
X0316357Y0627900D03*
X0316357Y0622900D03*
X0294310Y0622900D03*
X0294310Y0627900D03*
X0294310Y0632900D03*
X0294310Y0637900D03*
X0294310Y0642900D03*
X0294310Y0647900D03*
X0294310Y0652900D03*
X0294310Y0500900D03*
X0294310Y0495900D03*
X0294310Y0490900D03*
X0294310Y0485900D03*
X0294310Y0480900D03*
X0294310Y0475900D03*
X0294310Y0470900D03*
X0316357Y0470900D03*
X0316357Y0475900D03*
X0316357Y0480900D03*
X0316357Y0485900D03*
X0316357Y0490900D03*
X0316357Y0495900D03*
X0316357Y0500900D03*
X0316357Y0348900D03*
X0316357Y0343900D03*
X0316357Y0338900D03*
X0316357Y0333900D03*
X0316357Y0328900D03*
X0316357Y0323900D03*
X0316357Y0318900D03*
X0294310Y0318900D03*
X0294310Y0323900D03*
X0294310Y0328900D03*
X0294310Y0333900D03*
X0294310Y0338900D03*
X0294310Y0343900D03*
X0294310Y0348900D03*
X0164357Y0348900D03*
X0164357Y0343900D03*
X0164357Y0338900D03*
X0164357Y0333900D03*
X0164357Y0328900D03*
X0164357Y0323900D03*
X0164357Y0318900D03*
X0142310Y0318900D03*
X0142310Y0323900D03*
X0142310Y0328900D03*
X0142310Y0333900D03*
X0142310Y0338900D03*
X0142310Y0343900D03*
X0142310Y0348900D03*
X0142310Y0470900D03*
X0142310Y0475900D03*
X0142310Y0480900D03*
X0142310Y0485900D03*
X0142310Y0490900D03*
X0142310Y0495900D03*
X0142310Y0500900D03*
X0164357Y0500900D03*
X0164357Y0495900D03*
X0164357Y0490900D03*
X0164357Y0485900D03*
X0164357Y0480900D03*
X0164357Y0475900D03*
X0164357Y0470900D03*
X0164357Y0622900D03*
X0164357Y0627900D03*
X0164357Y0632900D03*
X0164357Y0637900D03*
X0164357Y0642900D03*
X0164357Y0647900D03*
X0164357Y0652900D03*
X0142310Y0652900D03*
X0142310Y0647900D03*
X0142310Y0642900D03*
X0142310Y0637900D03*
X0142310Y0632900D03*
X0142310Y0627900D03*
X0142310Y0622900D03*
X0142310Y0774900D03*
X0142310Y0779900D03*
X0142310Y0784900D03*
X0142310Y0789900D03*
X0142310Y0794900D03*
X0142310Y0799900D03*
X0142310Y0804900D03*
X0164357Y0804900D03*
X0164357Y0799900D03*
X0164357Y0794900D03*
X0164357Y0789900D03*
X0164357Y0784900D03*
X0164357Y0779900D03*
X0164357Y0774900D03*
M02*
