%
M48
M72
T01C0.0150
T02C0.0315
T03C0.0354
T04C0.1200
T05C0.1575
%
T01
X10833Y28140
X12783Y30140
X12033Y30290
X12333Y31990
X12333Y32790
X12283Y33690
X12133Y35490
X12083Y36140
X13983Y36140
X14283Y35840
X14733Y34890
X15583Y34540
X14999Y34140
X15783Y33390
X14933Y32940
X17033Y33440
X18783Y33890
X19833Y33140
X18783Y32390
X18833Y31640
X19383Y30440
X19083Y29740
X18633Y29690
X16533Y30140
X14833Y28140
X14133Y30140
X10533Y30340
X10133Y31540
X9333Y31640
X10533Y32590
X10483Y34740
X9333Y34640
X14733Y38440
X16083Y38340
X16633Y36740
X16333Y35640
X18483Y36690
X19883Y34940
X21883Y35440
X21883Y30440
X20883Y30440
T02
X21621Y32640
X21621Y33640
T03
X9333Y34124
X9333Y32156
T04
X8833Y36890
X21833Y36890
T05
X9333Y27540
X13333Y27540
X17333Y27540
X21333Y27540
X21333Y39740
X17333Y39740
X13333Y39740
X9333Y39740
M30
