G75*
%MOIN*%
%OFA0B0*%
%FSLAX25Y25*%
%IPPOS*%
%LPD*%
%AMOC8*
5,1,8,0,0,1.08239X$1,22.5*
%
%ADD10C,0.00800*%
%ADD11C,0.00400*%
%ADD12C,0.00300*%
%ADD13R,0.12756X0.00157*%
%ADD14R,0.13701X0.00157*%
%ADD15R,0.14331X0.00157*%
%ADD16R,0.14961X0.00157*%
%ADD17R,0.15276X0.00157*%
%ADD18R,0.15591X0.00157*%
%ADD19R,0.15906X0.00157*%
%ADD20R,0.03780X0.00157*%
%ADD21R,0.07087X0.00157*%
%ADD22R,0.03465X0.00157*%
%ADD23R,0.01102X0.00157*%
%ADD24R,0.02362X0.00157*%
%ADD25R,0.03307X0.00157*%
%ADD26R,0.00787X0.00157*%
%ADD27R,0.00630X0.00157*%
%ADD28R,0.02047X0.00157*%
%ADD29R,0.03150X0.00157*%
%ADD30R,0.00472X0.00157*%
%ADD31R,0.01890X0.00157*%
%ADD32R,0.00315X0.00157*%
%ADD33R,0.01732X0.00157*%
%ADD34R,0.01575X0.00157*%
%ADD35R,0.01417X0.00157*%
%ADD36R,0.01260X0.00157*%
%ADD37R,0.04409X0.00157*%
%ADD38R,0.00945X0.00157*%
%ADD39R,0.03622X0.00157*%
%ADD40R,0.02205X0.00157*%
%ADD41R,0.05039X0.00157*%
%ADD42R,0.00157X0.00157*%
%ADD43R,0.02992X0.00157*%
%ADD44R,0.02520X0.00157*%
%ADD45R,0.14646X0.00157*%
%ADD46R,0.16220X0.00157*%
%ADD47R,0.16535X0.00157*%
%ADD48R,0.16850X0.00157*%
%ADD49R,0.04252X0.00157*%
%ADD50R,0.11969X0.00157*%
%ADD51R,0.04094X0.00157*%
%ADD52R,0.02835X0.00157*%
%ADD53R,0.03937X0.00157*%
%ADD54C,0.01575*%
%ADD55R,0.12126X0.00157*%
%ADD56R,0.13071X0.00157*%
%ADD57R,0.04882X0.00157*%
%ADD58R,0.05197X0.00157*%
%ADD59R,0.02677X0.00157*%
%ADD60R,0.14016X0.00157*%
%ADD61R,0.04567X0.00157*%
%ADD62R,0.05354X0.00157*%
%ADD63R,0.17165X0.00157*%
%ADD64R,0.17480X0.00157*%
%ADD65R,0.06614X0.00157*%
%ADD66R,0.06772X0.00157*%
%ADD67C,0.00010*%
D10*
X0150873Y0267857D02*
X0150873Y0274943D01*
X0150873Y0278369D02*
X0155794Y0278369D01*
X0155794Y0274943D02*
X0155794Y0267857D01*
X0121294Y0285857D02*
X0121294Y0292943D01*
X0121294Y0296369D02*
X0116373Y0296369D01*
X0116373Y0292943D02*
X0116373Y0285857D01*
X0109227Y0283888D02*
X0106077Y0283888D01*
X0106077Y0286250D01*
X0106077Y0292550D02*
X0106077Y0294912D01*
X0109227Y0294912D01*
X0112664Y0304589D02*
X0112664Y0306400D01*
X0113885Y0307320D01*
X0112664Y0308211D02*
X0112664Y0306400D01*
X0112725Y0306300D02*
X0113885Y0305540D01*
X0098951Y0314274D02*
X0098951Y0317030D01*
X0094908Y0311806D02*
X0091759Y0311806D01*
X0087715Y0314274D02*
X0087715Y0348526D01*
X0091759Y0350994D02*
X0094908Y0350994D01*
X0098951Y0348526D02*
X0098951Y0345770D01*
X0098951Y0334353D02*
X0098951Y0328447D01*
X0129160Y0311361D02*
X0129160Y0306439D01*
X0129633Y0304500D02*
X0132033Y0304500D01*
X0132507Y0306439D02*
X0132507Y0311361D01*
X0136660Y0311361D02*
X0136660Y0306439D01*
X0137133Y0304500D02*
X0139533Y0304500D01*
X0140007Y0306439D02*
X0140007Y0311361D01*
X0145671Y0316806D02*
X0145671Y0350600D01*
X0145662Y0350670D01*
X0145657Y0350742D01*
X0145656Y0350813D01*
X0145659Y0350884D01*
X0145666Y0350955D01*
X0145676Y0351026D01*
X0145690Y0351096D01*
X0145708Y0351165D01*
X0145730Y0351233D01*
X0145756Y0351300D01*
X0145785Y0351365D01*
X0145817Y0351428D01*
X0145853Y0351490D01*
X0145892Y0351550D01*
X0145935Y0351607D01*
X0145980Y0351662D01*
X0146028Y0351715D01*
X0146080Y0351765D01*
X0146133Y0351812D01*
X0146189Y0351856D01*
X0146248Y0351896D01*
X0146309Y0351934D01*
X0146371Y0351968D01*
X0146435Y0351999D01*
X0146501Y0352027D01*
X0146569Y0352050D01*
X0146637Y0352070D01*
X0146707Y0352087D01*
X0146777Y0352099D01*
X0146777Y0352100D02*
X0150733Y0352100D01*
X0150733Y0351900D02*
X0150735Y0351802D01*
X0150741Y0351704D01*
X0150750Y0351606D01*
X0150764Y0351509D01*
X0150781Y0351412D01*
X0150802Y0351316D01*
X0150827Y0351221D01*
X0150855Y0351127D01*
X0150888Y0351035D01*
X0150923Y0350943D01*
X0150963Y0350853D01*
X0151005Y0350765D01*
X0151052Y0350678D01*
X0151101Y0350594D01*
X0151154Y0350511D01*
X0151210Y0350431D01*
X0151270Y0350352D01*
X0151332Y0350276D01*
X0151397Y0350203D01*
X0151465Y0350132D01*
X0151536Y0350064D01*
X0151609Y0349999D01*
X0151685Y0349937D01*
X0151764Y0349877D01*
X0151844Y0349821D01*
X0151927Y0349768D01*
X0152011Y0349719D01*
X0152098Y0349672D01*
X0152186Y0349630D01*
X0152276Y0349590D01*
X0152368Y0349555D01*
X0152460Y0349522D01*
X0152554Y0349494D01*
X0152649Y0349469D01*
X0152745Y0349448D01*
X0152842Y0349431D01*
X0152939Y0349417D01*
X0153037Y0349408D01*
X0153135Y0349402D01*
X0153233Y0349400D01*
X0153331Y0349402D01*
X0153429Y0349408D01*
X0153527Y0349417D01*
X0153624Y0349431D01*
X0153721Y0349448D01*
X0153817Y0349469D01*
X0153912Y0349494D01*
X0154006Y0349522D01*
X0154098Y0349555D01*
X0154190Y0349590D01*
X0154280Y0349630D01*
X0154368Y0349672D01*
X0154455Y0349719D01*
X0154539Y0349768D01*
X0154622Y0349821D01*
X0154702Y0349877D01*
X0154781Y0349937D01*
X0154857Y0349999D01*
X0154930Y0350064D01*
X0155001Y0350132D01*
X0155069Y0350203D01*
X0155134Y0350276D01*
X0155196Y0350352D01*
X0155256Y0350431D01*
X0155312Y0350511D01*
X0155365Y0350594D01*
X0155414Y0350678D01*
X0155461Y0350765D01*
X0155503Y0350853D01*
X0155543Y0350943D01*
X0155578Y0351035D01*
X0155611Y0351127D01*
X0155639Y0351221D01*
X0155664Y0351316D01*
X0155685Y0351412D01*
X0155702Y0351509D01*
X0155716Y0351606D01*
X0155725Y0351704D01*
X0155731Y0351802D01*
X0155733Y0351900D01*
X0155733Y0352100D02*
X0159052Y0352100D01*
X0159102Y0352101D02*
X0159183Y0352108D01*
X0159264Y0352112D01*
X0159345Y0352111D01*
X0159427Y0352107D01*
X0159507Y0352099D01*
X0159588Y0352087D01*
X0159668Y0352072D01*
X0159747Y0352052D01*
X0159825Y0352029D01*
X0159901Y0352002D01*
X0159977Y0351972D01*
X0160051Y0351938D01*
X0160123Y0351900D01*
X0160193Y0351859D01*
X0160261Y0351815D01*
X0160327Y0351768D01*
X0160391Y0351717D01*
X0160452Y0351664D01*
X0160511Y0351607D01*
X0160567Y0351548D01*
X0160620Y0351487D01*
X0160670Y0351423D01*
X0160717Y0351356D01*
X0160761Y0351288D01*
X0160801Y0351217D01*
X0160838Y0351145D01*
X0160872Y0351071D01*
X0160901Y0350995D01*
X0160928Y0350918D01*
X0160950Y0350840D01*
X0160969Y0350761D01*
X0160984Y0350681D01*
X0160996Y0350600D01*
X0160996Y0317200D01*
X0160994Y0317124D01*
X0160988Y0317049D01*
X0160979Y0316973D01*
X0160965Y0316898D01*
X0160948Y0316824D01*
X0160927Y0316751D01*
X0160903Y0316679D01*
X0160875Y0316609D01*
X0160843Y0316540D01*
X0160808Y0316472D01*
X0160769Y0316407D01*
X0160727Y0316343D01*
X0160682Y0316282D01*
X0160634Y0316223D01*
X0160583Y0316167D01*
X0160529Y0316113D01*
X0160473Y0316062D01*
X0160414Y0316014D01*
X0160353Y0315969D01*
X0160289Y0315927D01*
X0160224Y0315888D01*
X0160156Y0315853D01*
X0160087Y0315821D01*
X0160017Y0315793D01*
X0159945Y0315769D01*
X0159872Y0315748D01*
X0159798Y0315731D01*
X0159723Y0315717D01*
X0159647Y0315708D01*
X0159572Y0315702D01*
X0159496Y0315700D01*
X0147171Y0315700D01*
X0147100Y0315691D01*
X0147029Y0315686D01*
X0146957Y0315685D01*
X0146886Y0315688D01*
X0146815Y0315695D01*
X0146744Y0315705D01*
X0146675Y0315719D01*
X0146605Y0315738D01*
X0146537Y0315759D01*
X0146471Y0315785D01*
X0146406Y0315814D01*
X0146342Y0315846D01*
X0146280Y0315882D01*
X0146221Y0315921D01*
X0146163Y0315964D01*
X0146108Y0316009D01*
X0146056Y0316058D01*
X0146006Y0316109D01*
X0145959Y0316162D01*
X0145915Y0316219D01*
X0145874Y0316277D01*
X0145836Y0316338D01*
X0145802Y0316400D01*
X0145771Y0316465D01*
X0145744Y0316531D01*
X0145720Y0316598D01*
X0145700Y0316666D01*
X0145683Y0316736D01*
X0145671Y0316806D01*
X0147822Y0360790D02*
X0158845Y0360790D01*
X0158845Y0372010D02*
X0147822Y0372010D01*
X0189239Y0331400D02*
X0189245Y0331869D01*
X0189262Y0332337D01*
X0189291Y0332805D01*
X0189331Y0333272D01*
X0189383Y0333737D01*
X0189446Y0334202D01*
X0189520Y0334664D01*
X0189606Y0335125D01*
X0189703Y0335584D01*
X0189811Y0336039D01*
X0189931Y0336493D01*
X0190061Y0336943D01*
X0190203Y0337389D01*
X0190355Y0337833D01*
X0190518Y0338272D01*
X0190692Y0338707D01*
X0190877Y0339138D01*
X0191072Y0339564D01*
X0191278Y0339985D01*
X0191494Y0340401D01*
X0191720Y0340811D01*
X0191956Y0341216D01*
X0192201Y0341615D01*
X0192457Y0342008D01*
X0192722Y0342394D01*
X0192997Y0342774D01*
X0193280Y0343147D01*
X0193573Y0343513D01*
X0193875Y0343872D01*
X0194185Y0344223D01*
X0194504Y0344566D01*
X0194832Y0344901D01*
X0195167Y0345229D01*
X0195510Y0345548D01*
X0195861Y0345858D01*
X0196220Y0346160D01*
X0196586Y0346453D01*
X0196959Y0346736D01*
X0197339Y0347011D01*
X0197725Y0347276D01*
X0198118Y0347532D01*
X0198517Y0347777D01*
X0198922Y0348013D01*
X0199332Y0348239D01*
X0199748Y0348455D01*
X0200169Y0348661D01*
X0200595Y0348856D01*
X0201026Y0349041D01*
X0201461Y0349215D01*
X0201900Y0349378D01*
X0202344Y0349530D01*
X0202790Y0349672D01*
X0203240Y0349802D01*
X0203694Y0349922D01*
X0204149Y0350030D01*
X0204608Y0350127D01*
X0205069Y0350213D01*
X0205531Y0350287D01*
X0205996Y0350350D01*
X0206461Y0350402D01*
X0206928Y0350442D01*
X0207396Y0350471D01*
X0207864Y0350488D01*
X0208333Y0350494D01*
X0208802Y0350488D01*
X0209270Y0350471D01*
X0209738Y0350442D01*
X0210205Y0350402D01*
X0210670Y0350350D01*
X0211135Y0350287D01*
X0211597Y0350213D01*
X0212058Y0350127D01*
X0212517Y0350030D01*
X0212972Y0349922D01*
X0213426Y0349802D01*
X0213876Y0349672D01*
X0214322Y0349530D01*
X0214766Y0349378D01*
X0215205Y0349215D01*
X0215640Y0349041D01*
X0216071Y0348856D01*
X0216497Y0348661D01*
X0216918Y0348455D01*
X0217334Y0348239D01*
X0217744Y0348013D01*
X0218149Y0347777D01*
X0218548Y0347532D01*
X0218941Y0347276D01*
X0219327Y0347011D01*
X0219707Y0346736D01*
X0220080Y0346453D01*
X0220446Y0346160D01*
X0220805Y0345858D01*
X0221156Y0345548D01*
X0221499Y0345229D01*
X0221834Y0344901D01*
X0222162Y0344566D01*
X0222481Y0344223D01*
X0222791Y0343872D01*
X0223093Y0343513D01*
X0223386Y0343147D01*
X0223669Y0342774D01*
X0223944Y0342394D01*
X0224209Y0342008D01*
X0224465Y0341615D01*
X0224710Y0341216D01*
X0224946Y0340811D01*
X0225172Y0340401D01*
X0225388Y0339985D01*
X0225594Y0339564D01*
X0225789Y0339138D01*
X0225974Y0338707D01*
X0226148Y0338272D01*
X0226311Y0337833D01*
X0226463Y0337389D01*
X0226605Y0336943D01*
X0226735Y0336493D01*
X0226855Y0336039D01*
X0226963Y0335584D01*
X0227060Y0335125D01*
X0227146Y0334664D01*
X0227220Y0334202D01*
X0227283Y0333737D01*
X0227335Y0333272D01*
X0227375Y0332805D01*
X0227404Y0332337D01*
X0227421Y0331869D01*
X0227427Y0331400D01*
X0227421Y0330931D01*
X0227404Y0330463D01*
X0227375Y0329995D01*
X0227335Y0329528D01*
X0227283Y0329063D01*
X0227220Y0328598D01*
X0227146Y0328136D01*
X0227060Y0327675D01*
X0226963Y0327216D01*
X0226855Y0326761D01*
X0226735Y0326307D01*
X0226605Y0325857D01*
X0226463Y0325411D01*
X0226311Y0324967D01*
X0226148Y0324528D01*
X0225974Y0324093D01*
X0225789Y0323662D01*
X0225594Y0323236D01*
X0225388Y0322815D01*
X0225172Y0322399D01*
X0224946Y0321989D01*
X0224710Y0321584D01*
X0224465Y0321185D01*
X0224209Y0320792D01*
X0223944Y0320406D01*
X0223669Y0320026D01*
X0223386Y0319653D01*
X0223093Y0319287D01*
X0222791Y0318928D01*
X0222481Y0318577D01*
X0222162Y0318234D01*
X0221834Y0317899D01*
X0221499Y0317571D01*
X0221156Y0317252D01*
X0220805Y0316942D01*
X0220446Y0316640D01*
X0220080Y0316347D01*
X0219707Y0316064D01*
X0219327Y0315789D01*
X0218941Y0315524D01*
X0218548Y0315268D01*
X0218149Y0315023D01*
X0217744Y0314787D01*
X0217334Y0314561D01*
X0216918Y0314345D01*
X0216497Y0314139D01*
X0216071Y0313944D01*
X0215640Y0313759D01*
X0215205Y0313585D01*
X0214766Y0313422D01*
X0214322Y0313270D01*
X0213876Y0313128D01*
X0213426Y0312998D01*
X0212972Y0312878D01*
X0212517Y0312770D01*
X0212058Y0312673D01*
X0211597Y0312587D01*
X0211135Y0312513D01*
X0210670Y0312450D01*
X0210205Y0312398D01*
X0209738Y0312358D01*
X0209270Y0312329D01*
X0208802Y0312312D01*
X0208333Y0312306D01*
X0207864Y0312312D01*
X0207396Y0312329D01*
X0206928Y0312358D01*
X0206461Y0312398D01*
X0205996Y0312450D01*
X0205531Y0312513D01*
X0205069Y0312587D01*
X0204608Y0312673D01*
X0204149Y0312770D01*
X0203694Y0312878D01*
X0203240Y0312998D01*
X0202790Y0313128D01*
X0202344Y0313270D01*
X0201900Y0313422D01*
X0201461Y0313585D01*
X0201026Y0313759D01*
X0200595Y0313944D01*
X0200169Y0314139D01*
X0199748Y0314345D01*
X0199332Y0314561D01*
X0198922Y0314787D01*
X0198517Y0315023D01*
X0198118Y0315268D01*
X0197725Y0315524D01*
X0197339Y0315789D01*
X0196959Y0316064D01*
X0196586Y0316347D01*
X0196220Y0316640D01*
X0195861Y0316942D01*
X0195510Y0317252D01*
X0195167Y0317571D01*
X0194832Y0317899D01*
X0194504Y0318234D01*
X0194185Y0318577D01*
X0193875Y0318928D01*
X0193573Y0319287D01*
X0193280Y0319653D01*
X0192997Y0320026D01*
X0192722Y0320406D01*
X0192457Y0320792D01*
X0192201Y0321185D01*
X0191956Y0321584D01*
X0191720Y0321989D01*
X0191494Y0322399D01*
X0191278Y0322815D01*
X0191072Y0323236D01*
X0190877Y0323662D01*
X0190692Y0324093D01*
X0190518Y0324528D01*
X0190355Y0324967D01*
X0190203Y0325411D01*
X0190061Y0325857D01*
X0189931Y0326307D01*
X0189811Y0326761D01*
X0189703Y0327216D01*
X0189606Y0327675D01*
X0189520Y0328136D01*
X0189446Y0328598D01*
X0189383Y0329063D01*
X0189331Y0329528D01*
X0189291Y0329995D01*
X0189262Y0330463D01*
X0189245Y0330931D01*
X0189239Y0331400D01*
X0190873Y0278369D02*
X0195794Y0278369D01*
X0195794Y0274943D02*
X0195794Y0267857D01*
X0190873Y0267857D02*
X0190873Y0274943D01*
D11*
X0209386Y0340437D02*
X0212455Y0340437D01*
D12*
X0200156Y0355313D02*
X0200747Y0355943D01*
X0201298Y0356652D01*
X0202046Y0358109D01*
X0202440Y0359526D01*
X0202518Y0360904D01*
X0202322Y0362203D01*
X0201928Y0363306D01*
X0201416Y0364250D01*
X0200747Y0364920D01*
X0200117Y0365313D01*
X0200117Y0365077D01*
X0200156Y0364880D01*
X0200077Y0364408D01*
X0199959Y0364211D01*
X0199762Y0364014D01*
X0199487Y0363896D01*
X0199211Y0363896D01*
X0198660Y0364054D01*
X0198345Y0364211D01*
X0197794Y0364605D01*
X0197518Y0364841D01*
X0197322Y0365038D01*
X0197125Y0365353D01*
X0196967Y0365589D01*
X0196888Y0365865D01*
X0196849Y0366101D01*
X0196888Y0366337D01*
X0196967Y0366534D01*
X0197085Y0366770D01*
X0197243Y0366967D01*
X0197558Y0367243D01*
X0197873Y0367400D01*
X0198188Y0367479D01*
X0198542Y0367518D01*
X0199054Y0367518D01*
X0199211Y0367479D01*
X0199251Y0367479D01*
X0199133Y0367557D01*
X0198857Y0367754D01*
X0198385Y0368030D01*
X0197794Y0368266D01*
X0197085Y0368463D01*
X0196298Y0368502D01*
X0195432Y0368306D01*
X0194526Y0367833D01*
X0193857Y0367282D01*
X0193424Y0366652D01*
X0193188Y0365983D01*
X0193188Y0365313D01*
X0193385Y0364644D01*
X0193739Y0363935D01*
X0194251Y0363266D01*
X0194920Y0362597D01*
X0195432Y0362006D01*
X0195707Y0361416D01*
X0195707Y0360865D01*
X0195550Y0360353D01*
X0195196Y0359959D01*
X0194723Y0359644D01*
X0194172Y0359487D01*
X0193542Y0359487D01*
X0193109Y0359605D01*
X0192755Y0359723D01*
X0192479Y0359959D01*
X0192243Y0360195D01*
X0192125Y0360431D01*
X0192046Y0360707D01*
X0192046Y0360983D01*
X0192125Y0361219D01*
X0192243Y0361376D01*
X0192400Y0361534D01*
X0192597Y0361691D01*
X0192755Y0361809D01*
X0192951Y0361888D01*
X0193188Y0362006D01*
X0193227Y0362046D01*
X0193188Y0362046D01*
X0193070Y0362085D01*
X0192873Y0362164D01*
X0192597Y0362203D01*
X0191888Y0362203D01*
X0191495Y0362124D01*
X0191062Y0362006D01*
X0190668Y0361849D01*
X0190314Y0361613D01*
X0189999Y0361298D01*
X0189723Y0360943D01*
X0189487Y0360510D01*
X0189329Y0359959D01*
X0189251Y0359329D01*
X0189211Y0358581D01*
X0189211Y0348463D01*
X0189251Y0348542D01*
X0189408Y0348699D01*
X0189644Y0348975D01*
X0189920Y0349329D01*
X0190274Y0349723D01*
X0190668Y0350195D01*
X0191101Y0350668D01*
X0191573Y0351180D01*
X0192085Y0351731D01*
X0192518Y0352243D01*
X0192951Y0352676D01*
X0193345Y0353030D01*
X0193739Y0353306D01*
X0194172Y0353502D01*
X0194605Y0353620D01*
X0196140Y0353620D01*
X0197085Y0353739D01*
X0197951Y0353975D01*
X0198739Y0354329D01*
X0199487Y0354802D01*
X0200156Y0355313D01*
X0200266Y0355431D02*
X0189211Y0355431D01*
X0189211Y0355133D02*
X0199920Y0355133D01*
X0199529Y0354834D02*
X0189211Y0354834D01*
X0189211Y0354536D02*
X0199066Y0354536D01*
X0198534Y0354237D02*
X0189211Y0354237D01*
X0189211Y0353939D02*
X0197818Y0353939D01*
X0196297Y0353640D02*
X0189211Y0353640D01*
X0189211Y0353341D02*
X0193818Y0353341D01*
X0193364Y0353043D02*
X0189211Y0353043D01*
X0189211Y0352744D02*
X0193028Y0352744D01*
X0192722Y0352446D02*
X0189211Y0352446D01*
X0189211Y0352147D02*
X0192438Y0352147D01*
X0192185Y0351849D02*
X0189211Y0351849D01*
X0189211Y0351550D02*
X0191918Y0351550D01*
X0191641Y0351252D02*
X0189211Y0351252D01*
X0189211Y0350953D02*
X0191365Y0350953D01*
X0191089Y0350655D02*
X0189211Y0350655D01*
X0189211Y0350356D02*
X0190816Y0350356D01*
X0190553Y0350058D02*
X0189211Y0350058D01*
X0189211Y0349759D02*
X0190305Y0349759D01*
X0190038Y0349461D02*
X0189211Y0349461D01*
X0189211Y0349162D02*
X0189790Y0349162D01*
X0189549Y0348864D02*
X0189211Y0348864D01*
X0189211Y0348565D02*
X0189274Y0348565D01*
X0189211Y0355730D02*
X0200546Y0355730D01*
X0200813Y0356028D02*
X0189211Y0356028D01*
X0189211Y0356327D02*
X0201045Y0356327D01*
X0201277Y0356625D02*
X0189211Y0356625D01*
X0189211Y0356924D02*
X0201437Y0356924D01*
X0201591Y0357222D02*
X0189211Y0357222D01*
X0189211Y0357521D02*
X0201744Y0357521D01*
X0201897Y0357819D02*
X0189211Y0357819D01*
X0189211Y0358118D02*
X0202048Y0358118D01*
X0202131Y0358416D02*
X0189211Y0358416D01*
X0189218Y0358715D02*
X0202214Y0358715D01*
X0202297Y0359013D02*
X0189234Y0359013D01*
X0189250Y0359312D02*
X0202380Y0359312D01*
X0202444Y0359610D02*
X0194605Y0359610D01*
X0195120Y0359909D02*
X0202461Y0359909D01*
X0202479Y0360207D02*
X0195419Y0360207D01*
X0195597Y0360506D02*
X0202496Y0360506D01*
X0202513Y0360804D02*
X0195689Y0360804D01*
X0195707Y0361103D02*
X0202488Y0361103D01*
X0202443Y0361401D02*
X0195707Y0361401D01*
X0195575Y0361700D02*
X0202398Y0361700D01*
X0202353Y0361998D02*
X0195435Y0361998D01*
X0195180Y0362297D02*
X0202288Y0362297D01*
X0202181Y0362595D02*
X0194921Y0362595D01*
X0194623Y0362894D02*
X0202075Y0362894D01*
X0201968Y0363192D02*
X0194324Y0363192D01*
X0194079Y0363491D02*
X0201827Y0363491D01*
X0201666Y0363789D02*
X0193851Y0363789D01*
X0193663Y0364088D02*
X0198591Y0364088D01*
X0198100Y0364386D02*
X0193513Y0364386D01*
X0193373Y0364685D02*
X0197700Y0364685D01*
X0197376Y0364983D02*
X0193285Y0364983D01*
X0193197Y0365282D02*
X0197169Y0365282D01*
X0196973Y0365580D02*
X0193188Y0365580D01*
X0193188Y0365879D02*
X0196886Y0365879D01*
X0196862Y0366177D02*
X0193256Y0366177D01*
X0193362Y0366476D02*
X0196944Y0366476D01*
X0197089Y0366774D02*
X0193508Y0366774D01*
X0193713Y0367073D02*
X0197364Y0367073D01*
X0197816Y0367372D02*
X0193966Y0367372D01*
X0194328Y0367670D02*
X0198975Y0367670D01*
X0198490Y0367969D02*
X0194786Y0367969D01*
X0195358Y0368267D02*
X0197791Y0368267D01*
X0200117Y0365282D02*
X0200167Y0365282D01*
X0200136Y0364983D02*
X0200645Y0364983D01*
X0200981Y0364685D02*
X0200124Y0364685D01*
X0200065Y0364386D02*
X0201280Y0364386D01*
X0201504Y0364088D02*
X0199836Y0364088D01*
X0193172Y0361998D02*
X0191042Y0361998D01*
X0190444Y0361700D02*
X0192608Y0361700D01*
X0192268Y0361401D02*
X0190102Y0361401D01*
X0189847Y0361103D02*
X0192086Y0361103D01*
X0192046Y0360804D02*
X0189647Y0360804D01*
X0189486Y0360506D02*
X0192103Y0360506D01*
X0192237Y0360207D02*
X0189400Y0360207D01*
X0189323Y0359909D02*
X0192538Y0359909D01*
X0193092Y0359610D02*
X0189286Y0359610D01*
D13*
X0133121Y0376750D03*
X0133121Y0383050D03*
X0133546Y0296050D03*
X0133546Y0289750D03*
D14*
X0133546Y0289908D03*
X0133546Y0295892D03*
X0093361Y0296050D03*
X0093361Y0289750D03*
X0093306Y0376750D03*
X0093306Y0383050D03*
X0133121Y0382892D03*
X0133121Y0376908D03*
X0213093Y0377065D03*
X0213093Y0382735D03*
X0213573Y0295735D03*
X0213573Y0290065D03*
D15*
X0213573Y0290223D03*
X0213573Y0295577D03*
X0133546Y0295735D03*
X0133546Y0290065D03*
X0113676Y0309250D03*
X0113676Y0315550D03*
X0133121Y0377065D03*
X0133121Y0382735D03*
X0213093Y0382577D03*
X0213093Y0377223D03*
D16*
X0213093Y0377538D03*
X0213093Y0382262D03*
X0133121Y0382577D03*
X0133121Y0377223D03*
X0133546Y0295577D03*
X0133546Y0290223D03*
X0213573Y0290538D03*
X0213573Y0295262D03*
D17*
X0213573Y0295105D03*
X0213573Y0290695D03*
X0173546Y0290223D03*
X0173546Y0295577D03*
X0133546Y0295420D03*
X0133546Y0290380D03*
X0113676Y0309408D03*
X0113676Y0315392D03*
X0093361Y0295735D03*
X0093361Y0290065D03*
X0093306Y0377065D03*
X0093306Y0382735D03*
X0133121Y0382420D03*
X0133121Y0377380D03*
X0173621Y0376723D03*
X0173621Y0382077D03*
X0213093Y0382105D03*
X0213093Y0377695D03*
D18*
X0173621Y0376880D03*
X0173621Y0381920D03*
X0133121Y0382262D03*
X0133121Y0377538D03*
X0133546Y0295262D03*
X0133546Y0290538D03*
X0173546Y0290380D03*
X0173546Y0295420D03*
D19*
X0173546Y0295262D03*
X0173546Y0290538D03*
X0133546Y0290695D03*
X0133546Y0295105D03*
X0113676Y0309565D03*
X0113676Y0315235D03*
X0093361Y0295577D03*
X0093361Y0290223D03*
X0093306Y0377223D03*
X0093306Y0382577D03*
X0133121Y0382105D03*
X0133121Y0377695D03*
X0173621Y0377038D03*
X0173621Y0381762D03*
D20*
X0166613Y0380187D03*
X0166613Y0380030D03*
X0179999Y0377353D03*
X0180629Y0379400D03*
X0218999Y0377853D03*
X0219629Y0379900D03*
X0139971Y0379270D03*
X0139341Y0377853D03*
X0126900Y0377853D03*
X0126270Y0379900D03*
X0100314Y0378325D03*
X0100156Y0378168D03*
X0086455Y0378168D03*
X0086298Y0378325D03*
X0120841Y0314290D03*
X0121314Y0311928D03*
X0121314Y0311770D03*
X0110290Y0310353D03*
X0100211Y0294632D03*
X0100369Y0294475D03*
X0086510Y0294632D03*
X0086353Y0294475D03*
X0126696Y0293530D03*
X0127325Y0294947D03*
X0139766Y0294947D03*
X0140396Y0292900D03*
X0166538Y0292900D03*
X0167168Y0294947D03*
X0180554Y0292270D03*
X0180554Y0292113D03*
X0207038Y0292900D03*
X0207668Y0294947D03*
D21*
X0217825Y0294947D03*
X0208841Y0377853D03*
X0133121Y0377853D03*
X0133546Y0294947D03*
D22*
X0140081Y0294790D03*
X0140554Y0293372D03*
X0140554Y0293215D03*
X0140554Y0292743D03*
X0140554Y0292585D03*
X0139924Y0290853D03*
X0127168Y0290853D03*
X0126538Y0292270D03*
X0126538Y0293687D03*
X0127010Y0294790D03*
X0121314Y0311455D03*
X0121471Y0312243D03*
X0121471Y0312400D03*
X0121156Y0313975D03*
X0120999Y0314132D03*
X0110290Y0310825D03*
X0110290Y0310668D03*
X0110290Y0310510D03*
X0105881Y0311613D03*
X0105881Y0311770D03*
X0105881Y0311928D03*
X0105881Y0312085D03*
X0105881Y0312243D03*
X0105881Y0312400D03*
X0105881Y0312557D03*
X0105881Y0312715D03*
X0105881Y0312872D03*
X0105881Y0313030D03*
X0105881Y0313187D03*
X0092310Y0302640D03*
X0100684Y0294002D03*
X0100841Y0293687D03*
X0100841Y0292113D03*
X0100684Y0291798D03*
X0100684Y0291640D03*
X0100526Y0291483D03*
X0086196Y0291483D03*
X0086038Y0291640D03*
X0086038Y0291798D03*
X0085881Y0292113D03*
X0085881Y0292270D03*
X0085881Y0293530D03*
X0085881Y0293687D03*
X0086038Y0294002D03*
X0086196Y0294317D03*
X0106255Y0330140D03*
X0094514Y0357640D03*
X0100471Y0378483D03*
X0100629Y0378798D03*
X0100786Y0379113D03*
X0100786Y0379270D03*
X0100786Y0380530D03*
X0100786Y0380687D03*
X0100629Y0381002D03*
X0100629Y0381160D03*
X0100471Y0381317D03*
X0086140Y0381317D03*
X0085983Y0381160D03*
X0085983Y0381002D03*
X0085825Y0380687D03*
X0085825Y0379113D03*
X0085983Y0378798D03*
X0126113Y0379428D03*
X0126113Y0379585D03*
X0126113Y0380057D03*
X0126113Y0380215D03*
X0126743Y0381947D03*
X0126585Y0378010D03*
X0139656Y0378010D03*
X0140129Y0379113D03*
X0140129Y0380530D03*
X0139499Y0381947D03*
X0166613Y0380502D03*
X0166613Y0380345D03*
X0180314Y0381290D03*
X0180786Y0378928D03*
X0180786Y0378770D03*
X0180786Y0378613D03*
X0219156Y0381947D03*
X0219314Y0381790D03*
X0219786Y0379585D03*
X0219786Y0379428D03*
X0219786Y0379270D03*
X0219786Y0379113D03*
X0219314Y0378010D03*
X0207353Y0294790D03*
X0206881Y0293687D03*
X0206881Y0293530D03*
X0206881Y0293372D03*
X0206881Y0293215D03*
X0207353Y0291010D03*
X0207510Y0290853D03*
X0180554Y0291798D03*
X0180554Y0291955D03*
X0166853Y0291010D03*
X0166381Y0293372D03*
X0166381Y0293530D03*
X0166381Y0293687D03*
D23*
X0169451Y0291955D03*
X0170869Y0294790D03*
X0174491Y0291010D03*
X0209951Y0291955D03*
X0211211Y0293215D03*
X0211526Y0293845D03*
X0211684Y0294160D03*
X0211841Y0294317D03*
X0213888Y0293845D03*
X0215306Y0294790D03*
X0211841Y0291325D03*
X0137483Y0291955D03*
X0137483Y0292113D03*
X0137325Y0293530D03*
X0137483Y0293687D03*
X0136066Y0294790D03*
X0133546Y0293372D03*
X0133546Y0293215D03*
X0131499Y0293215D03*
X0131026Y0294790D03*
X0129609Y0293687D03*
X0129451Y0293530D03*
X0129609Y0292113D03*
X0129609Y0291955D03*
X0118243Y0310825D03*
X0118243Y0310983D03*
X0118243Y0312557D03*
X0118243Y0312715D03*
X0118243Y0313187D03*
X0116196Y0312085D03*
X0116196Y0311928D03*
X0116196Y0311770D03*
X0114621Y0313817D03*
X0112416Y0313817D03*
X0110999Y0311928D03*
X0109109Y0312557D03*
X0099633Y0305475D03*
X0099475Y0305317D03*
X0099475Y0305160D03*
X0099475Y0305002D03*
X0099318Y0304845D03*
X0099318Y0304687D03*
X0099318Y0304530D03*
X0099160Y0304372D03*
X0099160Y0304215D03*
X0099160Y0304057D03*
X0097270Y0305475D03*
X0095381Y0304845D03*
X0095381Y0304687D03*
X0095381Y0304530D03*
X0095538Y0304372D03*
X0095538Y0304215D03*
X0095538Y0304057D03*
X0095223Y0305002D03*
X0095223Y0305160D03*
X0095223Y0305317D03*
X0095066Y0305475D03*
X0095066Y0305632D03*
X0093806Y0304372D03*
X0093806Y0304215D03*
X0093963Y0304057D03*
X0093963Y0303900D03*
X0093963Y0303743D03*
X0093806Y0303428D03*
X0093806Y0303270D03*
X0090971Y0303113D03*
X0090814Y0303428D03*
X0090814Y0303585D03*
X0090814Y0303743D03*
X0090814Y0303900D03*
X0090814Y0304057D03*
X0090814Y0304215D03*
X0090814Y0304372D03*
X0090971Y0304530D03*
X0087507Y0304530D03*
X0087507Y0304687D03*
X0087507Y0304845D03*
X0087507Y0305002D03*
X0087507Y0305160D03*
X0087507Y0305317D03*
X0087507Y0305475D03*
X0087507Y0305632D03*
X0087507Y0304372D03*
X0087507Y0304215D03*
X0087507Y0304057D03*
X0087507Y0303900D03*
X0087507Y0303743D03*
X0087507Y0303585D03*
X0087507Y0303428D03*
X0087507Y0303270D03*
X0087507Y0303113D03*
X0087507Y0302955D03*
X0087507Y0302798D03*
X0089581Y0293845D03*
X0088951Y0293215D03*
X0093203Y0291640D03*
X0093676Y0294002D03*
X0097298Y0293687D03*
X0097298Y0291955D03*
X0102081Y0329510D03*
X0102081Y0329668D03*
X0101451Y0330928D03*
X0101451Y0331085D03*
X0101294Y0331243D03*
X0101294Y0331400D03*
X0101136Y0331557D03*
X0101136Y0331715D03*
X0100979Y0331872D03*
X0100979Y0332030D03*
X0100822Y0332187D03*
X0100822Y0332345D03*
X0100664Y0332502D03*
X0100664Y0332660D03*
X0100507Y0332817D03*
X0100507Y0332975D03*
X0100507Y0333132D03*
X0103184Y0331872D03*
X0103184Y0331715D03*
X0103026Y0331557D03*
X0103026Y0331400D03*
X0102869Y0331243D03*
X0102869Y0331085D03*
X0102711Y0330928D03*
X0103341Y0332187D03*
X0103499Y0332502D03*
X0103656Y0332817D03*
X0103656Y0332975D03*
X0104759Y0331872D03*
X0104759Y0331715D03*
X0104759Y0331557D03*
X0104759Y0331400D03*
X0104759Y0331243D03*
X0104759Y0331085D03*
X0104759Y0330928D03*
X0104916Y0330613D03*
X0104916Y0332030D03*
X0107751Y0331872D03*
X0107751Y0331715D03*
X0107908Y0331557D03*
X0107908Y0331400D03*
X0107908Y0331243D03*
X0107751Y0330928D03*
X0107751Y0330770D03*
X0109168Y0330770D03*
X0109168Y0330613D03*
X0109168Y0330455D03*
X0109168Y0330298D03*
X0109168Y0330928D03*
X0109168Y0331085D03*
X0109168Y0331243D03*
X0109168Y0331400D03*
X0109168Y0331557D03*
X0109168Y0331715D03*
X0109168Y0331872D03*
X0109168Y0332030D03*
X0109168Y0332187D03*
X0109168Y0332345D03*
X0109168Y0332502D03*
X0109168Y0332660D03*
X0109168Y0332817D03*
X0109168Y0332975D03*
X0109168Y0333132D03*
X0112633Y0330928D03*
X0112633Y0330770D03*
X0112633Y0330613D03*
X0114995Y0330455D03*
X0115152Y0330613D03*
X0115152Y0330770D03*
X0115152Y0330928D03*
X0115152Y0331085D03*
X0115152Y0331243D03*
X0115152Y0331400D03*
X0115152Y0331557D03*
X0115152Y0331715D03*
X0115152Y0331872D03*
X0115152Y0332030D03*
X0115152Y0332187D03*
X0115152Y0332345D03*
X0115152Y0332502D03*
X0115152Y0332660D03*
X0115152Y0332817D03*
X0115152Y0332975D03*
X0116727Y0332975D03*
X0116727Y0333132D03*
X0120034Y0333132D03*
X0121609Y0332345D03*
X0121609Y0332187D03*
X0121609Y0332030D03*
X0121609Y0330770D03*
X0121609Y0330613D03*
X0121609Y0330455D03*
X0099633Y0357010D03*
X0099633Y0357168D03*
X0099633Y0357325D03*
X0099633Y0357483D03*
X0099633Y0357640D03*
X0099633Y0357798D03*
X0099633Y0357955D03*
X0099633Y0358113D03*
X0099633Y0358270D03*
X0099633Y0359372D03*
X0099633Y0359530D03*
X0099633Y0359687D03*
X0099633Y0359845D03*
X0099633Y0360002D03*
X0099633Y0360160D03*
X0099633Y0360317D03*
X0099633Y0360475D03*
X0099633Y0360632D03*
X0097113Y0360632D03*
X0097113Y0360475D03*
X0097113Y0360317D03*
X0097113Y0360160D03*
X0097113Y0360002D03*
X0097113Y0359845D03*
X0097113Y0359687D03*
X0097113Y0359530D03*
X0097113Y0359372D03*
X0097113Y0358270D03*
X0097113Y0358113D03*
X0097113Y0357955D03*
X0097113Y0357798D03*
X0097113Y0357640D03*
X0097113Y0357483D03*
X0097113Y0357325D03*
X0097113Y0357168D03*
X0097113Y0357010D03*
X0095696Y0357955D03*
X0095696Y0358113D03*
X0095696Y0358270D03*
X0093176Y0358270D03*
X0093018Y0358428D03*
X0093018Y0358585D03*
X0093018Y0358743D03*
X0093018Y0358900D03*
X0093018Y0359057D03*
X0093018Y0359215D03*
X0093018Y0359372D03*
X0093176Y0359530D03*
X0091601Y0359530D03*
X0091601Y0359687D03*
X0091601Y0359845D03*
X0091601Y0360002D03*
X0091601Y0360160D03*
X0091601Y0360317D03*
X0091601Y0360475D03*
X0091601Y0360632D03*
X0091601Y0359372D03*
X0091601Y0359215D03*
X0091601Y0359057D03*
X0091601Y0358900D03*
X0091601Y0358743D03*
X0091601Y0358585D03*
X0091601Y0358428D03*
X0091601Y0358270D03*
X0091601Y0358113D03*
X0091601Y0357955D03*
X0091601Y0357798D03*
X0091601Y0357640D03*
X0091601Y0357483D03*
X0091601Y0357325D03*
X0091601Y0357168D03*
X0091601Y0357010D03*
X0090184Y0357010D03*
X0090184Y0357168D03*
X0090184Y0357325D03*
X0090184Y0357483D03*
X0090184Y0357640D03*
X0090184Y0357798D03*
X0090184Y0357955D03*
X0090184Y0358113D03*
X0090184Y0358270D03*
X0090184Y0359372D03*
X0090184Y0359530D03*
X0090184Y0359687D03*
X0090184Y0359845D03*
X0090184Y0360002D03*
X0090184Y0360160D03*
X0090184Y0360317D03*
X0090184Y0360475D03*
X0090184Y0360632D03*
X0087664Y0360632D03*
X0087664Y0360475D03*
X0087664Y0360317D03*
X0087664Y0360160D03*
X0087664Y0360002D03*
X0087664Y0359845D03*
X0087664Y0359687D03*
X0087664Y0359530D03*
X0087664Y0359372D03*
X0087664Y0358270D03*
X0087664Y0358113D03*
X0087664Y0357955D03*
X0087664Y0357798D03*
X0087664Y0357640D03*
X0087664Y0357483D03*
X0087664Y0357325D03*
X0087664Y0357168D03*
X0087664Y0357010D03*
X0094593Y0360947D03*
X0104396Y0369038D03*
X0104554Y0369195D03*
X0104554Y0369353D03*
X0104554Y0370613D03*
X0104554Y0370770D03*
X0104554Y0370928D03*
X0105814Y0370770D03*
X0105971Y0370455D03*
X0105971Y0371085D03*
X0107861Y0370928D03*
X0107861Y0370770D03*
X0107861Y0370613D03*
X0109751Y0370613D03*
X0109751Y0370770D03*
X0109751Y0370928D03*
X0109751Y0371085D03*
X0109751Y0370455D03*
X0109751Y0370298D03*
X0109751Y0372345D03*
X0109751Y0372502D03*
X0109751Y0372660D03*
X0109751Y0372817D03*
X0109751Y0372975D03*
X0111798Y0371085D03*
X0111798Y0370928D03*
X0111798Y0370770D03*
X0111798Y0370613D03*
X0111798Y0370455D03*
X0113845Y0370455D03*
X0113845Y0370613D03*
X0113845Y0370770D03*
X0113845Y0370928D03*
X0113845Y0371085D03*
X0115262Y0371085D03*
X0115262Y0370928D03*
X0115262Y0370770D03*
X0115262Y0370613D03*
X0115262Y0370455D03*
X0115262Y0370298D03*
X0115262Y0370140D03*
X0115262Y0369983D03*
X0115262Y0369825D03*
X0115262Y0369668D03*
X0115262Y0369510D03*
X0117782Y0369510D03*
X0117782Y0369668D03*
X0117782Y0369825D03*
X0117782Y0369983D03*
X0117782Y0371400D03*
X0117782Y0371557D03*
X0117782Y0371715D03*
X0117782Y0371872D03*
X0121877Y0370928D03*
X0121877Y0370770D03*
X0121877Y0370613D03*
X0123924Y0370613D03*
X0123924Y0370455D03*
X0123924Y0371085D03*
X0125499Y0370455D03*
X0127388Y0370455D03*
X0127388Y0370613D03*
X0127388Y0370770D03*
X0127388Y0370928D03*
X0127388Y0371085D03*
X0127388Y0371243D03*
X0127388Y0371400D03*
X0127388Y0371557D03*
X0127388Y0371715D03*
X0127388Y0371872D03*
X0127388Y0372030D03*
X0128806Y0370928D03*
X0128806Y0370770D03*
X0128806Y0370613D03*
X0128806Y0370455D03*
X0128806Y0370298D03*
X0128806Y0370140D03*
X0128806Y0369983D03*
X0128806Y0369825D03*
X0128806Y0369668D03*
X0128806Y0369510D03*
X0130853Y0369668D03*
X0130853Y0369825D03*
X0130853Y0369983D03*
X0130853Y0370140D03*
X0130853Y0370298D03*
X0130853Y0370455D03*
X0130853Y0370613D03*
X0130853Y0370770D03*
X0130853Y0370928D03*
X0130696Y0371085D03*
X0132270Y0371085D03*
X0132270Y0370928D03*
X0132270Y0370613D03*
X0132270Y0370455D03*
X0134160Y0370455D03*
X0134160Y0370613D03*
X0134160Y0370770D03*
X0134160Y0370928D03*
X0134160Y0371085D03*
X0134160Y0372187D03*
X0134160Y0372345D03*
X0134160Y0372502D03*
X0134160Y0372660D03*
X0134160Y0372817D03*
X0134160Y0372975D03*
X0134160Y0373132D03*
X0134160Y0373290D03*
X0135640Y0378010D03*
X0135168Y0379585D03*
X0137058Y0379113D03*
X0137215Y0379270D03*
X0137058Y0380687D03*
X0137058Y0380845D03*
X0133121Y0379585D03*
X0133121Y0379428D03*
X0130601Y0378010D03*
X0129341Y0379270D03*
X0129184Y0379113D03*
X0129184Y0380687D03*
X0129184Y0380845D03*
X0102664Y0371085D03*
X0102664Y0370455D03*
X0097085Y0378955D03*
X0097715Y0379585D03*
X0093463Y0381160D03*
X0092991Y0378798D03*
X0089369Y0379113D03*
X0089369Y0380845D03*
X0172676Y0381290D03*
X0177715Y0380345D03*
X0176298Y0377510D03*
X0211361Y0378010D03*
X0212778Y0378955D03*
X0214825Y0378483D03*
X0214983Y0378640D03*
X0215140Y0378955D03*
X0215455Y0379585D03*
X0216715Y0380845D03*
X0214825Y0381475D03*
D24*
X0215928Y0379113D03*
X0214668Y0378010D03*
X0176928Y0378613D03*
X0170156Y0381447D03*
X0133530Y0372030D03*
X0133530Y0369510D03*
X0133121Y0378010D03*
X0133121Y0378168D03*
X0130759Y0380215D03*
X0122979Y0371872D03*
X0119829Y0369668D03*
X0115892Y0371557D03*
X0115892Y0371715D03*
X0115892Y0371872D03*
X0115892Y0372030D03*
X0109908Y0372030D03*
X0109908Y0371872D03*
X0109908Y0371715D03*
X0109908Y0371557D03*
X0109908Y0371400D03*
X0107231Y0372030D03*
X0107231Y0369510D03*
X0103924Y0369510D03*
X0094593Y0360632D03*
X0106333Y0333132D03*
X0113892Y0329668D03*
X0122239Y0331872D03*
X0092388Y0305632D03*
X0133546Y0294790D03*
X0133546Y0294632D03*
X0135908Y0292585D03*
X0170239Y0293687D03*
X0177010Y0290853D03*
X0210739Y0293687D03*
X0211999Y0294790D03*
D25*
X0211999Y0294947D03*
X0207274Y0294632D03*
X0207117Y0294475D03*
X0207117Y0294317D03*
X0206959Y0294160D03*
X0206959Y0294002D03*
X0206959Y0293845D03*
X0206959Y0291955D03*
X0206959Y0291798D03*
X0180633Y0291640D03*
X0166617Y0291325D03*
X0166459Y0291640D03*
X0166459Y0291798D03*
X0166459Y0291955D03*
X0166459Y0293845D03*
X0166459Y0294002D03*
X0166459Y0294160D03*
X0166617Y0294317D03*
X0166617Y0294475D03*
X0166774Y0294632D03*
X0140633Y0293687D03*
X0140633Y0293530D03*
X0140475Y0294160D03*
X0140318Y0294475D03*
X0140160Y0294632D03*
X0140633Y0292428D03*
X0140633Y0292270D03*
X0140633Y0292113D03*
X0140160Y0291010D03*
X0126932Y0291010D03*
X0126459Y0292113D03*
X0126617Y0293845D03*
X0126617Y0294002D03*
X0126617Y0294160D03*
X0126774Y0294475D03*
X0126932Y0294632D03*
X0121392Y0311140D03*
X0121392Y0311298D03*
X0121550Y0312557D03*
X0121550Y0312715D03*
X0121550Y0312872D03*
X0121550Y0313030D03*
X0121550Y0313187D03*
X0121392Y0313345D03*
X0121392Y0313502D03*
X0121392Y0313660D03*
X0121235Y0313817D03*
X0110211Y0311140D03*
X0110211Y0310983D03*
X0105959Y0311140D03*
X0105959Y0311298D03*
X0105959Y0311455D03*
X0105959Y0313345D03*
X0105959Y0313502D03*
X0105959Y0313660D03*
X0092388Y0305160D03*
X0092388Y0302483D03*
X0100762Y0293845D03*
X0100920Y0293530D03*
X0100920Y0293372D03*
X0100920Y0293215D03*
X0100920Y0293057D03*
X0100920Y0292900D03*
X0100920Y0292743D03*
X0100920Y0292585D03*
X0100920Y0292428D03*
X0100920Y0292270D03*
X0100762Y0291955D03*
X0085959Y0291955D03*
X0085802Y0292428D03*
X0085802Y0292585D03*
X0085802Y0292743D03*
X0085802Y0292900D03*
X0085802Y0293057D03*
X0085802Y0293215D03*
X0085802Y0293372D03*
X0085959Y0293845D03*
X0106333Y0329983D03*
X0106333Y0332660D03*
X0122711Y0332660D03*
X0122711Y0332817D03*
X0122711Y0332975D03*
X0122711Y0333132D03*
X0122711Y0330140D03*
X0122711Y0329983D03*
X0122711Y0329825D03*
X0122711Y0329668D03*
X0122711Y0329510D03*
X0094593Y0357483D03*
X0100707Y0378955D03*
X0100865Y0379428D03*
X0100865Y0379585D03*
X0100865Y0379743D03*
X0100865Y0379900D03*
X0100865Y0380057D03*
X0100865Y0380215D03*
X0100865Y0380372D03*
X0100707Y0380845D03*
X0085904Y0380845D03*
X0085747Y0380530D03*
X0085747Y0380372D03*
X0085747Y0380215D03*
X0085747Y0380057D03*
X0085747Y0379900D03*
X0085747Y0379743D03*
X0085747Y0379585D03*
X0085747Y0379428D03*
X0085747Y0379270D03*
X0085904Y0378955D03*
X0126034Y0379113D03*
X0126034Y0379270D03*
X0126192Y0378640D03*
X0126349Y0378325D03*
X0126507Y0378168D03*
X0126034Y0380372D03*
X0126034Y0380530D03*
X0126034Y0380687D03*
X0126507Y0381790D03*
X0139735Y0381790D03*
X0140207Y0380687D03*
X0140050Y0378955D03*
X0140050Y0378798D03*
X0140050Y0378640D03*
X0139892Y0378325D03*
X0139735Y0378168D03*
X0166534Y0380660D03*
X0180550Y0380975D03*
X0180707Y0380660D03*
X0180707Y0380502D03*
X0180707Y0380345D03*
X0180707Y0378455D03*
X0180707Y0378298D03*
X0180707Y0378140D03*
X0180550Y0377983D03*
X0180550Y0377825D03*
X0180392Y0377668D03*
X0214668Y0377853D03*
X0219392Y0378168D03*
X0219550Y0378325D03*
X0219550Y0378483D03*
X0219707Y0378640D03*
X0219707Y0378798D03*
X0219707Y0378955D03*
X0219707Y0380845D03*
X0219707Y0381002D03*
D26*
X0215298Y0379743D03*
X0214825Y0381160D03*
X0214825Y0381317D03*
X0212778Y0381002D03*
X0211361Y0379113D03*
X0176140Y0379243D03*
X0176140Y0378298D03*
X0176140Y0377668D03*
X0176140Y0381132D03*
X0171731Y0379400D03*
X0171731Y0379243D03*
X0137058Y0378955D03*
X0135640Y0378168D03*
X0135168Y0379270D03*
X0133121Y0379743D03*
X0133121Y0379900D03*
X0130916Y0379113D03*
X0130916Y0378955D03*
X0130601Y0378168D03*
X0129184Y0378955D03*
X0129184Y0381002D03*
X0137058Y0381002D03*
X0134160Y0373605D03*
X0133058Y0372187D03*
X0133058Y0369353D03*
X0134160Y0369353D03*
X0130853Y0369353D03*
X0128806Y0369353D03*
X0127388Y0369353D03*
X0126129Y0369353D03*
X0125341Y0372187D03*
X0127388Y0372187D03*
X0128806Y0372187D03*
X0130066Y0372187D03*
X0117782Y0369353D03*
X0115262Y0369353D03*
X0115262Y0372187D03*
X0107861Y0372187D03*
X0106759Y0372187D03*
X0104554Y0372187D03*
X0106759Y0369353D03*
X0107861Y0369353D03*
X0099633Y0356853D03*
X0097113Y0356853D03*
X0091601Y0356853D03*
X0090184Y0356853D03*
X0087664Y0356853D03*
X0087664Y0360790D03*
X0095510Y0378168D03*
X0095510Y0378955D03*
X0093621Y0380687D03*
X0093621Y0380845D03*
X0092833Y0379270D03*
X0091259Y0381947D03*
X0097085Y0381002D03*
X0100507Y0333290D03*
X0103656Y0333290D03*
X0116570Y0329353D03*
X0116353Y0313030D03*
X0116353Y0312872D03*
X0116353Y0312715D03*
X0112416Y0313345D03*
X0110999Y0312243D03*
X0110526Y0314132D03*
X0129609Y0293845D03*
X0131026Y0294632D03*
X0131499Y0293530D03*
X0133546Y0293057D03*
X0133546Y0292900D03*
X0135751Y0293687D03*
X0135751Y0293845D03*
X0136066Y0294632D03*
X0137483Y0293845D03*
X0137483Y0291798D03*
X0129609Y0291798D03*
X0095408Y0290853D03*
X0093046Y0291955D03*
X0093046Y0292113D03*
X0093833Y0293530D03*
X0091156Y0293845D03*
X0091156Y0294632D03*
X0089581Y0291798D03*
X0171026Y0291168D03*
X0171026Y0293057D03*
X0171026Y0294002D03*
X0171026Y0294632D03*
X0175436Y0293057D03*
X0175436Y0292900D03*
X0211369Y0293057D03*
X0211841Y0291640D03*
X0211841Y0291483D03*
X0213888Y0291798D03*
X0215306Y0293687D03*
D27*
X0215385Y0293845D03*
X0215385Y0294632D03*
X0215385Y0291955D03*
X0211762Y0291955D03*
X0211762Y0291798D03*
X0210030Y0294002D03*
X0177089Y0292585D03*
X0175357Y0292585D03*
X0175357Y0292743D03*
X0175199Y0292270D03*
X0174885Y0291640D03*
X0174727Y0291483D03*
X0174727Y0291325D03*
X0172837Y0291798D03*
X0171105Y0291325D03*
X0171105Y0292900D03*
X0171105Y0294160D03*
X0171105Y0294317D03*
X0171105Y0294475D03*
X0169530Y0294002D03*
X0135987Y0294475D03*
X0135829Y0294160D03*
X0135829Y0294002D03*
X0131420Y0293845D03*
X0131420Y0293687D03*
X0131262Y0294160D03*
X0131105Y0294475D03*
X0116432Y0313187D03*
X0116432Y0313345D03*
X0116432Y0313502D03*
X0116432Y0314290D03*
X0114699Y0313187D03*
X0114699Y0313030D03*
X0114699Y0312872D03*
X0113597Y0311770D03*
X0113597Y0311613D03*
X0113597Y0311455D03*
X0112495Y0313030D03*
X0112495Y0313187D03*
X0111077Y0312557D03*
X0111077Y0312400D03*
X0110605Y0313975D03*
X0097349Y0305790D03*
X0096247Y0301853D03*
X0098451Y0301853D03*
X0095487Y0294790D03*
X0093912Y0293372D03*
X0092967Y0292270D03*
X0091235Y0293215D03*
X0091235Y0294002D03*
X0091235Y0294160D03*
X0091235Y0294317D03*
X0091235Y0294475D03*
X0091235Y0291168D03*
X0095487Y0291010D03*
X0097062Y0291798D03*
X0102160Y0329353D03*
X0118381Y0330455D03*
X0120113Y0329353D03*
X0095459Y0359845D03*
X0095432Y0378325D03*
X0095432Y0378483D03*
X0095432Y0378640D03*
X0095432Y0378798D03*
X0095432Y0379585D03*
X0093699Y0380530D03*
X0092755Y0379428D03*
X0091180Y0378010D03*
X0089605Y0381002D03*
X0091180Y0381790D03*
X0095432Y0381632D03*
X0117861Y0370298D03*
X0119121Y0370140D03*
X0130680Y0378325D03*
X0130837Y0378640D03*
X0130837Y0378798D03*
X0135247Y0378955D03*
X0135247Y0379113D03*
X0135404Y0378640D03*
X0135562Y0378325D03*
X0170077Y0379715D03*
X0171810Y0379715D03*
X0171810Y0379557D03*
X0171967Y0380030D03*
X0172282Y0380660D03*
X0172440Y0380817D03*
X0172440Y0380975D03*
X0174329Y0380502D03*
X0176062Y0380975D03*
X0176062Y0379400D03*
X0176062Y0378140D03*
X0176062Y0377983D03*
X0176062Y0377825D03*
X0177636Y0378298D03*
X0211282Y0378168D03*
X0211282Y0378955D03*
X0211282Y0380845D03*
X0214904Y0380845D03*
X0214904Y0381002D03*
X0216636Y0378798D03*
D28*
X0171731Y0377983D03*
X0170156Y0381132D03*
X0134696Y0381475D03*
X0131546Y0381475D03*
X0130601Y0379743D03*
X0130601Y0379585D03*
X0133121Y0378483D03*
X0133121Y0378325D03*
X0119987Y0372030D03*
X0119829Y0370928D03*
X0119987Y0370770D03*
X0119987Y0370613D03*
X0119829Y0369510D03*
X0109908Y0372187D03*
X0094593Y0360790D03*
X0102081Y0330613D03*
X0113892Y0329510D03*
X0117199Y0331872D03*
X0119562Y0331872D03*
X0097270Y0304057D03*
X0096168Y0303585D03*
X0131971Y0291325D03*
X0135121Y0291325D03*
X0136066Y0293057D03*
X0136066Y0293215D03*
X0133546Y0294317D03*
X0133546Y0294475D03*
X0175436Y0294317D03*
X0177010Y0291168D03*
D29*
X0180554Y0291483D03*
X0175199Y0294790D03*
X0166696Y0291168D03*
X0166538Y0291483D03*
X0140554Y0291640D03*
X0140554Y0291798D03*
X0140554Y0291955D03*
X0140396Y0291325D03*
X0140239Y0291168D03*
X0140554Y0293845D03*
X0140554Y0294002D03*
X0140396Y0294317D03*
X0126696Y0294317D03*
X0126538Y0291955D03*
X0126538Y0291798D03*
X0126538Y0291640D03*
X0126696Y0291325D03*
X0126853Y0291168D03*
X0110133Y0311298D03*
X0106038Y0310983D03*
X0106038Y0310825D03*
X0106038Y0313817D03*
X0106038Y0313975D03*
X0113814Y0330140D03*
X0122633Y0332502D03*
X0122790Y0333290D03*
X0094514Y0360160D03*
X0094357Y0360002D03*
X0126270Y0378483D03*
X0126113Y0378798D03*
X0126113Y0378955D03*
X0126113Y0380845D03*
X0126113Y0381002D03*
X0126113Y0381160D03*
X0126270Y0381475D03*
X0126428Y0381632D03*
X0139814Y0381632D03*
X0139971Y0381475D03*
X0140129Y0381160D03*
X0140129Y0381002D03*
X0140129Y0380845D03*
X0139971Y0378483D03*
X0166613Y0380817D03*
X0171967Y0377510D03*
X0180471Y0381132D03*
X0180629Y0380817D03*
X0219471Y0381632D03*
X0219629Y0381475D03*
X0219629Y0381317D03*
X0219786Y0381160D03*
X0206881Y0291640D03*
X0207038Y0291483D03*
X0207038Y0291325D03*
X0207196Y0291168D03*
D30*
X0211684Y0292113D03*
X0211684Y0292270D03*
X0211684Y0292428D03*
X0211526Y0292743D03*
X0211526Y0292900D03*
X0215463Y0291798D03*
X0215463Y0291640D03*
X0215463Y0291168D03*
X0215463Y0294002D03*
X0215463Y0294475D03*
X0177010Y0292743D03*
X0175278Y0292428D03*
X0175121Y0292113D03*
X0175121Y0291955D03*
X0174963Y0291798D03*
X0171184Y0291798D03*
X0171184Y0291955D03*
X0171184Y0291640D03*
X0171184Y0291483D03*
X0171184Y0292270D03*
X0171184Y0292428D03*
X0171184Y0292585D03*
X0171184Y0292743D03*
X0135908Y0294317D03*
X0133546Y0292743D03*
X0133546Y0292585D03*
X0131341Y0294002D03*
X0131184Y0294317D03*
X0116510Y0313660D03*
X0116510Y0313817D03*
X0116510Y0313975D03*
X0116510Y0314132D03*
X0112416Y0312872D03*
X0110999Y0312872D03*
X0110999Y0312715D03*
X0110999Y0313030D03*
X0110841Y0313502D03*
X0110684Y0313817D03*
X0099475Y0305947D03*
X0092388Y0301695D03*
X0095408Y0294632D03*
X0095408Y0294475D03*
X0095408Y0294317D03*
X0095408Y0294160D03*
X0095408Y0294002D03*
X0095408Y0293845D03*
X0095408Y0293687D03*
X0095408Y0293530D03*
X0095408Y0293372D03*
X0095408Y0293215D03*
X0095408Y0293057D03*
X0095408Y0292900D03*
X0095408Y0292743D03*
X0095408Y0292585D03*
X0095408Y0292428D03*
X0095408Y0292270D03*
X0095408Y0292113D03*
X0095408Y0291955D03*
X0095408Y0291798D03*
X0095408Y0291640D03*
X0095408Y0291483D03*
X0095408Y0291325D03*
X0095408Y0291168D03*
X0093991Y0293057D03*
X0093991Y0293215D03*
X0092888Y0292428D03*
X0091314Y0292428D03*
X0091314Y0292585D03*
X0091314Y0292743D03*
X0091314Y0292900D03*
X0091314Y0293057D03*
X0091314Y0292270D03*
X0091314Y0292113D03*
X0091314Y0291955D03*
X0091314Y0291798D03*
X0091314Y0291640D03*
X0091314Y0291483D03*
X0091314Y0291325D03*
X0106333Y0329195D03*
X0113892Y0329195D03*
X0102822Y0369038D03*
X0095353Y0379743D03*
X0095353Y0379900D03*
X0095353Y0380057D03*
X0095353Y0380215D03*
X0095353Y0380372D03*
X0095353Y0380530D03*
X0095353Y0380687D03*
X0095353Y0380845D03*
X0095353Y0381002D03*
X0095353Y0381160D03*
X0095353Y0381317D03*
X0095353Y0381475D03*
X0093778Y0380372D03*
X0092676Y0379743D03*
X0092676Y0379585D03*
X0091259Y0379585D03*
X0091259Y0379428D03*
X0091259Y0379270D03*
X0091259Y0379113D03*
X0091259Y0378955D03*
X0091259Y0378798D03*
X0091259Y0378640D03*
X0091259Y0378483D03*
X0091259Y0378325D03*
X0091259Y0378168D03*
X0091259Y0379743D03*
X0091259Y0379900D03*
X0091259Y0380057D03*
X0091259Y0380215D03*
X0091259Y0380372D03*
X0091259Y0380530D03*
X0091259Y0380687D03*
X0091259Y0380845D03*
X0091259Y0381002D03*
X0091259Y0381160D03*
X0091259Y0381317D03*
X0091259Y0381475D03*
X0091259Y0381632D03*
X0117782Y0371085D03*
X0130759Y0378483D03*
X0133121Y0380057D03*
X0133121Y0380215D03*
X0135325Y0378798D03*
X0135483Y0378483D03*
X0170156Y0379557D03*
X0171888Y0379872D03*
X0172046Y0380187D03*
X0172046Y0380345D03*
X0172203Y0380502D03*
X0175983Y0380502D03*
X0175983Y0380345D03*
X0175983Y0380660D03*
X0175983Y0380817D03*
X0175983Y0380030D03*
X0175983Y0379872D03*
X0175983Y0379715D03*
X0175983Y0379557D03*
X0211203Y0378798D03*
X0211203Y0378325D03*
X0211203Y0381002D03*
X0211203Y0381160D03*
X0211203Y0381632D03*
X0214983Y0380687D03*
X0214983Y0380530D03*
X0214983Y0380372D03*
X0215140Y0380057D03*
X0215140Y0379900D03*
D31*
X0215692Y0379428D03*
X0214747Y0381790D03*
X0176692Y0378928D03*
X0170077Y0380975D03*
X0133042Y0378640D03*
X0130522Y0379428D03*
X0122900Y0372030D03*
X0122900Y0369510D03*
X0120223Y0370455D03*
X0112822Y0369510D03*
X0112822Y0372030D03*
X0103530Y0368250D03*
X0095302Y0359057D03*
X0095302Y0358900D03*
X0095302Y0358743D03*
X0095302Y0358585D03*
X0093227Y0378010D03*
X0093227Y0381947D03*
X0102160Y0330455D03*
X0117121Y0332030D03*
X0118381Y0331243D03*
X0119640Y0332030D03*
X0115959Y0310353D03*
X0098451Y0303585D03*
X0098451Y0303428D03*
X0098451Y0303270D03*
X0097349Y0304215D03*
X0097349Y0304372D03*
X0096247Y0303428D03*
X0096247Y0303270D03*
X0093440Y0294790D03*
X0093440Y0290853D03*
X0133625Y0294160D03*
X0136144Y0293372D03*
X0170475Y0293372D03*
X0177089Y0291325D03*
X0210975Y0293372D03*
X0211920Y0291010D03*
D32*
X0211605Y0292585D03*
X0215542Y0291483D03*
X0215542Y0291325D03*
X0215542Y0294160D03*
X0215542Y0294317D03*
X0177089Y0293057D03*
X0177089Y0292900D03*
X0171262Y0292113D03*
X0137562Y0294002D03*
X0129688Y0294002D03*
X0114699Y0312400D03*
X0114699Y0312557D03*
X0114699Y0312715D03*
X0113597Y0312243D03*
X0113597Y0312085D03*
X0113597Y0311928D03*
X0112495Y0312557D03*
X0112495Y0312715D03*
X0110920Y0313187D03*
X0110920Y0313345D03*
X0110762Y0313660D03*
X0095302Y0305947D03*
X0094070Y0292900D03*
X0092810Y0292743D03*
X0092810Y0292585D03*
X0100585Y0333447D03*
X0103577Y0333447D03*
X0112554Y0333447D03*
X0115231Y0333447D03*
X0120113Y0333447D03*
X0094672Y0356695D03*
X0103373Y0369353D03*
X0109672Y0373290D03*
X0110617Y0371243D03*
X0112822Y0372345D03*
X0116601Y0371243D03*
X0119908Y0372345D03*
X0120538Y0371400D03*
X0122900Y0372345D03*
X0129105Y0378798D03*
X0136979Y0378798D03*
X0170077Y0379243D03*
X0170077Y0379400D03*
X0175904Y0380187D03*
X0211125Y0381317D03*
X0211125Y0381475D03*
X0211125Y0378640D03*
X0211125Y0378483D03*
X0215062Y0380215D03*
X0093857Y0380215D03*
X0093857Y0380057D03*
X0092597Y0379900D03*
D33*
X0093306Y0381790D03*
X0110066Y0369983D03*
X0119672Y0371085D03*
X0133121Y0378798D03*
X0134696Y0381160D03*
X0134696Y0381317D03*
X0131546Y0381317D03*
X0131546Y0381160D03*
X0170156Y0380817D03*
X0172833Y0381447D03*
X0173936Y0379557D03*
X0173936Y0379400D03*
X0173936Y0379243D03*
X0171731Y0378140D03*
X0214668Y0378168D03*
X0211999Y0294632D03*
X0177010Y0291483D03*
X0174333Y0290853D03*
X0173231Y0292743D03*
X0173231Y0292900D03*
X0173231Y0293057D03*
X0175436Y0294160D03*
X0135121Y0291640D03*
X0135121Y0291483D03*
X0133546Y0294002D03*
X0131971Y0291640D03*
X0131971Y0291483D03*
X0113518Y0310353D03*
X0110841Y0311613D03*
X0097270Y0304530D03*
X0092388Y0305790D03*
X0092388Y0301853D03*
X0093361Y0291010D03*
X0106333Y0329353D03*
X0106333Y0333290D03*
X0102081Y0330298D03*
X0117042Y0332187D03*
X0117042Y0332345D03*
X0119719Y0332345D03*
X0119719Y0332187D03*
D34*
X0119798Y0332502D03*
X0118381Y0331085D03*
X0118381Y0330928D03*
X0116963Y0332502D03*
X0107357Y0330298D03*
X0102160Y0330140D03*
X0112495Y0314290D03*
X0114699Y0314290D03*
X0115959Y0310825D03*
X0115959Y0310668D03*
X0115959Y0310510D03*
X0118322Y0310353D03*
X0098451Y0303113D03*
X0098451Y0302955D03*
X0098451Y0302798D03*
X0097349Y0304687D03*
X0097349Y0304845D03*
X0096247Y0303113D03*
X0096247Y0302955D03*
X0096247Y0302798D03*
X0093412Y0302798D03*
X0093440Y0294632D03*
X0097534Y0293215D03*
X0097534Y0293057D03*
X0097534Y0292900D03*
X0097534Y0292743D03*
X0097534Y0292585D03*
X0089345Y0292428D03*
X0089345Y0292270D03*
X0131420Y0292900D03*
X0131892Y0291955D03*
X0131892Y0291798D03*
X0133625Y0293845D03*
X0135357Y0292270D03*
X0135199Y0291955D03*
X0135199Y0291798D03*
X0173152Y0292270D03*
X0173152Y0292428D03*
X0173152Y0292585D03*
X0173152Y0293215D03*
X0173152Y0293372D03*
X0175514Y0293845D03*
X0175514Y0294002D03*
X0177089Y0291640D03*
X0211920Y0291168D03*
X0213967Y0293687D03*
X0212699Y0379113D03*
X0214747Y0381632D03*
X0174014Y0380030D03*
X0174014Y0379872D03*
X0174014Y0379715D03*
X0174014Y0379085D03*
X0174014Y0378928D03*
X0171652Y0378455D03*
X0171652Y0378298D03*
X0170077Y0380660D03*
X0135247Y0379900D03*
X0134774Y0380845D03*
X0134774Y0381002D03*
X0133042Y0378955D03*
X0131310Y0380530D03*
X0131467Y0380845D03*
X0131467Y0381002D03*
X0119908Y0372187D03*
X0119908Y0369353D03*
X0110144Y0369668D03*
X0110144Y0369825D03*
X0109987Y0370140D03*
X0097322Y0380372D03*
X0097322Y0380530D03*
X0093227Y0378168D03*
X0089133Y0379585D03*
X0089133Y0379743D03*
X0089133Y0379900D03*
X0089133Y0380057D03*
X0089133Y0380215D03*
X0095302Y0359215D03*
X0095459Y0358428D03*
X0094672Y0356853D03*
X0093570Y0357798D03*
D35*
X0093333Y0357955D03*
X0093333Y0359845D03*
X0104396Y0371243D03*
X0110223Y0369510D03*
X0112900Y0372187D03*
X0120459Y0370298D03*
X0122979Y0369353D03*
X0122979Y0372187D03*
X0131388Y0380687D03*
X0133121Y0379113D03*
X0135010Y0380215D03*
X0134853Y0380530D03*
X0134853Y0380687D03*
X0097243Y0380687D03*
X0093306Y0381632D03*
X0093148Y0378483D03*
X0093148Y0378325D03*
X0089211Y0379428D03*
X0089211Y0380372D03*
X0089211Y0380530D03*
X0107436Y0332345D03*
X0105231Y0330298D03*
X0102081Y0329983D03*
X0102081Y0329825D03*
X0113892Y0329353D03*
X0114837Y0330298D03*
X0116885Y0332660D03*
X0119877Y0332660D03*
X0116038Y0311298D03*
X0116038Y0311140D03*
X0116038Y0310983D03*
X0113518Y0310510D03*
X0097270Y0305002D03*
X0093491Y0304845D03*
X0091286Y0302798D03*
X0093518Y0294475D03*
X0093518Y0294317D03*
X0093361Y0291168D03*
X0089424Y0292113D03*
X0097455Y0292270D03*
X0097455Y0292428D03*
X0097455Y0293372D03*
X0131656Y0292585D03*
X0131814Y0292270D03*
X0131814Y0292113D03*
X0133546Y0293687D03*
X0135278Y0292113D03*
X0170869Y0290853D03*
X0173073Y0292113D03*
X0173073Y0293530D03*
X0213888Y0291955D03*
X0174093Y0378770D03*
X0174093Y0380187D03*
X0176298Y0381447D03*
X0212778Y0380845D03*
D36*
X0211440Y0381947D03*
X0214747Y0378325D03*
X0216794Y0380687D03*
X0177794Y0380187D03*
X0176377Y0379085D03*
X0174172Y0378613D03*
X0174172Y0380345D03*
X0171652Y0378770D03*
X0171652Y0378613D03*
X0137136Y0380530D03*
X0135247Y0379743D03*
X0135089Y0380057D03*
X0134932Y0380372D03*
X0133042Y0379270D03*
X0130837Y0379270D03*
X0129262Y0380530D03*
X0128885Y0371085D03*
X0123845Y0371243D03*
X0123845Y0370298D03*
X0122113Y0370298D03*
X0121955Y0370455D03*
X0121955Y0371085D03*
X0122113Y0371243D03*
X0119278Y0371243D03*
X0115341Y0371243D03*
X0113766Y0371243D03*
X0113766Y0370298D03*
X0112822Y0369353D03*
X0112034Y0370298D03*
X0111877Y0371243D03*
X0109672Y0371243D03*
X0107782Y0371085D03*
X0107782Y0370455D03*
X0104475Y0370455D03*
X0104475Y0371085D03*
X0102743Y0371243D03*
X0095589Y0378010D03*
X0093070Y0378640D03*
X0093385Y0381317D03*
X0093385Y0381475D03*
X0095589Y0381947D03*
X0097164Y0380845D03*
X0089290Y0380687D03*
X0089290Y0379270D03*
X0093255Y0359687D03*
X0093255Y0358113D03*
X0095617Y0357798D03*
X0103577Y0332660D03*
X0103420Y0332345D03*
X0103262Y0332030D03*
X0104995Y0332187D03*
X0105152Y0332345D03*
X0104837Y0330770D03*
X0104995Y0330455D03*
X0107514Y0330455D03*
X0107672Y0330613D03*
X0107672Y0332030D03*
X0107672Y0332187D03*
X0112711Y0330455D03*
X0112869Y0330298D03*
X0116806Y0332817D03*
X0118381Y0330770D03*
X0119955Y0332817D03*
X0119955Y0332975D03*
X0114699Y0314132D03*
X0114699Y0313975D03*
X0112495Y0313975D03*
X0112495Y0314132D03*
X0110448Y0314290D03*
X0109188Y0313187D03*
X0109188Y0313030D03*
X0109188Y0312872D03*
X0109188Y0312715D03*
X0110920Y0311770D03*
X0113597Y0310825D03*
X0113597Y0310668D03*
X0116117Y0311455D03*
X0116117Y0311613D03*
X0118322Y0310668D03*
X0118322Y0310510D03*
X0118322Y0312872D03*
X0118322Y0313030D03*
X0097349Y0305317D03*
X0097349Y0305160D03*
X0096247Y0302640D03*
X0096247Y0302483D03*
X0096247Y0302325D03*
X0098451Y0302325D03*
X0098451Y0302483D03*
X0098451Y0302640D03*
X0093727Y0303113D03*
X0093570Y0302955D03*
X0093727Y0304530D03*
X0093727Y0304687D03*
X0091207Y0304845D03*
X0091050Y0304687D03*
X0090892Y0303270D03*
X0091050Y0302955D03*
X0091077Y0294790D03*
X0093597Y0294160D03*
X0093282Y0291483D03*
X0093282Y0291325D03*
X0091077Y0290853D03*
X0089503Y0291955D03*
X0097377Y0292113D03*
X0097377Y0293530D03*
X0129530Y0292270D03*
X0131420Y0293057D03*
X0131577Y0292743D03*
X0131735Y0292428D03*
X0133625Y0293530D03*
X0135829Y0293530D03*
X0137404Y0292270D03*
X0169373Y0292113D03*
X0170790Y0293215D03*
X0172995Y0293687D03*
X0172995Y0291955D03*
X0175514Y0293530D03*
X0175514Y0293687D03*
X0209873Y0292113D03*
X0211920Y0294475D03*
X0215227Y0290853D03*
D37*
X0180239Y0293372D03*
X0180239Y0293530D03*
X0180081Y0293845D03*
X0180081Y0294002D03*
X0179924Y0294317D03*
X0179766Y0294632D03*
X0166853Y0292585D03*
X0127010Y0292585D03*
X0127010Y0292743D03*
X0127010Y0292900D03*
X0127010Y0293057D03*
X0127010Y0293215D03*
X0127010Y0293372D03*
X0097349Y0303743D03*
X0097349Y0303900D03*
X0118381Y0331557D03*
X0118381Y0331715D03*
X0139656Y0379428D03*
X0139656Y0379585D03*
X0139656Y0379743D03*
X0139656Y0379900D03*
X0139656Y0380057D03*
X0139656Y0380215D03*
X0166928Y0378928D03*
X0166928Y0378770D03*
X0167085Y0378455D03*
X0167085Y0378298D03*
X0167243Y0377983D03*
X0167400Y0377668D03*
X0180314Y0379715D03*
D38*
X0177636Y0380502D03*
X0176219Y0381290D03*
X0176219Y0378455D03*
X0177636Y0378455D03*
X0174329Y0378455D03*
X0171652Y0378928D03*
X0171652Y0379085D03*
X0172597Y0381132D03*
X0135247Y0379428D03*
X0134239Y0373447D03*
X0132192Y0370770D03*
X0130774Y0369510D03*
X0125420Y0370613D03*
X0125420Y0370770D03*
X0125420Y0370928D03*
X0125420Y0371085D03*
X0125420Y0371243D03*
X0125420Y0371400D03*
X0125420Y0371557D03*
X0125420Y0371715D03*
X0125420Y0371872D03*
X0125420Y0372030D03*
X0124003Y0370928D03*
X0124003Y0370770D03*
X0120696Y0370140D03*
X0119121Y0371400D03*
X0117861Y0371243D03*
X0117861Y0372030D03*
X0116444Y0372187D03*
X0117861Y0370140D03*
X0110302Y0369353D03*
X0109672Y0373132D03*
X0105892Y0370928D03*
X0105892Y0370613D03*
X0103373Y0372187D03*
X0102585Y0370928D03*
X0102585Y0370770D03*
X0102585Y0370613D03*
X0097794Y0379743D03*
X0097794Y0379900D03*
X0097794Y0380057D03*
X0097794Y0380215D03*
X0095432Y0381790D03*
X0093542Y0381002D03*
X0092912Y0379113D03*
X0092912Y0378955D03*
X0089448Y0378955D03*
X0090105Y0360790D03*
X0091680Y0360790D03*
X0097192Y0360790D03*
X0099711Y0360790D03*
X0103735Y0333132D03*
X0106255Y0333447D03*
X0107829Y0331085D03*
X0109247Y0333290D03*
X0112554Y0333290D03*
X0112554Y0333132D03*
X0112554Y0332975D03*
X0112554Y0332817D03*
X0112554Y0332660D03*
X0112554Y0332502D03*
X0112554Y0332345D03*
X0112554Y0332187D03*
X0112554Y0332030D03*
X0112554Y0331872D03*
X0112554Y0331715D03*
X0112554Y0331557D03*
X0112554Y0331400D03*
X0112554Y0331243D03*
X0112554Y0331085D03*
X0115231Y0333132D03*
X0115231Y0333290D03*
X0116648Y0333290D03*
X0116648Y0331400D03*
X0116648Y0331243D03*
X0116648Y0331085D03*
X0116648Y0330928D03*
X0116648Y0330770D03*
X0116648Y0330613D03*
X0116648Y0330455D03*
X0116648Y0330298D03*
X0116648Y0330140D03*
X0116648Y0329983D03*
X0116648Y0329825D03*
X0116648Y0329668D03*
X0116648Y0329510D03*
X0118381Y0330613D03*
X0120113Y0330613D03*
X0120113Y0330770D03*
X0120113Y0330928D03*
X0120113Y0331085D03*
X0120113Y0331243D03*
X0120113Y0331400D03*
X0120113Y0330455D03*
X0120113Y0330298D03*
X0120113Y0330140D03*
X0120113Y0329983D03*
X0120113Y0329825D03*
X0120113Y0329668D03*
X0120113Y0329510D03*
X0120113Y0333290D03*
X0118164Y0313345D03*
X0116274Y0312557D03*
X0116274Y0312400D03*
X0116274Y0312243D03*
X0114699Y0313345D03*
X0114699Y0313502D03*
X0114699Y0313660D03*
X0112495Y0313660D03*
X0112495Y0313502D03*
X0111077Y0312085D03*
X0109030Y0313345D03*
X0113597Y0311298D03*
X0113597Y0311140D03*
X0113597Y0310983D03*
X0118164Y0311140D03*
X0118164Y0311298D03*
X0099554Y0305790D03*
X0099554Y0305632D03*
X0097349Y0305632D03*
X0095144Y0305790D03*
X0093885Y0303585D03*
X0096247Y0302168D03*
X0096247Y0302010D03*
X0098451Y0302010D03*
X0098451Y0302168D03*
X0092310Y0305947D03*
X0087585Y0305790D03*
X0093755Y0293845D03*
X0093755Y0293687D03*
X0093125Y0291798D03*
X0091235Y0291010D03*
X0088873Y0292585D03*
X0088873Y0292743D03*
X0088873Y0292900D03*
X0088873Y0293057D03*
X0097219Y0293845D03*
X0131420Y0293372D03*
X0169530Y0293845D03*
X0170948Y0293845D03*
X0172837Y0293845D03*
X0175514Y0293372D03*
X0175514Y0293215D03*
X0174570Y0291168D03*
X0170948Y0291010D03*
X0169530Y0291798D03*
X0210030Y0291798D03*
X0210030Y0293845D03*
X0211605Y0294002D03*
X0215385Y0291010D03*
X0215062Y0378798D03*
X0216636Y0378955D03*
X0216636Y0381002D03*
X0211282Y0381790D03*
D39*
X0219707Y0380687D03*
X0219707Y0379743D03*
X0180707Y0380187D03*
X0180707Y0379243D03*
X0180707Y0379085D03*
X0180235Y0377510D03*
X0180077Y0381447D03*
X0126192Y0379743D03*
X0100550Y0378640D03*
X0100392Y0381475D03*
X0100235Y0381632D03*
X0086377Y0381632D03*
X0086219Y0381475D03*
X0086062Y0378640D03*
X0086219Y0378483D03*
X0088924Y0359215D03*
X0088924Y0359057D03*
X0088924Y0358900D03*
X0088924Y0358743D03*
X0088924Y0358585D03*
X0088924Y0358428D03*
X0098373Y0358428D03*
X0098373Y0358585D03*
X0098373Y0358743D03*
X0098373Y0358900D03*
X0098373Y0359057D03*
X0098373Y0359215D03*
X0106333Y0332502D03*
X0121392Y0312085D03*
X0121392Y0311613D03*
X0140475Y0293057D03*
X0166459Y0293057D03*
X0166459Y0293215D03*
X0166459Y0292113D03*
X0167089Y0290853D03*
X0166932Y0294790D03*
X0206959Y0293057D03*
X0206959Y0292113D03*
X0100605Y0294160D03*
X0100448Y0294317D03*
X0100448Y0291325D03*
X0100290Y0291168D03*
X0086432Y0291168D03*
X0086274Y0291325D03*
X0086117Y0294160D03*
X0092388Y0305002D03*
D40*
X0092310Y0302010D03*
X0110605Y0311455D03*
X0106255Y0329510D03*
X0102160Y0330770D03*
X0118381Y0331400D03*
X0094672Y0357010D03*
X0103530Y0368408D03*
X0103845Y0372030D03*
X0112822Y0371872D03*
X0112822Y0369668D03*
X0115814Y0371400D03*
X0119751Y0371557D03*
X0119908Y0371715D03*
X0119908Y0371872D03*
X0122900Y0369668D03*
X0130680Y0379900D03*
X0130680Y0380057D03*
X0131467Y0381632D03*
X0134774Y0381632D03*
X0170077Y0381290D03*
X0171810Y0377825D03*
X0176849Y0378770D03*
X0215849Y0379270D03*
X0175357Y0294475D03*
X0177089Y0291010D03*
X0170318Y0293530D03*
X0135987Y0292900D03*
X0135987Y0292743D03*
X0135199Y0291168D03*
X0131892Y0291168D03*
X0210818Y0293530D03*
D41*
X0219322Y0293845D03*
X0219322Y0294002D03*
X0219322Y0294160D03*
X0219322Y0291955D03*
X0219322Y0291798D03*
X0219322Y0291640D03*
X0207345Y0378640D03*
X0207345Y0378798D03*
X0207345Y0378955D03*
X0207345Y0380845D03*
X0207345Y0381002D03*
X0207345Y0381160D03*
X0139341Y0380372D03*
X0127325Y0292428D03*
D42*
X0133546Y0292428D03*
X0133546Y0292270D03*
X0112416Y0312400D03*
X0109168Y0333447D03*
X0116570Y0333447D03*
X0099633Y0360947D03*
X0097113Y0360947D03*
X0095538Y0359687D03*
X0091601Y0360947D03*
X0090184Y0360947D03*
X0087664Y0360947D03*
X0092518Y0380057D03*
X0093936Y0379900D03*
X0112900Y0369195D03*
X0119042Y0370298D03*
X0119829Y0369195D03*
X0122979Y0369195D03*
X0133121Y0380372D03*
X0133121Y0380530D03*
X0087507Y0305947D03*
X0092731Y0292900D03*
X0094148Y0292743D03*
D43*
X0090054Y0293372D03*
X0090054Y0293530D03*
X0088451Y0302010D03*
X0088451Y0302168D03*
X0088451Y0302325D03*
X0088451Y0302483D03*
X0092388Y0302325D03*
X0092388Y0305317D03*
X0106117Y0310510D03*
X0106117Y0310668D03*
X0106274Y0310353D03*
X0106117Y0314132D03*
X0106117Y0314290D03*
X0121077Y0310353D03*
X0121392Y0310825D03*
X0121392Y0310983D03*
X0122711Y0329353D03*
X0122554Y0330298D03*
X0113892Y0329983D03*
X0110113Y0329983D03*
X0110113Y0329825D03*
X0110113Y0329668D03*
X0110113Y0329510D03*
X0106333Y0329825D03*
X0106333Y0332817D03*
X0094593Y0357325D03*
X0094593Y0360317D03*
X0103609Y0370298D03*
X0103609Y0371400D03*
X0106916Y0371400D03*
X0106916Y0371243D03*
X0106916Y0370298D03*
X0106916Y0370140D03*
X0096613Y0379270D03*
X0096613Y0379428D03*
X0122979Y0371400D03*
X0122979Y0370140D03*
X0126444Y0370140D03*
X0126444Y0370298D03*
X0129751Y0371243D03*
X0129751Y0371400D03*
X0133215Y0371243D03*
X0133215Y0370298D03*
X0130444Y0380372D03*
X0131388Y0381947D03*
X0134853Y0381947D03*
X0140050Y0381317D03*
X0126192Y0381317D03*
X0166534Y0380975D03*
X0166849Y0381447D03*
X0206479Y0381475D03*
X0206479Y0381317D03*
X0220188Y0291483D03*
X0220188Y0291325D03*
X0180633Y0291325D03*
X0180318Y0290853D03*
X0140475Y0291483D03*
X0136223Y0292428D03*
X0135278Y0290853D03*
X0131814Y0290853D03*
X0126617Y0291483D03*
D44*
X0131892Y0291010D03*
X0135199Y0291010D03*
X0122318Y0330928D03*
X0122790Y0333447D03*
X0126680Y0369510D03*
X0129514Y0372030D03*
X0133451Y0371872D03*
X0133451Y0369668D03*
X0122900Y0369825D03*
X0122900Y0371715D03*
X0119908Y0369983D03*
X0119908Y0369825D03*
X0112822Y0369825D03*
X0112822Y0371715D03*
X0107152Y0371872D03*
X0107152Y0369668D03*
X0103845Y0369668D03*
X0103688Y0368880D03*
X0103530Y0368565D03*
X0131467Y0381790D03*
X0134774Y0381790D03*
X0214747Y0381947D03*
X0211920Y0290853D03*
D45*
X0213573Y0290380D03*
X0213573Y0295420D03*
X0173546Y0295735D03*
X0173546Y0290065D03*
X0093361Y0289908D03*
X0093361Y0295892D03*
X0093306Y0376908D03*
X0093306Y0382892D03*
X0173621Y0382235D03*
X0173621Y0376565D03*
X0213093Y0377380D03*
X0213093Y0382420D03*
D46*
X0173621Y0381605D03*
X0173621Y0377195D03*
X0093306Y0377380D03*
X0093306Y0382420D03*
X0093361Y0295420D03*
X0093361Y0290380D03*
X0173546Y0290695D03*
X0173546Y0295105D03*
D47*
X0113676Y0309723D03*
X0113676Y0315077D03*
X0093361Y0295262D03*
X0093361Y0290538D03*
X0093306Y0377538D03*
X0093306Y0382262D03*
D48*
X0093306Y0382105D03*
X0093306Y0377695D03*
X0113676Y0314920D03*
X0113676Y0309880D03*
X0093361Y0295105D03*
X0093361Y0290695D03*
D49*
X0099818Y0290853D03*
X0086904Y0294947D03*
X0099762Y0377853D03*
X0086849Y0381947D03*
X0166849Y0379243D03*
X0166849Y0379085D03*
X0219392Y0380215D03*
X0207274Y0292585D03*
X0180318Y0293057D03*
X0180318Y0293215D03*
D50*
X0175829Y0294947D03*
X0095959Y0294947D03*
X0090707Y0377853D03*
X0171337Y0377353D03*
D51*
X0166770Y0379400D03*
X0166770Y0379557D03*
X0099999Y0378010D03*
X0099841Y0381947D03*
X0086613Y0378010D03*
X0113597Y0314447D03*
X0100054Y0294790D03*
X0086668Y0294790D03*
X0086825Y0290853D03*
X0180396Y0292743D03*
X0180396Y0292900D03*
D52*
X0180554Y0291168D03*
X0180554Y0291010D03*
X0214282Y0292270D03*
X0214282Y0292428D03*
X0214282Y0292585D03*
X0214282Y0292743D03*
X0214282Y0292900D03*
X0214282Y0293057D03*
X0214282Y0293215D03*
X0214282Y0293372D03*
X0219951Y0290853D03*
X0220109Y0291010D03*
X0220109Y0291168D03*
X0212385Y0379428D03*
X0212385Y0379585D03*
X0212385Y0379743D03*
X0212385Y0379900D03*
X0212385Y0380057D03*
X0212385Y0380215D03*
X0212385Y0380372D03*
X0212385Y0380530D03*
X0206715Y0381947D03*
X0206558Y0381790D03*
X0206558Y0381632D03*
X0166613Y0381290D03*
X0166613Y0381132D03*
X0133294Y0371557D03*
X0133294Y0371400D03*
X0133294Y0370140D03*
X0133294Y0369983D03*
X0129672Y0371557D03*
X0129672Y0371715D03*
X0126522Y0369983D03*
X0126522Y0369825D03*
X0112822Y0369983D03*
X0112822Y0370140D03*
X0112822Y0371400D03*
X0112822Y0371557D03*
X0106995Y0371557D03*
X0106995Y0369983D03*
X0103688Y0369983D03*
X0103688Y0370140D03*
X0103688Y0371557D03*
X0096534Y0379113D03*
X0094672Y0360475D03*
X0094672Y0357168D03*
X0110192Y0329353D03*
X0121314Y0310668D03*
X0121314Y0310510D03*
X0088530Y0301853D03*
X0090133Y0293687D03*
D53*
X0086589Y0291010D03*
X0100133Y0291010D03*
X0166617Y0292743D03*
X0180475Y0292585D03*
X0180475Y0292428D03*
X0207117Y0292743D03*
X0219550Y0380057D03*
X0180550Y0379557D03*
X0166692Y0379715D03*
X0166692Y0379872D03*
X0100077Y0381790D03*
X0086534Y0381790D03*
D54*
X0146247Y0372306D03*
D55*
X0213093Y0376750D03*
X0213093Y0383050D03*
X0213573Y0296050D03*
X0213573Y0289750D03*
D56*
X0213573Y0289908D03*
X0213573Y0295892D03*
X0173546Y0296050D03*
X0173546Y0289750D03*
X0173621Y0376250D03*
X0173621Y0382550D03*
X0213093Y0382892D03*
X0213093Y0376908D03*
D57*
X0207581Y0378010D03*
X0207581Y0378168D03*
X0207424Y0378325D03*
X0207424Y0378483D03*
X0219077Y0380372D03*
X0180077Y0379872D03*
X0219085Y0294790D03*
X0219085Y0294632D03*
X0219243Y0294475D03*
X0219243Y0294317D03*
X0207589Y0292428D03*
X0167089Y0292428D03*
D58*
X0207747Y0292270D03*
X0219400Y0292270D03*
X0219400Y0292113D03*
X0219400Y0292428D03*
X0219400Y0292585D03*
X0219400Y0292743D03*
X0219400Y0292900D03*
X0219400Y0293057D03*
X0219400Y0293215D03*
X0219400Y0293372D03*
X0219400Y0293530D03*
X0219400Y0293687D03*
X0207266Y0379113D03*
X0207266Y0379270D03*
X0207266Y0379428D03*
X0207266Y0379585D03*
X0207266Y0379743D03*
X0207266Y0379900D03*
X0207266Y0380057D03*
X0207266Y0380215D03*
X0207266Y0380372D03*
X0207266Y0380530D03*
X0207266Y0380687D03*
X0218920Y0380530D03*
D59*
X0212306Y0380687D03*
X0212306Y0379270D03*
X0171888Y0377668D03*
X0133373Y0371715D03*
X0133373Y0369825D03*
X0129593Y0371872D03*
X0126601Y0369668D03*
X0122979Y0369983D03*
X0122979Y0371557D03*
X0107073Y0371715D03*
X0107073Y0369825D03*
X0103766Y0369825D03*
X0103609Y0368723D03*
X0103766Y0371715D03*
X0103766Y0371872D03*
X0106333Y0332975D03*
X0106333Y0329668D03*
X0109955Y0330140D03*
X0113892Y0329825D03*
X0122396Y0331085D03*
X0122396Y0331243D03*
X0122396Y0331400D03*
X0122396Y0331557D03*
X0122396Y0331715D03*
X0092388Y0305475D03*
X0092388Y0302168D03*
X0088294Y0302640D03*
X0175278Y0294632D03*
X0214361Y0293530D03*
X0214361Y0292113D03*
D60*
X0173546Y0289908D03*
X0173546Y0295892D03*
X0173621Y0376408D03*
X0173621Y0382392D03*
D61*
X0167007Y0378613D03*
X0167164Y0378140D03*
X0167322Y0377825D03*
X0167479Y0377510D03*
X0179688Y0294790D03*
X0179845Y0294475D03*
X0180003Y0294160D03*
X0180160Y0293687D03*
D62*
X0167325Y0292270D03*
X0179841Y0380030D03*
D63*
X0113676Y0314762D03*
X0113676Y0310038D03*
D64*
X0113676Y0310195D03*
X0113676Y0314605D03*
D65*
X0108085Y0314447D03*
D66*
X0119188Y0314447D03*
D67*
X0143179Y0352298D02*
X0143416Y0352149D01*
X0143680Y0352056D01*
X0143958Y0352025D01*
X0144236Y0352056D01*
X0144501Y0352149D01*
X0144738Y0352298D01*
X0144936Y0352496D01*
X0145085Y0352733D01*
X0145177Y0352997D01*
X0145208Y0353275D01*
X0145177Y0353553D01*
X0142740Y0353553D01*
X0142708Y0353275D01*
X0142740Y0352997D01*
X0142832Y0352733D01*
X0142981Y0352496D01*
X0143179Y0352298D01*
X0143175Y0352302D02*
X0144742Y0352302D01*
X0144750Y0352310D02*
X0143167Y0352310D01*
X0143158Y0352319D02*
X0144759Y0352319D01*
X0144767Y0352327D02*
X0143150Y0352327D01*
X0143141Y0352336D02*
X0144776Y0352336D01*
X0144784Y0352344D02*
X0143132Y0352344D01*
X0143124Y0352353D02*
X0144793Y0352353D01*
X0144801Y0352361D02*
X0143115Y0352361D01*
X0143107Y0352370D02*
X0144810Y0352370D01*
X0144818Y0352378D02*
X0143098Y0352378D01*
X0143090Y0352387D02*
X0144827Y0352387D01*
X0144835Y0352395D02*
X0143081Y0352395D01*
X0143073Y0352404D02*
X0144844Y0352404D01*
X0144852Y0352412D02*
X0143064Y0352412D01*
X0143056Y0352421D02*
X0144861Y0352421D01*
X0144869Y0352429D02*
X0143047Y0352429D01*
X0143039Y0352438D02*
X0144878Y0352438D01*
X0144886Y0352446D02*
X0143030Y0352446D01*
X0143022Y0352455D02*
X0144895Y0352455D01*
X0144903Y0352463D02*
X0143013Y0352463D01*
X0143005Y0352472D02*
X0144912Y0352472D01*
X0144920Y0352480D02*
X0142996Y0352480D01*
X0142988Y0352489D02*
X0144929Y0352489D01*
X0144937Y0352497D02*
X0142980Y0352497D01*
X0142975Y0352506D02*
X0144942Y0352506D01*
X0144947Y0352514D02*
X0142969Y0352514D01*
X0142964Y0352523D02*
X0144953Y0352523D01*
X0144958Y0352531D02*
X0142959Y0352531D01*
X0142953Y0352540D02*
X0144963Y0352540D01*
X0144969Y0352549D02*
X0142948Y0352549D01*
X0142942Y0352557D02*
X0144974Y0352557D01*
X0144980Y0352566D02*
X0142937Y0352566D01*
X0142932Y0352574D02*
X0144985Y0352574D01*
X0144990Y0352583D02*
X0142926Y0352583D01*
X0142921Y0352591D02*
X0144996Y0352591D01*
X0145001Y0352600D02*
X0142916Y0352600D01*
X0142910Y0352608D02*
X0145006Y0352608D01*
X0145012Y0352617D02*
X0142905Y0352617D01*
X0142900Y0352625D02*
X0145017Y0352625D01*
X0145022Y0352634D02*
X0142894Y0352634D01*
X0142889Y0352642D02*
X0145028Y0352642D01*
X0145033Y0352651D02*
X0142884Y0352651D01*
X0142878Y0352659D02*
X0145038Y0352659D01*
X0145044Y0352668D02*
X0142873Y0352668D01*
X0142868Y0352676D02*
X0145049Y0352676D01*
X0145054Y0352685D02*
X0142862Y0352685D01*
X0142857Y0352693D02*
X0145060Y0352693D01*
X0145065Y0352702D02*
X0142852Y0352702D01*
X0142846Y0352710D02*
X0145070Y0352710D01*
X0145076Y0352719D02*
X0142841Y0352719D01*
X0142835Y0352727D02*
X0145081Y0352727D01*
X0145086Y0352736D02*
X0142831Y0352736D01*
X0142828Y0352744D02*
X0145089Y0352744D01*
X0145092Y0352753D02*
X0142825Y0352753D01*
X0142822Y0352761D02*
X0145095Y0352761D01*
X0145098Y0352770D02*
X0142819Y0352770D01*
X0142816Y0352778D02*
X0145101Y0352778D01*
X0145104Y0352787D02*
X0142813Y0352787D01*
X0142810Y0352795D02*
X0145106Y0352795D01*
X0145109Y0352804D02*
X0142807Y0352804D01*
X0142804Y0352812D02*
X0145112Y0352812D01*
X0145115Y0352821D02*
X0142801Y0352821D01*
X0142798Y0352829D02*
X0145118Y0352829D01*
X0145121Y0352838D02*
X0142795Y0352838D01*
X0142792Y0352847D02*
X0145124Y0352847D01*
X0145127Y0352855D02*
X0142789Y0352855D01*
X0142786Y0352864D02*
X0145130Y0352864D01*
X0145133Y0352872D02*
X0142783Y0352872D01*
X0142780Y0352881D02*
X0145136Y0352881D01*
X0145139Y0352889D02*
X0142777Y0352889D01*
X0142774Y0352898D02*
X0145142Y0352898D01*
X0145145Y0352906D02*
X0142771Y0352906D01*
X0142768Y0352915D02*
X0145148Y0352915D01*
X0145151Y0352923D02*
X0142765Y0352923D01*
X0142762Y0352932D02*
X0145154Y0352932D01*
X0145157Y0352940D02*
X0142759Y0352940D01*
X0142757Y0352949D02*
X0145160Y0352949D01*
X0145163Y0352957D02*
X0142754Y0352957D01*
X0142751Y0352966D02*
X0145166Y0352966D01*
X0145169Y0352974D02*
X0142748Y0352974D01*
X0142745Y0352983D02*
X0145172Y0352983D01*
X0145175Y0352991D02*
X0142742Y0352991D01*
X0142739Y0353000D02*
X0145177Y0353000D01*
X0145178Y0353008D02*
X0142738Y0353008D01*
X0142737Y0353017D02*
X0145179Y0353017D01*
X0145180Y0353025D02*
X0142736Y0353025D01*
X0142735Y0353034D02*
X0145181Y0353034D01*
X0145182Y0353042D02*
X0142735Y0353042D01*
X0142734Y0353051D02*
X0145183Y0353051D01*
X0145184Y0353059D02*
X0142733Y0353059D01*
X0142732Y0353068D02*
X0145185Y0353068D01*
X0145186Y0353076D02*
X0142731Y0353076D01*
X0142730Y0353085D02*
X0145187Y0353085D01*
X0145188Y0353093D02*
X0142729Y0353093D01*
X0142728Y0353102D02*
X0145189Y0353102D01*
X0145190Y0353110D02*
X0142727Y0353110D01*
X0142726Y0353119D02*
X0145191Y0353119D01*
X0145192Y0353127D02*
X0142725Y0353127D01*
X0142724Y0353136D02*
X0145193Y0353136D01*
X0145194Y0353144D02*
X0142723Y0353144D01*
X0142722Y0353153D02*
X0145195Y0353153D01*
X0145196Y0353162D02*
X0142721Y0353162D01*
X0142720Y0353170D02*
X0145196Y0353170D01*
X0145197Y0353179D02*
X0142719Y0353179D01*
X0142718Y0353187D02*
X0145198Y0353187D01*
X0145199Y0353196D02*
X0142717Y0353196D01*
X0142716Y0353204D02*
X0145200Y0353204D01*
X0145201Y0353213D02*
X0142715Y0353213D01*
X0142714Y0353221D02*
X0145202Y0353221D01*
X0145203Y0353230D02*
X0142713Y0353230D01*
X0142712Y0353238D02*
X0145204Y0353238D01*
X0145205Y0353247D02*
X0142712Y0353247D01*
X0142711Y0353255D02*
X0145206Y0353255D01*
X0145207Y0353264D02*
X0142710Y0353264D01*
X0142709Y0353272D02*
X0145208Y0353272D01*
X0145208Y0353281D02*
X0142709Y0353281D01*
X0142710Y0353289D02*
X0145207Y0353289D01*
X0145206Y0353298D02*
X0142711Y0353298D01*
X0142712Y0353306D02*
X0145205Y0353306D01*
X0145204Y0353315D02*
X0142713Y0353315D01*
X0142714Y0353323D02*
X0145203Y0353323D01*
X0145202Y0353332D02*
X0142715Y0353332D01*
X0142716Y0353340D02*
X0145201Y0353340D01*
X0145200Y0353349D02*
X0142717Y0353349D01*
X0142718Y0353357D02*
X0145199Y0353357D01*
X0145198Y0353366D02*
X0142719Y0353366D01*
X0142720Y0353374D02*
X0145197Y0353374D01*
X0145196Y0353383D02*
X0142720Y0353383D01*
X0142721Y0353391D02*
X0145195Y0353391D01*
X0145194Y0353400D02*
X0142722Y0353400D01*
X0142723Y0353408D02*
X0145193Y0353408D01*
X0145192Y0353417D02*
X0142724Y0353417D01*
X0142725Y0353425D02*
X0145191Y0353425D01*
X0145190Y0353434D02*
X0142726Y0353434D01*
X0142727Y0353442D02*
X0145189Y0353442D01*
X0145189Y0353451D02*
X0142728Y0353451D01*
X0142729Y0353459D02*
X0145188Y0353459D01*
X0145187Y0353468D02*
X0142730Y0353468D01*
X0142731Y0353477D02*
X0145186Y0353477D01*
X0145185Y0353485D02*
X0142732Y0353485D01*
X0142733Y0353494D02*
X0145184Y0353494D01*
X0145183Y0353502D02*
X0142734Y0353502D01*
X0142735Y0353511D02*
X0145182Y0353511D01*
X0145181Y0353519D02*
X0142736Y0353519D01*
X0142737Y0353528D02*
X0145180Y0353528D01*
X0145179Y0353536D02*
X0142738Y0353536D01*
X0142739Y0353545D02*
X0145178Y0353545D01*
X0145177Y0353553D02*
X0145085Y0353817D01*
X0142832Y0353817D01*
X0142740Y0353553D01*
X0142743Y0353562D02*
X0145174Y0353562D01*
X0145171Y0353570D02*
X0142746Y0353570D01*
X0142749Y0353579D02*
X0145168Y0353579D01*
X0145165Y0353587D02*
X0142752Y0353587D01*
X0142755Y0353596D02*
X0145162Y0353596D01*
X0145159Y0353604D02*
X0142758Y0353604D01*
X0142761Y0353613D02*
X0145156Y0353613D01*
X0145153Y0353621D02*
X0142764Y0353621D01*
X0142766Y0353630D02*
X0145150Y0353630D01*
X0145147Y0353638D02*
X0142769Y0353638D01*
X0142772Y0353647D02*
X0145144Y0353647D01*
X0145141Y0353655D02*
X0142775Y0353655D01*
X0142778Y0353664D02*
X0145138Y0353664D01*
X0145135Y0353672D02*
X0142781Y0353672D01*
X0142784Y0353681D02*
X0145132Y0353681D01*
X0145129Y0353689D02*
X0142787Y0353689D01*
X0142790Y0353698D02*
X0145126Y0353698D01*
X0145123Y0353706D02*
X0142793Y0353706D01*
X0142796Y0353715D02*
X0145120Y0353715D01*
X0145117Y0353723D02*
X0142799Y0353723D01*
X0142802Y0353732D02*
X0145114Y0353732D01*
X0145111Y0353740D02*
X0142805Y0353740D01*
X0142808Y0353749D02*
X0145108Y0353749D01*
X0145105Y0353757D02*
X0142811Y0353757D01*
X0142814Y0353766D02*
X0145103Y0353766D01*
X0145100Y0353775D02*
X0142817Y0353775D01*
X0142820Y0353783D02*
X0145097Y0353783D01*
X0145094Y0353792D02*
X0142823Y0353792D01*
X0142826Y0353800D02*
X0145091Y0353800D01*
X0145088Y0353809D02*
X0142829Y0353809D01*
X0142832Y0353817D02*
X0142981Y0354054D01*
X0143179Y0354252D01*
X0143416Y0354401D01*
X0143680Y0354494D01*
X0143958Y0354525D01*
X0144236Y0354494D01*
X0144501Y0354401D01*
X0144738Y0354252D01*
X0144936Y0354054D01*
X0145085Y0353817D01*
X0145079Y0353826D02*
X0142837Y0353826D01*
X0142843Y0353834D02*
X0145074Y0353834D01*
X0145069Y0353843D02*
X0142848Y0353843D01*
X0142853Y0353851D02*
X0145063Y0353851D01*
X0145058Y0353860D02*
X0142859Y0353860D01*
X0142864Y0353868D02*
X0145053Y0353868D01*
X0145047Y0353877D02*
X0142869Y0353877D01*
X0142875Y0353885D02*
X0145042Y0353885D01*
X0145037Y0353894D02*
X0142880Y0353894D01*
X0142885Y0353902D02*
X0145031Y0353902D01*
X0145026Y0353911D02*
X0142891Y0353911D01*
X0142896Y0353919D02*
X0145021Y0353919D01*
X0145015Y0353928D02*
X0142901Y0353928D01*
X0142907Y0353936D02*
X0145010Y0353936D01*
X0145004Y0353945D02*
X0142912Y0353945D01*
X0142918Y0353953D02*
X0144999Y0353953D01*
X0144994Y0353962D02*
X0142923Y0353962D01*
X0142928Y0353970D02*
X0144988Y0353970D01*
X0144983Y0353979D02*
X0142934Y0353979D01*
X0142939Y0353987D02*
X0144978Y0353987D01*
X0144972Y0353996D02*
X0142944Y0353996D01*
X0142950Y0354004D02*
X0144967Y0354004D01*
X0144962Y0354013D02*
X0142955Y0354013D01*
X0142960Y0354021D02*
X0144956Y0354021D01*
X0144951Y0354030D02*
X0142966Y0354030D01*
X0142971Y0354038D02*
X0144946Y0354038D01*
X0144940Y0354047D02*
X0142976Y0354047D01*
X0142982Y0354055D02*
X0144935Y0354055D01*
X0144926Y0354064D02*
X0142991Y0354064D01*
X0142999Y0354072D02*
X0144917Y0354072D01*
X0144909Y0354081D02*
X0143008Y0354081D01*
X0143016Y0354090D02*
X0144900Y0354090D01*
X0144892Y0354098D02*
X0143025Y0354098D01*
X0143033Y0354107D02*
X0144883Y0354107D01*
X0144875Y0354115D02*
X0143042Y0354115D01*
X0143050Y0354124D02*
X0144866Y0354124D01*
X0144858Y0354132D02*
X0143059Y0354132D01*
X0143067Y0354141D02*
X0144849Y0354141D01*
X0144841Y0354149D02*
X0143076Y0354149D01*
X0143084Y0354158D02*
X0144832Y0354158D01*
X0144824Y0354166D02*
X0143093Y0354166D01*
X0143101Y0354175D02*
X0144815Y0354175D01*
X0144807Y0354183D02*
X0143110Y0354183D01*
X0143118Y0354192D02*
X0144798Y0354192D01*
X0144790Y0354200D02*
X0143127Y0354200D01*
X0143135Y0354209D02*
X0144781Y0354209D01*
X0144773Y0354217D02*
X0143144Y0354217D01*
X0143152Y0354226D02*
X0144764Y0354226D01*
X0144756Y0354234D02*
X0143161Y0354234D01*
X0143169Y0354243D02*
X0144747Y0354243D01*
X0144739Y0354251D02*
X0143178Y0354251D01*
X0143191Y0354260D02*
X0144726Y0354260D01*
X0144712Y0354268D02*
X0143204Y0354268D01*
X0143218Y0354277D02*
X0144699Y0354277D01*
X0144685Y0354285D02*
X0143232Y0354285D01*
X0143245Y0354294D02*
X0144672Y0354294D01*
X0144658Y0354302D02*
X0143259Y0354302D01*
X0143272Y0354311D02*
X0144644Y0354311D01*
X0144631Y0354319D02*
X0143286Y0354319D01*
X0143299Y0354328D02*
X0144617Y0354328D01*
X0144604Y0354336D02*
X0143313Y0354336D01*
X0143326Y0354345D02*
X0144590Y0354345D01*
X0144577Y0354353D02*
X0143340Y0354353D01*
X0143354Y0354362D02*
X0144563Y0354362D01*
X0144550Y0354370D02*
X0143367Y0354370D01*
X0143381Y0354379D02*
X0144536Y0354379D01*
X0144523Y0354387D02*
X0143394Y0354387D01*
X0143408Y0354396D02*
X0144509Y0354396D01*
X0144491Y0354405D02*
X0143425Y0354405D01*
X0143450Y0354413D02*
X0144467Y0354413D01*
X0144443Y0354422D02*
X0143474Y0354422D01*
X0143498Y0354430D02*
X0144418Y0354430D01*
X0144394Y0354439D02*
X0143523Y0354439D01*
X0143547Y0354447D02*
X0144370Y0354447D01*
X0144345Y0354456D02*
X0143571Y0354456D01*
X0143596Y0354464D02*
X0144321Y0354464D01*
X0144297Y0354473D02*
X0143620Y0354473D01*
X0143644Y0354481D02*
X0144272Y0354481D01*
X0144248Y0354490D02*
X0143669Y0354490D01*
X0143720Y0354498D02*
X0144196Y0354498D01*
X0144121Y0354507D02*
X0143796Y0354507D01*
X0143871Y0354515D02*
X0144045Y0354515D01*
X0143970Y0354524D02*
X0143947Y0354524D01*
X0143186Y0352293D02*
X0144730Y0352293D01*
X0144717Y0352285D02*
X0143200Y0352285D01*
X0143213Y0352276D02*
X0144703Y0352276D01*
X0144690Y0352268D02*
X0143227Y0352268D01*
X0143240Y0352259D02*
X0144676Y0352259D01*
X0144663Y0352251D02*
X0143254Y0352251D01*
X0143268Y0352242D02*
X0144649Y0352242D01*
X0144636Y0352234D02*
X0143281Y0352234D01*
X0143295Y0352225D02*
X0144622Y0352225D01*
X0144608Y0352216D02*
X0143308Y0352216D01*
X0143322Y0352208D02*
X0144595Y0352208D01*
X0144581Y0352199D02*
X0143335Y0352199D01*
X0143349Y0352191D02*
X0144568Y0352191D01*
X0144554Y0352182D02*
X0143362Y0352182D01*
X0143376Y0352174D02*
X0144541Y0352174D01*
X0144527Y0352165D02*
X0143390Y0352165D01*
X0143403Y0352157D02*
X0144514Y0352157D01*
X0144499Y0352148D02*
X0143417Y0352148D01*
X0143441Y0352140D02*
X0144475Y0352140D01*
X0144451Y0352131D02*
X0143466Y0352131D01*
X0143490Y0352123D02*
X0144427Y0352123D01*
X0144402Y0352114D02*
X0143514Y0352114D01*
X0143539Y0352106D02*
X0144378Y0352106D01*
X0144354Y0352097D02*
X0143563Y0352097D01*
X0143587Y0352089D02*
X0144329Y0352089D01*
X0144305Y0352080D02*
X0143612Y0352080D01*
X0143636Y0352072D02*
X0144281Y0352072D01*
X0144256Y0352063D02*
X0143660Y0352063D01*
X0143694Y0352055D02*
X0144222Y0352055D01*
X0144147Y0352046D02*
X0143770Y0352046D01*
X0143846Y0352038D02*
X0144071Y0352038D01*
X0143995Y0352029D02*
X0143921Y0352029D01*
M02*
