G75*
%MOIN*%
%OFA0B0*%
%FSLAX25Y25*%
%IPPOS*%
%LPD*%
%AMOC8*
5,1,8,0,0,1.08239X$1,22.5*
%
%ADD10C,0.00591*%
%ADD11C,0.00300*%
%ADD12R,0.13701X0.00157*%
%ADD13R,0.14646X0.00157*%
%ADD14R,0.15276X0.00157*%
%ADD15R,0.15906X0.00157*%
%ADD16R,0.16220X0.00157*%
%ADD17R,0.16535X0.00157*%
%ADD18R,0.16850X0.00157*%
%ADD19R,0.04252X0.00157*%
%ADD20R,0.11969X0.00157*%
%ADD21R,0.04094X0.00157*%
%ADD22R,0.01260X0.00157*%
%ADD23R,0.01890X0.00157*%
%ADD24R,0.00630X0.00157*%
%ADD25R,0.03780X0.00157*%
%ADD26R,0.00787X0.00157*%
%ADD27R,0.01575X0.00157*%
%ADD28R,0.00472X0.00157*%
%ADD29R,0.01417X0.00157*%
%ADD30R,0.03465X0.00157*%
%ADD31R,0.03622X0.00157*%
%ADD32R,0.01102X0.00157*%
%ADD33R,0.03307X0.00157*%
%ADD34R,0.00945X0.00157*%
%ADD35R,0.02835X0.00157*%
%ADD36R,0.02992X0.00157*%
%ADD37R,0.00157X0.00157*%
%ADD38R,0.00315X0.00157*%
%ADD39R,0.03937X0.00157*%
%ADD40R,0.01732X0.00157*%
%ADD41R,0.12756X0.00157*%
%ADD42R,0.14331X0.00157*%
%ADD43R,0.14961X0.00157*%
%ADD44R,0.15591X0.00157*%
%ADD45R,0.07087X0.00157*%
%ADD46R,0.02362X0.00157*%
%ADD47R,0.02047X0.00157*%
%ADD48R,0.03150X0.00157*%
%ADD49R,0.04409X0.00157*%
%ADD50R,0.02205X0.00157*%
%ADD51R,0.05039X0.00157*%
%ADD52R,0.02520X0.00157*%
%ADD53R,0.13071X0.00157*%
%ADD54R,0.14016X0.00157*%
%ADD55R,0.04567X0.00157*%
%ADD56R,0.02677X0.00157*%
%ADD57R,0.04882X0.00157*%
%ADD58R,0.05354X0.00157*%
%ADD59R,0.12126X0.00157*%
%ADD60R,0.05197X0.00157*%
D10*
X0149698Y0269246D02*
X0148680Y0270264D01*
X0149890Y0271748D01*
X0149582Y0272346D01*
X0149377Y0272987D01*
X0147472Y0273180D01*
X0147472Y0274620D01*
X0149377Y0274813D01*
X0149582Y0275454D01*
X0149890Y0276052D01*
X0148680Y0277536D01*
X0149698Y0278554D01*
X0151182Y0277343D01*
X0151780Y0277651D01*
X0152420Y0277856D01*
X0152614Y0279761D01*
X0154053Y0279761D01*
X0154247Y0277856D01*
X0154887Y0277651D01*
X0155485Y0277343D01*
X0156969Y0278554D01*
X0157987Y0277536D01*
X0156777Y0276052D01*
X0157085Y0275454D01*
X0157290Y0274813D01*
X0159195Y0274620D01*
X0159195Y0273180D01*
X0157290Y0272987D01*
X0157085Y0272346D01*
X0156777Y0271748D01*
X0157987Y0270264D01*
X0156969Y0269246D01*
X0155485Y0270457D01*
X0154887Y0270149D01*
X0154040Y0272195D01*
X0154418Y0272407D01*
X0154737Y0272701D01*
X0154978Y0273062D01*
X0155128Y0273469D01*
X0155179Y0273900D01*
X0155126Y0274339D01*
X0154970Y0274752D01*
X0154721Y0275117D01*
X0154392Y0275411D01*
X0154002Y0275620D01*
X0153574Y0275729D01*
X0153133Y0275734D01*
X0152702Y0275634D01*
X0152308Y0275434D01*
X0151973Y0275146D01*
X0151716Y0274787D01*
X0151551Y0274377D01*
X0151489Y0273940D01*
X0151532Y0273500D01*
X0151678Y0273084D01*
X0151920Y0272714D01*
X0152242Y0272412D01*
X0152627Y0272195D01*
X0151779Y0270149D01*
X0151182Y0270457D01*
X0149698Y0269246D01*
X0149297Y0269647D02*
X0150189Y0269647D01*
X0150911Y0270236D02*
X0148708Y0270236D01*
X0149137Y0270825D02*
X0152060Y0270825D01*
X0152304Y0271414D02*
X0149617Y0271414D01*
X0149759Y0272003D02*
X0152548Y0272003D01*
X0152049Y0272592D02*
X0149503Y0272592D01*
X0147472Y0273181D02*
X0151644Y0273181D01*
X0151505Y0273770D02*
X0147472Y0273770D01*
X0147472Y0274359D02*
X0151549Y0274359D01*
X0151831Y0274948D02*
X0149420Y0274948D01*
X0149625Y0275538D02*
X0152513Y0275538D01*
X0154156Y0275538D02*
X0157041Y0275538D01*
X0156838Y0276127D02*
X0149829Y0276127D01*
X0149349Y0276716D02*
X0157318Y0276716D01*
X0157798Y0277305D02*
X0148868Y0277305D01*
X0149038Y0277894D02*
X0150507Y0277894D01*
X0149784Y0278483D02*
X0149627Y0278483D01*
X0152484Y0278483D02*
X0154183Y0278483D01*
X0154123Y0279072D02*
X0152544Y0279072D01*
X0152603Y0279661D02*
X0154063Y0279661D01*
X0154243Y0277894D02*
X0152424Y0277894D01*
X0156160Y0277894D02*
X0157629Y0277894D01*
X0157040Y0278483D02*
X0156882Y0278483D01*
X0157246Y0274948D02*
X0154836Y0274948D01*
X0155118Y0274359D02*
X0159195Y0274359D01*
X0159195Y0273770D02*
X0155164Y0273770D01*
X0155022Y0273181D02*
X0159195Y0273181D01*
X0157163Y0272592D02*
X0154619Y0272592D01*
X0154119Y0272003D02*
X0156908Y0272003D01*
X0157049Y0271414D02*
X0154363Y0271414D01*
X0154607Y0270825D02*
X0157530Y0270825D01*
X0157959Y0270236D02*
X0155756Y0270236D01*
X0155056Y0270236D02*
X0154851Y0270236D01*
X0156478Y0269647D02*
X0157370Y0269647D01*
X0151815Y0270236D02*
X0151610Y0270236D01*
D11*
X0180892Y0320294D02*
X0181286Y0320648D01*
X0181680Y0320963D01*
X0182073Y0321317D01*
X0182428Y0321672D01*
X0182822Y0321987D01*
X0183215Y0322341D01*
X0183570Y0322656D01*
X0183963Y0323010D01*
X0183963Y0337538D01*
X0183255Y0337695D01*
X0182861Y0337735D01*
X0182507Y0337813D01*
X0182152Y0337853D01*
X0181798Y0337931D01*
X0181404Y0338010D01*
X0181050Y0338050D01*
X0181050Y0336632D01*
X0180735Y0337065D01*
X0180381Y0337420D01*
X0180026Y0337735D01*
X0179633Y0337971D01*
X0179199Y0338128D01*
X0178727Y0338286D01*
X0178215Y0338325D01*
X0177743Y0338365D01*
X0176522Y0338246D01*
X0175459Y0337892D01*
X0174593Y0337302D01*
X0173885Y0336554D01*
X0173333Y0335648D01*
X0172979Y0334664D01*
X0172743Y0333561D01*
X0172664Y0332380D01*
X0175735Y0332459D01*
X0175774Y0333128D01*
X0175853Y0333798D01*
X0176050Y0334388D01*
X0176325Y0334939D01*
X0176680Y0335412D01*
X0177152Y0335766D01*
X0177703Y0335963D01*
X0178412Y0336042D01*
X0179081Y0335963D01*
X0179672Y0335766D01*
X0180105Y0335412D01*
X0180459Y0334939D01*
X0180735Y0334388D01*
X0180892Y0333798D01*
X0181010Y0333128D01*
X0181050Y0332459D01*
X0181010Y0331790D01*
X0180892Y0331160D01*
X0180735Y0330569D01*
X0180459Y0330018D01*
X0180105Y0329585D01*
X0179633Y0329231D01*
X0179042Y0328994D01*
X0178373Y0328916D01*
X0177664Y0328994D01*
X0177113Y0329231D01*
X0176640Y0329585D01*
X0176286Y0330018D01*
X0176050Y0330569D01*
X0173333Y0329270D01*
X0173885Y0328404D01*
X0174554Y0327656D01*
X0175420Y0327105D01*
X0176404Y0326750D01*
X0177546Y0326632D01*
X0178058Y0326672D01*
X0178530Y0326750D01*
X0179003Y0326869D01*
X0179436Y0327065D01*
X0179869Y0327302D01*
X0180262Y0327577D01*
X0180577Y0327931D01*
X0180892Y0328325D01*
X0180892Y0320294D01*
X0180892Y0320505D02*
X0181127Y0320505D01*
X0180892Y0320804D02*
X0181481Y0320804D01*
X0181835Y0321102D02*
X0180892Y0321102D01*
X0180892Y0321401D02*
X0182157Y0321401D01*
X0182462Y0321699D02*
X0180892Y0321699D01*
X0180892Y0321998D02*
X0182834Y0321998D01*
X0183166Y0322296D02*
X0180892Y0322296D01*
X0180892Y0322595D02*
X0183501Y0322595D01*
X0183833Y0322893D02*
X0180892Y0322893D01*
X0180892Y0323192D02*
X0183963Y0323192D01*
X0183963Y0323490D02*
X0180892Y0323490D01*
X0180892Y0323789D02*
X0183963Y0323789D01*
X0183963Y0324087D02*
X0180892Y0324087D01*
X0180892Y0324386D02*
X0183963Y0324386D01*
X0183963Y0324684D02*
X0180892Y0324684D01*
X0180892Y0324983D02*
X0183963Y0324983D01*
X0183963Y0325281D02*
X0180892Y0325281D01*
X0180892Y0325580D02*
X0183963Y0325580D01*
X0183963Y0325878D02*
X0180892Y0325878D01*
X0180892Y0326177D02*
X0183963Y0326177D01*
X0183963Y0326475D02*
X0180892Y0326475D01*
X0180892Y0326774D02*
X0183963Y0326774D01*
X0183963Y0327072D02*
X0180892Y0327072D01*
X0180892Y0327371D02*
X0183963Y0327371D01*
X0183963Y0327670D02*
X0180892Y0327670D01*
X0180892Y0327968D02*
X0183963Y0327968D01*
X0183963Y0328267D02*
X0180892Y0328267D01*
X0180845Y0328267D02*
X0174007Y0328267D01*
X0173782Y0328565D02*
X0183963Y0328565D01*
X0183963Y0328864D02*
X0173592Y0328864D01*
X0173402Y0329162D02*
X0177273Y0329162D01*
X0176806Y0329461D02*
X0173732Y0329461D01*
X0173262Y0329461D01*
X0173333Y0329270D02*
X0176050Y0330569D01*
X0175853Y0331160D01*
X0175774Y0331790D01*
X0175735Y0332459D01*
X0172664Y0332380D01*
X0172743Y0331278D01*
X0172979Y0330215D01*
X0173333Y0329270D01*
X0173150Y0329759D02*
X0174356Y0329759D01*
X0176498Y0329759D01*
X0176269Y0330058D02*
X0174980Y0330058D01*
X0173038Y0330058D01*
X0172948Y0330356D02*
X0175604Y0330356D01*
X0176141Y0330356D01*
X0176021Y0330655D02*
X0172881Y0330655D01*
X0172815Y0330953D02*
X0175922Y0330953D01*
X0175842Y0331252D02*
X0172749Y0331252D01*
X0172723Y0331550D02*
X0175804Y0331550D01*
X0175771Y0331849D02*
X0172702Y0331849D01*
X0172681Y0332147D02*
X0175753Y0332147D01*
X0175736Y0332446D02*
X0175214Y0332446D01*
X0172668Y0332446D01*
X0172688Y0332744D02*
X0175752Y0332744D01*
X0175769Y0333043D02*
X0172708Y0333043D01*
X0172728Y0333341D02*
X0175799Y0333341D01*
X0175834Y0333640D02*
X0172760Y0333640D01*
X0172824Y0333938D02*
X0175900Y0333938D01*
X0175999Y0334237D02*
X0172887Y0334237D01*
X0172951Y0334535D02*
X0176123Y0334535D01*
X0176273Y0334834D02*
X0173040Y0334834D01*
X0173148Y0335132D02*
X0176470Y0335132D01*
X0176705Y0335431D02*
X0173255Y0335431D01*
X0173383Y0335729D02*
X0177103Y0335729D01*
X0178287Y0336028D02*
X0173565Y0336028D01*
X0173746Y0336326D02*
X0183963Y0336326D01*
X0183963Y0336028D02*
X0178530Y0336028D01*
X0179717Y0335729D02*
X0183963Y0335729D01*
X0183963Y0335431D02*
X0180082Y0335431D01*
X0180315Y0335132D02*
X0183963Y0335132D01*
X0183963Y0334834D02*
X0180512Y0334834D01*
X0180661Y0334535D02*
X0183963Y0334535D01*
X0183963Y0334237D02*
X0180775Y0334237D01*
X0180855Y0333938D02*
X0183963Y0333938D01*
X0183963Y0333640D02*
X0180920Y0333640D01*
X0180973Y0333341D02*
X0183963Y0333341D01*
X0183963Y0333043D02*
X0181016Y0333043D01*
X0181033Y0332744D02*
X0183963Y0332744D01*
X0183963Y0332446D02*
X0181049Y0332446D01*
X0181032Y0332147D02*
X0183963Y0332147D01*
X0183963Y0331849D02*
X0181014Y0331849D01*
X0180966Y0331550D02*
X0183963Y0331550D01*
X0183963Y0331252D02*
X0180910Y0331252D01*
X0180837Y0330953D02*
X0183963Y0330953D01*
X0183963Y0330655D02*
X0180758Y0330655D01*
X0180628Y0330356D02*
X0183963Y0330356D01*
X0183963Y0330058D02*
X0180479Y0330058D01*
X0180247Y0329759D02*
X0183963Y0329759D01*
X0183963Y0329461D02*
X0179939Y0329461D01*
X0179461Y0329162D02*
X0183963Y0329162D01*
X0185341Y0329506D02*
X0185656Y0328680D01*
X0186168Y0328010D01*
X0186798Y0327459D01*
X0187585Y0327065D01*
X0188451Y0326829D01*
X0189357Y0326672D01*
X0190302Y0326632D01*
X0191247Y0326672D01*
X0192192Y0326829D01*
X0193058Y0327105D01*
X0193845Y0327498D01*
X0194514Y0328010D01*
X0195026Y0328680D01*
X0195381Y0329546D01*
X0195538Y0330530D01*
X0192625Y0330530D01*
X0192585Y0330097D01*
X0192428Y0329703D01*
X0192192Y0329388D01*
X0191877Y0329113D01*
X0191522Y0328916D01*
X0191129Y0328798D01*
X0190735Y0328719D01*
X0190262Y0328680D01*
X0189948Y0328680D01*
X0189593Y0328758D01*
X0189278Y0328837D01*
X0188963Y0328994D01*
X0188688Y0329152D01*
X0188451Y0329428D01*
X0188333Y0329743D01*
X0188255Y0330097D01*
X0188333Y0330412D01*
X0188491Y0330687D01*
X0188806Y0330924D01*
X0189199Y0331120D01*
X0189672Y0331317D01*
X0190262Y0331475D01*
X0190971Y0331632D01*
X0192388Y0331987D01*
X0193058Y0332183D01*
X0193648Y0332420D01*
X0194160Y0332695D01*
X0194633Y0333089D01*
X0194987Y0333561D01*
X0195184Y0334113D01*
X0195262Y0334782D01*
X0195144Y0335766D01*
X0194869Y0336554D01*
X0194357Y0337183D01*
X0193727Y0337656D01*
X0193018Y0337971D01*
X0192192Y0338207D01*
X0191325Y0338325D01*
X0190420Y0338365D01*
X0189514Y0338325D01*
X0188688Y0338207D01*
X0187861Y0337971D01*
X0187152Y0337617D01*
X0186522Y0337144D01*
X0186050Y0336514D01*
X0185696Y0335766D01*
X0185499Y0334821D01*
X0188412Y0334821D01*
X0188491Y0335215D01*
X0188648Y0335530D01*
X0188845Y0335806D01*
X0189081Y0336002D01*
X0189396Y0336160D01*
X0190105Y0336317D01*
X0190774Y0336317D01*
X0191089Y0336278D01*
X0191365Y0336239D01*
X0191640Y0336160D01*
X0191877Y0336002D01*
X0192034Y0335845D01*
X0192152Y0335609D01*
X0192231Y0335294D01*
X0192152Y0334900D01*
X0191916Y0334624D01*
X0191562Y0334388D01*
X0191129Y0334191D01*
X0190617Y0334034D01*
X0190026Y0333916D01*
X0189396Y0333758D01*
X0188727Y0333640D01*
X0188097Y0333443D01*
X0187428Y0333246D01*
X0186837Y0333010D01*
X0186325Y0332695D01*
X0185853Y0332302D01*
X0185499Y0331790D01*
X0185302Y0331199D01*
X0185223Y0330491D01*
X0185341Y0329506D01*
X0185359Y0329461D02*
X0188439Y0329461D01*
X0188330Y0329759D02*
X0185311Y0329759D01*
X0185275Y0330058D02*
X0188263Y0330058D01*
X0188319Y0330356D02*
X0185239Y0330356D01*
X0185241Y0330655D02*
X0188472Y0330655D01*
X0188865Y0330953D02*
X0185274Y0330953D01*
X0185319Y0331252D02*
X0189514Y0331252D01*
X0190602Y0331550D02*
X0185419Y0331550D01*
X0185539Y0331849D02*
X0191837Y0331849D01*
X0192934Y0332147D02*
X0185746Y0332147D01*
X0186026Y0332446D02*
X0193697Y0332446D01*
X0194219Y0332744D02*
X0186405Y0332744D01*
X0186918Y0333043D02*
X0194577Y0333043D01*
X0194822Y0333341D02*
X0187750Y0333341D01*
X0188726Y0333640D02*
X0195015Y0333640D01*
X0195121Y0333938D02*
X0190139Y0333938D01*
X0191229Y0334237D02*
X0195198Y0334237D01*
X0195233Y0334535D02*
X0191782Y0334535D01*
X0192095Y0334834D02*
X0195256Y0334834D01*
X0195220Y0335132D02*
X0192199Y0335132D01*
X0192197Y0335431D02*
X0195185Y0335431D01*
X0195149Y0335729D02*
X0192092Y0335729D01*
X0191838Y0336028D02*
X0195053Y0336028D01*
X0194948Y0336326D02*
X0185961Y0336326D01*
X0185820Y0336028D02*
X0189132Y0336028D01*
X0188791Y0335729D02*
X0185688Y0335729D01*
X0185626Y0335431D02*
X0188599Y0335431D01*
X0188474Y0335132D02*
X0185563Y0335132D01*
X0185501Y0334834D02*
X0188415Y0334834D01*
X0186133Y0336625D02*
X0194811Y0336625D01*
X0194568Y0336923D02*
X0186357Y0336923D01*
X0186626Y0337222D02*
X0194306Y0337222D01*
X0193908Y0337520D02*
X0187024Y0337520D01*
X0187557Y0337819D02*
X0193360Y0337819D01*
X0192505Y0338117D02*
X0188374Y0338117D01*
X0183963Y0337520D02*
X0181050Y0337520D01*
X0181050Y0337222D02*
X0183963Y0337222D01*
X0183963Y0336923D02*
X0181050Y0336923D01*
X0180838Y0336923D02*
X0174235Y0336923D01*
X0173952Y0336625D02*
X0183963Y0336625D01*
X0182457Y0337819D02*
X0181050Y0337819D01*
X0180578Y0337222D02*
X0174518Y0337222D01*
X0174914Y0337520D02*
X0180267Y0337520D01*
X0179886Y0337819D02*
X0175352Y0337819D01*
X0176135Y0338117D02*
X0179230Y0338117D01*
X0171247Y0335609D02*
X0171089Y0336002D01*
X0170892Y0336396D01*
X0170656Y0336750D01*
X0170381Y0337065D01*
X0169672Y0337538D01*
X0169318Y0337735D01*
X0168924Y0337931D01*
X0168058Y0338168D01*
X0167585Y0338246D01*
X0167152Y0338286D01*
X0166680Y0338325D01*
X0165341Y0338325D01*
X0164948Y0338286D01*
X0164081Y0338128D01*
X0163688Y0338050D01*
X0163294Y0337931D01*
X0162940Y0337774D01*
X0162585Y0337577D01*
X0162270Y0337341D01*
X0161995Y0337105D01*
X0161759Y0336790D01*
X0161562Y0336475D01*
X0161444Y0336081D01*
X0161325Y0335648D01*
X0161325Y0328994D01*
X0161286Y0328798D01*
X0161286Y0328286D01*
X0161247Y0328089D01*
X0161247Y0327931D01*
X0161129Y0327459D01*
X0161129Y0327341D01*
X0161089Y0327223D01*
X0161010Y0327105D01*
X0160971Y0326987D01*
X0160932Y0326908D01*
X0164042Y0326908D01*
X0164042Y0326987D01*
X0164081Y0327026D01*
X0164081Y0327105D01*
X0164121Y0327183D01*
X0164160Y0327223D01*
X0164160Y0327380D01*
X0164199Y0327420D01*
X0164199Y0327577D01*
X0164239Y0327656D01*
X0164239Y0327971D01*
X0164436Y0327813D01*
X0164633Y0327617D01*
X0164829Y0327459D01*
X0165026Y0327341D01*
X0165735Y0326987D01*
X0166207Y0326829D01*
X0166444Y0326790D01*
X0166719Y0326711D01*
X0166955Y0326672D01*
X0167231Y0326632D01*
X0167467Y0326632D01*
X0167743Y0326593D01*
X0168373Y0326593D01*
X0168766Y0326632D01*
X0169475Y0326790D01*
X0169829Y0326908D01*
X0170144Y0327065D01*
X0170420Y0327223D01*
X0170696Y0327420D01*
X0170932Y0327617D01*
X0171129Y0327892D01*
X0171325Y0328128D01*
X0171483Y0328443D01*
X0171601Y0328758D01*
X0171719Y0329152D01*
X0171759Y0329506D01*
X0171798Y0329939D01*
X0171680Y0330806D01*
X0171444Y0331475D01*
X0171089Y0332026D01*
X0170577Y0332459D01*
X0170026Y0332813D01*
X0169396Y0333050D01*
X0168727Y0333207D01*
X0168018Y0333325D01*
X0167428Y0331593D01*
X0167585Y0331554D01*
X0167743Y0331475D01*
X0167900Y0331435D01*
X0168058Y0331357D01*
X0168176Y0331278D01*
X0168412Y0331042D01*
X0168570Y0330806D01*
X0168648Y0330648D01*
X0168688Y0330491D01*
X0168727Y0330294D01*
X0168727Y0329900D01*
X0168688Y0329703D01*
X0168648Y0329546D01*
X0168570Y0329388D01*
X0168412Y0329152D01*
X0168294Y0329034D01*
X0168176Y0328955D01*
X0168018Y0328876D01*
X0167900Y0328837D01*
X0167743Y0328758D01*
X0167585Y0328719D01*
X0167388Y0328680D01*
X0166444Y0328680D01*
X0166050Y0328758D01*
X0165735Y0328837D01*
X0165459Y0328994D01*
X0165223Y0329113D01*
X0165026Y0329309D01*
X0164711Y0329703D01*
X0164633Y0329900D01*
X0164514Y0330136D01*
X0164396Y0330727D01*
X0164396Y0332380D01*
X0164475Y0332302D01*
X0164711Y0332144D01*
X0165026Y0332065D01*
X0165144Y0332026D01*
X0165341Y0331987D01*
X0165656Y0331908D01*
X0166010Y0333561D01*
X0165499Y0333719D01*
X0165026Y0333876D01*
X0164672Y0334073D01*
X0164436Y0334388D01*
X0164396Y0334782D01*
X0164396Y0335018D01*
X0164436Y0335254D01*
X0164475Y0335412D01*
X0164633Y0335727D01*
X0164711Y0335845D01*
X0164829Y0335963D01*
X0164948Y0336042D01*
X0165105Y0336120D01*
X0165262Y0336160D01*
X0165420Y0336239D01*
X0165577Y0336239D01*
X0165971Y0336317D01*
X0166562Y0336317D01*
X0166798Y0336278D01*
X0166995Y0336239D01*
X0167152Y0336199D01*
X0167349Y0336160D01*
X0167507Y0336081D01*
X0167625Y0336002D01*
X0167782Y0335924D01*
X0168018Y0335687D01*
X0168255Y0335215D01*
X0168294Y0335018D01*
X0168373Y0334821D01*
X0168373Y0334624D01*
X0171444Y0334624D01*
X0171365Y0335136D01*
X0171247Y0335609D01*
X0171198Y0335729D02*
X0167976Y0335729D01*
X0168147Y0335431D02*
X0171291Y0335431D01*
X0171365Y0335132D02*
X0168271Y0335132D01*
X0168368Y0334834D02*
X0171411Y0334834D01*
X0171077Y0336028D02*
X0167586Y0336028D01*
X0168242Y0338117D02*
X0164027Y0338117D01*
X0163041Y0337819D02*
X0169149Y0337819D01*
X0169698Y0337520D02*
X0162510Y0337520D01*
X0162131Y0337222D02*
X0170146Y0337222D01*
X0170505Y0336923D02*
X0161859Y0336923D01*
X0161655Y0336625D02*
X0170740Y0336625D01*
X0170927Y0336326D02*
X0161517Y0336326D01*
X0161429Y0336028D02*
X0164927Y0336028D01*
X0164634Y0335729D02*
X0161348Y0335729D01*
X0161325Y0335431D02*
X0164485Y0335431D01*
X0164415Y0335132D02*
X0161325Y0335132D01*
X0161325Y0334834D02*
X0164396Y0334834D01*
X0164421Y0334535D02*
X0161325Y0334535D01*
X0161325Y0334237D02*
X0164549Y0334237D01*
X0164915Y0333938D02*
X0161325Y0333938D01*
X0161325Y0333640D02*
X0165756Y0333640D01*
X0166010Y0333561D02*
X0165656Y0331908D01*
X0165853Y0331908D01*
X0166010Y0331869D01*
X0166207Y0331829D01*
X0166365Y0331829D01*
X0166759Y0331750D01*
X0166916Y0331711D01*
X0167113Y0331672D01*
X0167428Y0331593D01*
X0168018Y0333325D01*
X0167310Y0333404D01*
X0166640Y0333483D01*
X0166010Y0333561D01*
X0165963Y0333341D02*
X0161325Y0333341D01*
X0161325Y0333043D02*
X0165899Y0333043D01*
X0167922Y0333043D01*
X0169415Y0333043D01*
X0170134Y0332744D02*
X0167820Y0332744D01*
X0165835Y0332744D01*
X0161325Y0332744D01*
X0161325Y0332446D02*
X0165771Y0332446D01*
X0167719Y0332446D01*
X0170593Y0332446D01*
X0170946Y0332147D02*
X0167617Y0332147D01*
X0165707Y0332147D01*
X0164707Y0332147D01*
X0164396Y0332147D02*
X0161325Y0332147D01*
X0161325Y0331849D02*
X0164396Y0331849D01*
X0164396Y0331550D02*
X0161325Y0331550D01*
X0161325Y0331252D02*
X0164396Y0331252D01*
X0164396Y0330953D02*
X0161325Y0330953D01*
X0161325Y0330655D02*
X0164411Y0330655D01*
X0164470Y0330356D02*
X0161325Y0330356D01*
X0161325Y0330058D02*
X0164554Y0330058D01*
X0164689Y0329759D02*
X0161325Y0329759D01*
X0161325Y0329461D02*
X0164905Y0329461D01*
X0165174Y0329162D02*
X0161325Y0329162D01*
X0161299Y0328864D02*
X0165688Y0328864D01*
X0164580Y0327670D02*
X0170970Y0327670D01*
X0171192Y0327968D02*
X0164242Y0327968D01*
X0164239Y0327968D02*
X0161247Y0327968D01*
X0161282Y0328267D02*
X0171395Y0328267D01*
X0171529Y0328565D02*
X0161286Y0328565D01*
X0161181Y0327670D02*
X0164239Y0327670D01*
X0164160Y0327371D02*
X0161129Y0327371D01*
X0161000Y0327072D02*
X0164081Y0327072D01*
X0164976Y0327371D02*
X0170627Y0327371D01*
X0170157Y0327072D02*
X0165563Y0327072D01*
X0166499Y0326774D02*
X0169404Y0326774D01*
X0167980Y0328864D02*
X0171633Y0328864D01*
X0171720Y0329162D02*
X0168419Y0329162D01*
X0168606Y0329461D02*
X0171753Y0329461D01*
X0171781Y0329759D02*
X0168699Y0329759D01*
X0168727Y0330058D02*
X0171782Y0330058D01*
X0171741Y0330356D02*
X0168715Y0330356D01*
X0168645Y0330655D02*
X0171700Y0330655D01*
X0171628Y0330953D02*
X0168471Y0330953D01*
X0168202Y0331252D02*
X0171522Y0331252D01*
X0171395Y0331550D02*
X0167592Y0331550D01*
X0167515Y0331849D02*
X0171203Y0331849D01*
X0167874Y0333341D02*
X0165963Y0333341D01*
X0166110Y0331849D02*
X0167515Y0331849D01*
X0174275Y0327968D02*
X0180607Y0327968D01*
X0180345Y0327670D02*
X0174542Y0327670D01*
X0175002Y0327371D02*
X0179968Y0327371D01*
X0179449Y0327072D02*
X0175509Y0327072D01*
X0176339Y0326774D02*
X0178625Y0326774D01*
X0185472Y0329162D02*
X0188679Y0329162D01*
X0189225Y0328864D02*
X0185586Y0328864D01*
X0185744Y0328565D02*
X0194939Y0328565D01*
X0195102Y0328864D02*
X0191348Y0328864D01*
X0191933Y0329162D02*
X0195224Y0329162D01*
X0195346Y0329461D02*
X0192246Y0329461D01*
X0192450Y0329759D02*
X0195415Y0329759D01*
X0195462Y0330058D02*
X0192570Y0330058D01*
X0192609Y0330356D02*
X0195510Y0330356D01*
X0194710Y0328267D02*
X0185972Y0328267D01*
X0186216Y0327968D02*
X0194459Y0327968D01*
X0194069Y0327670D02*
X0186557Y0327670D01*
X0186974Y0327371D02*
X0193590Y0327371D01*
X0192956Y0327072D02*
X0187571Y0327072D01*
X0188769Y0326774D02*
X0191861Y0326774D01*
X0159633Y0326908D02*
X0159633Y0336199D01*
X0159593Y0337538D01*
X0159239Y0337617D01*
X0158845Y0337656D01*
X0158136Y0337813D01*
X0157782Y0337853D01*
X0157428Y0337931D01*
X0157034Y0338010D01*
X0156680Y0338050D01*
X0156680Y0336002D01*
X0156404Y0336514D01*
X0156089Y0336947D01*
X0155696Y0337341D01*
X0155223Y0337695D01*
X0154751Y0337971D01*
X0154239Y0338207D01*
X0153688Y0338325D01*
X0153097Y0338365D01*
X0152861Y0338365D01*
X0152782Y0338325D01*
X0152703Y0338325D01*
X0152585Y0338286D01*
X0152507Y0338286D01*
X0152428Y0338246D01*
X0152428Y0335412D01*
X0152546Y0335451D01*
X0152664Y0335451D01*
X0152822Y0335491D01*
X0153097Y0335491D01*
X0153255Y0335530D01*
X0153530Y0335530D01*
X0154318Y0335451D01*
X0154948Y0335254D01*
X0155499Y0334900D01*
X0155892Y0334467D01*
X0156207Y0333955D01*
X0156404Y0333325D01*
X0156522Y0332656D01*
X0156562Y0331947D01*
X0156562Y0326908D01*
X0159633Y0326908D01*
X0159633Y0327072D02*
X0156562Y0327072D01*
X0156562Y0327371D02*
X0159633Y0327371D01*
X0159633Y0327670D02*
X0156562Y0327670D01*
X0156562Y0327968D02*
X0159633Y0327968D01*
X0159633Y0328267D02*
X0156562Y0328267D01*
X0156562Y0328565D02*
X0159633Y0328565D01*
X0159633Y0328864D02*
X0156562Y0328864D01*
X0156562Y0329162D02*
X0159633Y0329162D01*
X0159633Y0329461D02*
X0156562Y0329461D01*
X0156562Y0329759D02*
X0159633Y0329759D01*
X0159633Y0330058D02*
X0156562Y0330058D01*
X0156562Y0330356D02*
X0159633Y0330356D01*
X0159633Y0330655D02*
X0156562Y0330655D01*
X0156562Y0330953D02*
X0159633Y0330953D01*
X0159633Y0331252D02*
X0156562Y0331252D01*
X0156562Y0331550D02*
X0159633Y0331550D01*
X0159633Y0331849D02*
X0156562Y0331849D01*
X0156551Y0332147D02*
X0159633Y0332147D01*
X0159633Y0332446D02*
X0156534Y0332446D01*
X0156507Y0332744D02*
X0159633Y0332744D01*
X0159633Y0333043D02*
X0156454Y0333043D01*
X0156399Y0333341D02*
X0159633Y0333341D01*
X0159633Y0333640D02*
X0156306Y0333640D01*
X0156213Y0333938D02*
X0159633Y0333938D01*
X0159633Y0334237D02*
X0156034Y0334237D01*
X0155830Y0334535D02*
X0159633Y0334535D01*
X0159633Y0334834D02*
X0155559Y0334834D01*
X0155137Y0335132D02*
X0159633Y0335132D01*
X0159633Y0335431D02*
X0154383Y0335431D01*
X0152485Y0335431D02*
X0152428Y0335431D01*
X0152428Y0335729D02*
X0159633Y0335729D01*
X0159633Y0336028D02*
X0156680Y0336028D01*
X0156666Y0336028D02*
X0152428Y0336028D01*
X0152428Y0336326D02*
X0156505Y0336326D01*
X0156680Y0336326D02*
X0159629Y0336326D01*
X0159620Y0336625D02*
X0156680Y0336625D01*
X0156680Y0336923D02*
X0159611Y0336923D01*
X0159602Y0337222D02*
X0156680Y0337222D01*
X0156680Y0337520D02*
X0159594Y0337520D01*
X0158087Y0337819D02*
X0156680Y0337819D01*
X0155815Y0337222D02*
X0152428Y0337222D01*
X0152428Y0337520D02*
X0155456Y0337520D01*
X0155011Y0337819D02*
X0152428Y0337819D01*
X0152428Y0338117D02*
X0154433Y0338117D01*
X0156107Y0336923D02*
X0152428Y0336923D01*
X0152428Y0336625D02*
X0156324Y0336625D01*
X0151247Y0336625D02*
X0148176Y0336625D01*
X0148176Y0336923D02*
X0151247Y0336923D01*
X0151247Y0337222D02*
X0148176Y0337222D01*
X0148176Y0337520D02*
X0151247Y0337520D01*
X0151247Y0337819D02*
X0148176Y0337819D01*
X0148176Y0338117D02*
X0151247Y0338117D01*
X0151247Y0338416D02*
X0148176Y0338416D01*
X0148176Y0338714D02*
X0151247Y0338714D01*
X0151247Y0339013D02*
X0148176Y0339013D01*
X0148176Y0339311D02*
X0151247Y0339311D01*
X0151247Y0339610D02*
X0148176Y0339610D01*
X0148176Y0339908D02*
X0151247Y0339908D01*
X0151247Y0340207D02*
X0148176Y0340207D01*
X0148176Y0340505D02*
X0151247Y0340505D01*
X0151247Y0340609D02*
X0151247Y0326947D01*
X0148176Y0326947D01*
X0148176Y0330766D01*
X0146995Y0331908D01*
X0143924Y0326947D01*
X0140223Y0326947D01*
X0144908Y0333955D01*
X0140696Y0338050D01*
X0144318Y0338050D01*
X0148176Y0334073D01*
X0148176Y0342302D01*
X0151247Y0340609D01*
X0150892Y0340804D02*
X0148176Y0340804D01*
X0148176Y0341103D02*
X0150351Y0341103D01*
X0149809Y0341401D02*
X0148176Y0341401D01*
X0148176Y0341700D02*
X0149268Y0341700D01*
X0148726Y0341998D02*
X0148176Y0341998D01*
X0148176Y0342297D02*
X0148185Y0342297D01*
X0144908Y0342297D02*
X0143240Y0342297D01*
X0143018Y0342538D02*
X0142546Y0343050D01*
X0142073Y0343601D01*
X0141601Y0344113D01*
X0141207Y0344546D01*
X0140814Y0344900D01*
X0140381Y0345176D01*
X0139987Y0345372D01*
X0139514Y0345491D01*
X0138018Y0345491D01*
X0137073Y0345609D01*
X0136207Y0345884D01*
X0135420Y0346199D01*
X0134672Y0346672D01*
X0134003Y0347223D01*
X0133412Y0347853D01*
X0132861Y0348561D01*
X0132073Y0349979D01*
X0131680Y0351435D01*
X0131601Y0352813D01*
X0131798Y0354073D01*
X0132192Y0355215D01*
X0132743Y0356120D01*
X0133373Y0356790D01*
X0134042Y0357183D01*
X0134042Y0357105D01*
X0134003Y0356987D01*
X0134003Y0356554D01*
X0134081Y0356317D01*
X0134199Y0356081D01*
X0134396Y0355924D01*
X0134672Y0355806D01*
X0134908Y0355806D01*
X0135184Y0355845D01*
X0135499Y0355963D01*
X0135814Y0356120D01*
X0136089Y0356278D01*
X0136365Y0356475D01*
X0136837Y0356947D01*
X0137034Y0357223D01*
X0137192Y0357498D01*
X0137270Y0357735D01*
X0137270Y0358207D01*
X0137192Y0358443D01*
X0137073Y0358640D01*
X0136877Y0358876D01*
X0136601Y0359113D01*
X0136286Y0359270D01*
X0135932Y0359388D01*
X0135617Y0359428D01*
X0135341Y0359428D01*
X0135105Y0359388D01*
X0134948Y0359349D01*
X0134908Y0359349D01*
X0134987Y0359428D01*
X0135302Y0359664D01*
X0135774Y0359900D01*
X0136365Y0360176D01*
X0137073Y0360333D01*
X0137861Y0360372D01*
X0138727Y0360176D01*
X0139633Y0359743D01*
X0140302Y0359152D01*
X0140735Y0358522D01*
X0140932Y0357892D01*
X0140932Y0357223D01*
X0140774Y0356514D01*
X0140381Y0355845D01*
X0139869Y0355136D01*
X0139199Y0354467D01*
X0138688Y0353876D01*
X0138451Y0353286D01*
X0138412Y0352735D01*
X0138609Y0352262D01*
X0138924Y0351829D01*
X0139396Y0351554D01*
X0139987Y0351396D01*
X0140617Y0351357D01*
X0141050Y0351475D01*
X0141404Y0351632D01*
X0141680Y0351829D01*
X0141877Y0352065D01*
X0142034Y0352341D01*
X0142113Y0352577D01*
X0142113Y0352853D01*
X0142034Y0353089D01*
X0141916Y0353286D01*
X0141759Y0353443D01*
X0141365Y0353680D01*
X0141207Y0353798D01*
X0141050Y0353837D01*
X0140932Y0353916D01*
X0140892Y0353916D01*
X0140971Y0353916D01*
X0141089Y0353955D01*
X0141286Y0354034D01*
X0141562Y0354073D01*
X0142231Y0354073D01*
X0142664Y0353994D01*
X0143058Y0353876D01*
X0143451Y0353719D01*
X0143806Y0353483D01*
X0144160Y0353207D01*
X0144436Y0352813D01*
X0144633Y0352380D01*
X0144829Y0351829D01*
X0144908Y0351199D01*
X0144908Y0340333D01*
X0144869Y0340412D01*
X0144751Y0340569D01*
X0144514Y0340845D01*
X0144239Y0341199D01*
X0143885Y0341593D01*
X0143018Y0342538D01*
X0142966Y0342595D02*
X0144908Y0342595D01*
X0144908Y0342894D02*
X0142690Y0342894D01*
X0142424Y0343192D02*
X0144908Y0343192D01*
X0144908Y0343491D02*
X0142168Y0343491D01*
X0141900Y0343789D02*
X0144908Y0343789D01*
X0144908Y0344088D02*
X0141624Y0344088D01*
X0141352Y0344386D02*
X0144908Y0344386D01*
X0144908Y0344685D02*
X0141053Y0344685D01*
X0140683Y0344983D02*
X0144908Y0344983D01*
X0144908Y0345282D02*
X0140168Y0345282D01*
X0137301Y0345580D02*
X0144908Y0345580D01*
X0144908Y0345879D02*
X0136225Y0345879D01*
X0135475Y0346177D02*
X0144908Y0346177D01*
X0144908Y0346476D02*
X0134982Y0346476D01*
X0134547Y0346774D02*
X0144908Y0346774D01*
X0144908Y0347073D02*
X0134185Y0347073D01*
X0133863Y0347371D02*
X0144908Y0347371D01*
X0144908Y0347670D02*
X0133584Y0347670D01*
X0133322Y0347968D02*
X0144908Y0347968D01*
X0144908Y0348267D02*
X0133090Y0348267D01*
X0132859Y0348565D02*
X0144908Y0348565D01*
X0144908Y0348864D02*
X0132693Y0348864D01*
X0132527Y0349162D02*
X0144908Y0349162D01*
X0144908Y0349461D02*
X0132361Y0349461D01*
X0132195Y0349759D02*
X0144908Y0349759D01*
X0144908Y0350058D02*
X0132052Y0350058D01*
X0131971Y0350356D02*
X0144908Y0350356D01*
X0144908Y0350655D02*
X0131891Y0350655D01*
X0131810Y0350953D02*
X0144908Y0350953D01*
X0144902Y0351252D02*
X0131729Y0351252D01*
X0131673Y0351550D02*
X0139408Y0351550D01*
X0138909Y0351849D02*
X0131656Y0351849D01*
X0131639Y0352147D02*
X0138692Y0352147D01*
X0138532Y0352446D02*
X0131622Y0352446D01*
X0131605Y0352744D02*
X0138413Y0352744D01*
X0138434Y0353043D02*
X0131637Y0353043D01*
X0131684Y0353341D02*
X0138474Y0353341D01*
X0138593Y0353640D02*
X0131730Y0353640D01*
X0131777Y0353939D02*
X0138742Y0353939D01*
X0139000Y0354237D02*
X0131854Y0354237D01*
X0131957Y0354536D02*
X0139268Y0354536D01*
X0139567Y0354834D02*
X0132060Y0354834D01*
X0132163Y0355133D02*
X0139865Y0355133D01*
X0140082Y0355431D02*
X0132323Y0355431D01*
X0132505Y0355730D02*
X0140297Y0355730D01*
X0140488Y0356028D02*
X0135629Y0356028D01*
X0136157Y0356327D02*
X0140664Y0356327D01*
X0140799Y0356625D02*
X0136515Y0356625D01*
X0136814Y0356924D02*
X0140865Y0356924D01*
X0140932Y0357222D02*
X0137034Y0357222D01*
X0137199Y0357521D02*
X0140932Y0357521D01*
X0140932Y0357819D02*
X0137270Y0357819D01*
X0137270Y0358118D02*
X0140861Y0358118D01*
X0140768Y0358416D02*
X0137201Y0358416D01*
X0137011Y0358715D02*
X0140602Y0358715D01*
X0140397Y0359013D02*
X0136717Y0359013D01*
X0136161Y0359312D02*
X0140121Y0359312D01*
X0139782Y0359610D02*
X0135230Y0359610D01*
X0135793Y0359909D02*
X0139285Y0359909D01*
X0138588Y0360207D02*
X0136507Y0360207D01*
X0134003Y0356924D02*
X0133600Y0356924D01*
X0133218Y0356625D02*
X0134003Y0356625D01*
X0134078Y0356327D02*
X0132937Y0356327D01*
X0132687Y0356028D02*
X0134266Y0356028D01*
X0141039Y0353939D02*
X0142851Y0353939D01*
X0143570Y0353640D02*
X0141431Y0353640D01*
X0141860Y0353341D02*
X0143987Y0353341D01*
X0144275Y0353043D02*
X0142049Y0353043D01*
X0142113Y0352744D02*
X0144467Y0352744D01*
X0144603Y0352446D02*
X0142069Y0352446D01*
X0141924Y0352147D02*
X0144716Y0352147D01*
X0144822Y0351849D02*
X0141696Y0351849D01*
X0141220Y0351550D02*
X0144864Y0351550D01*
X0144908Y0341998D02*
X0143513Y0341998D01*
X0143787Y0341700D02*
X0144908Y0341700D01*
X0144908Y0341401D02*
X0144057Y0341401D01*
X0144314Y0341103D02*
X0144908Y0341103D01*
X0144908Y0340804D02*
X0144549Y0340804D01*
X0144798Y0340505D02*
X0144908Y0340505D01*
X0144541Y0337819D02*
X0140933Y0337819D01*
X0141240Y0337520D02*
X0144831Y0337520D01*
X0145121Y0337222D02*
X0141547Y0337222D01*
X0141854Y0336923D02*
X0145410Y0336923D01*
X0145700Y0336625D02*
X0142161Y0336625D01*
X0142469Y0336326D02*
X0145990Y0336326D01*
X0146279Y0336028D02*
X0142776Y0336028D01*
X0143083Y0335729D02*
X0146569Y0335729D01*
X0146859Y0335431D02*
X0143390Y0335431D01*
X0143697Y0335132D02*
X0147148Y0335132D01*
X0147438Y0334834D02*
X0144004Y0334834D01*
X0144311Y0334535D02*
X0147728Y0334535D01*
X0148017Y0334237D02*
X0144618Y0334237D01*
X0144897Y0333938D02*
X0151247Y0333938D01*
X0151247Y0333640D02*
X0144697Y0333640D01*
X0144498Y0333341D02*
X0151247Y0333341D01*
X0151247Y0333043D02*
X0144298Y0333043D01*
X0144099Y0332744D02*
X0151247Y0332744D01*
X0151247Y0332446D02*
X0143899Y0332446D01*
X0143699Y0332147D02*
X0151247Y0332147D01*
X0151247Y0331849D02*
X0147056Y0331849D01*
X0146958Y0331849D02*
X0143500Y0331849D01*
X0143300Y0331550D02*
X0146773Y0331550D01*
X0146589Y0331252D02*
X0143101Y0331252D01*
X0142901Y0330953D02*
X0146404Y0330953D01*
X0146219Y0330655D02*
X0142702Y0330655D01*
X0142502Y0330356D02*
X0146034Y0330356D01*
X0145849Y0330058D02*
X0142302Y0330058D01*
X0142103Y0329759D02*
X0145665Y0329759D01*
X0145480Y0329461D02*
X0141903Y0329461D01*
X0141704Y0329162D02*
X0145295Y0329162D01*
X0145110Y0328864D02*
X0141504Y0328864D01*
X0141305Y0328565D02*
X0144925Y0328565D01*
X0144741Y0328267D02*
X0141105Y0328267D01*
X0140906Y0327968D02*
X0144556Y0327968D01*
X0144371Y0327670D02*
X0140706Y0327670D01*
X0140506Y0327371D02*
X0144186Y0327371D01*
X0144001Y0327072D02*
X0140307Y0327072D01*
X0138373Y0327072D02*
X0135302Y0327072D01*
X0135302Y0326947D02*
X0138373Y0326947D01*
X0138373Y0336002D01*
X0141404Y0336002D01*
X0141129Y0336278D01*
X0140853Y0336514D01*
X0140617Y0336790D01*
X0140341Y0337026D01*
X0140105Y0337302D01*
X0139829Y0337538D01*
X0139318Y0338050D01*
X0138373Y0338050D01*
X0138373Y0338916D01*
X0138333Y0339624D01*
X0138136Y0340294D01*
X0137861Y0340845D01*
X0137467Y0341357D01*
X0136916Y0341750D01*
X0136286Y0342065D01*
X0135538Y0342223D01*
X0134633Y0342302D01*
X0134042Y0342302D01*
X0133845Y0342262D01*
X0133412Y0342262D01*
X0133215Y0342223D01*
X0133018Y0342223D01*
X0133018Y0339939D01*
X0133176Y0339979D01*
X0133885Y0339979D01*
X0134003Y0340018D01*
X0134160Y0340018D01*
X0134436Y0339979D01*
X0134672Y0339939D01*
X0134908Y0339861D01*
X0135066Y0339703D01*
X0135184Y0339546D01*
X0135262Y0339309D01*
X0135302Y0339034D01*
X0135302Y0338050D01*
X0133215Y0338050D01*
X0133215Y0336002D01*
X0135302Y0336002D01*
X0135302Y0326947D01*
X0135302Y0327371D02*
X0138373Y0327371D01*
X0138373Y0327670D02*
X0135302Y0327670D01*
X0135302Y0327968D02*
X0138373Y0327968D01*
X0138373Y0328267D02*
X0135302Y0328267D01*
X0135302Y0328565D02*
X0138373Y0328565D01*
X0138373Y0328864D02*
X0135302Y0328864D01*
X0135302Y0329162D02*
X0138373Y0329162D01*
X0138373Y0329461D02*
X0135302Y0329461D01*
X0135302Y0329759D02*
X0138373Y0329759D01*
X0138373Y0330058D02*
X0135302Y0330058D01*
X0135302Y0330356D02*
X0138373Y0330356D01*
X0138373Y0330655D02*
X0135302Y0330655D01*
X0135302Y0330953D02*
X0138373Y0330953D01*
X0138373Y0331252D02*
X0135302Y0331252D01*
X0135302Y0331550D02*
X0138373Y0331550D01*
X0138373Y0331849D02*
X0135302Y0331849D01*
X0135302Y0332147D02*
X0138373Y0332147D01*
X0138373Y0332446D02*
X0135302Y0332446D01*
X0135302Y0332744D02*
X0138373Y0332744D01*
X0138373Y0333043D02*
X0135302Y0333043D01*
X0135302Y0333341D02*
X0138373Y0333341D01*
X0138373Y0333640D02*
X0135302Y0333640D01*
X0135302Y0333938D02*
X0138373Y0333938D01*
X0138373Y0334237D02*
X0135302Y0334237D01*
X0135302Y0334535D02*
X0138373Y0334535D01*
X0138373Y0334834D02*
X0135302Y0334834D01*
X0135302Y0335132D02*
X0138373Y0335132D01*
X0138373Y0335431D02*
X0135302Y0335431D01*
X0135302Y0335729D02*
X0138373Y0335729D01*
X0139850Y0337520D02*
X0133215Y0337520D01*
X0133215Y0337222D02*
X0140173Y0337222D01*
X0140461Y0336923D02*
X0133215Y0336923D01*
X0133215Y0336625D02*
X0140758Y0336625D01*
X0141072Y0336326D02*
X0133215Y0336326D01*
X0133215Y0336028D02*
X0141379Y0336028D01*
X0139548Y0337819D02*
X0133215Y0337819D01*
X0132310Y0337819D02*
X0129278Y0337819D01*
X0129278Y0338050D02*
X0129278Y0331790D01*
X0129239Y0331120D01*
X0129160Y0330569D01*
X0129003Y0330097D01*
X0128806Y0329703D01*
X0128570Y0329428D01*
X0128215Y0329191D01*
X0127782Y0329073D01*
X0127310Y0329034D01*
X0126719Y0329073D01*
X0126247Y0329231D01*
X0125814Y0329467D01*
X0125499Y0329782D01*
X0125262Y0330215D01*
X0125066Y0330766D01*
X0124948Y0331435D01*
X0124948Y0338050D01*
X0121877Y0338050D01*
X0121877Y0328325D01*
X0121916Y0326947D01*
X0124829Y0326947D01*
X0124829Y0328483D01*
X0125144Y0328050D01*
X0125538Y0327656D01*
X0125932Y0327341D01*
X0126365Y0327065D01*
X0126798Y0326869D01*
X0127270Y0326750D01*
X0127782Y0326672D01*
X0128255Y0326632D01*
X0129357Y0326711D01*
X0130262Y0326947D01*
X0130971Y0327341D01*
X0131522Y0327892D01*
X0131877Y0328561D01*
X0132152Y0329349D01*
X0132270Y0330215D01*
X0132310Y0331199D01*
X0132310Y0338050D01*
X0129278Y0338050D01*
X0129278Y0337520D02*
X0132310Y0337520D01*
X0132310Y0337222D02*
X0129278Y0337222D01*
X0129278Y0336923D02*
X0132310Y0336923D01*
X0132310Y0336625D02*
X0129278Y0336625D01*
X0129278Y0336326D02*
X0132310Y0336326D01*
X0132310Y0336028D02*
X0129278Y0336028D01*
X0129278Y0335729D02*
X0132310Y0335729D01*
X0132310Y0335431D02*
X0129278Y0335431D01*
X0129278Y0335132D02*
X0132310Y0335132D01*
X0132310Y0334834D02*
X0129278Y0334834D01*
X0129278Y0334535D02*
X0132310Y0334535D01*
X0132310Y0334237D02*
X0129278Y0334237D01*
X0129278Y0333938D02*
X0132310Y0333938D01*
X0132310Y0333640D02*
X0129278Y0333640D01*
X0129278Y0333341D02*
X0132310Y0333341D01*
X0132310Y0333043D02*
X0129278Y0333043D01*
X0129278Y0332744D02*
X0132310Y0332744D01*
X0132310Y0332446D02*
X0129278Y0332446D01*
X0129278Y0332147D02*
X0132310Y0332147D01*
X0132310Y0331849D02*
X0129278Y0331849D01*
X0129264Y0331550D02*
X0132310Y0331550D01*
X0132310Y0331252D02*
X0129247Y0331252D01*
X0129215Y0330953D02*
X0132300Y0330953D01*
X0132288Y0330655D02*
X0129172Y0330655D01*
X0129089Y0330356D02*
X0132276Y0330356D01*
X0132249Y0330058D02*
X0128983Y0330058D01*
X0128834Y0329759D02*
X0132208Y0329759D01*
X0132167Y0329461D02*
X0128598Y0329461D01*
X0128108Y0329162D02*
X0132087Y0329162D01*
X0131982Y0328864D02*
X0121877Y0328864D01*
X0121877Y0329162D02*
X0126453Y0329162D01*
X0125825Y0329461D02*
X0121877Y0329461D01*
X0121877Y0329759D02*
X0125521Y0329759D01*
X0125348Y0330058D02*
X0121877Y0330058D01*
X0121877Y0330356D02*
X0125212Y0330356D01*
X0125105Y0330655D02*
X0121877Y0330655D01*
X0121877Y0330953D02*
X0125033Y0330953D01*
X0124980Y0331252D02*
X0121877Y0331252D01*
X0121877Y0331550D02*
X0124948Y0331550D01*
X0124948Y0331849D02*
X0121877Y0331849D01*
X0121877Y0332147D02*
X0124948Y0332147D01*
X0124948Y0332446D02*
X0121877Y0332446D01*
X0121877Y0332744D02*
X0124948Y0332744D01*
X0124948Y0333043D02*
X0121877Y0333043D01*
X0121877Y0333341D02*
X0124948Y0333341D01*
X0124948Y0333640D02*
X0121877Y0333640D01*
X0121877Y0333938D02*
X0124948Y0333938D01*
X0124948Y0334237D02*
X0121877Y0334237D01*
X0121877Y0334535D02*
X0124948Y0334535D01*
X0124948Y0334834D02*
X0121877Y0334834D01*
X0121877Y0335132D02*
X0124948Y0335132D01*
X0124948Y0335431D02*
X0121877Y0335431D01*
X0121877Y0335729D02*
X0124948Y0335729D01*
X0124948Y0336028D02*
X0121877Y0336028D01*
X0121877Y0336326D02*
X0124948Y0336326D01*
X0124948Y0336625D02*
X0121877Y0336625D01*
X0121877Y0336923D02*
X0124948Y0336923D01*
X0124948Y0337222D02*
X0121877Y0337222D01*
X0121877Y0337520D02*
X0124948Y0337520D01*
X0124948Y0337819D02*
X0121877Y0337819D01*
X0120230Y0337819D02*
X0117310Y0337819D01*
X0117310Y0338050D02*
X0117310Y0336514D01*
X0117270Y0336514D01*
X0116955Y0336947D01*
X0116601Y0337341D01*
X0116207Y0337656D01*
X0115774Y0337931D01*
X0115302Y0338128D01*
X0114829Y0338246D01*
X0114357Y0338325D01*
X0113885Y0338365D01*
X0112782Y0338286D01*
X0111877Y0338050D01*
X0111168Y0337656D01*
X0110617Y0337105D01*
X0110223Y0336435D01*
X0109987Y0335648D01*
X0109829Y0334782D01*
X0109790Y0333798D01*
X0109790Y0326947D01*
X0112861Y0326947D01*
X0112861Y0333207D01*
X0112900Y0333876D01*
X0112979Y0334428D01*
X0113097Y0334900D01*
X0113294Y0335294D01*
X0113570Y0335569D01*
X0113924Y0335766D01*
X0114318Y0335924D01*
X0114829Y0335963D01*
X0115381Y0335924D01*
X0115892Y0335766D01*
X0116286Y0335530D01*
X0116640Y0335215D01*
X0116877Y0334782D01*
X0117034Y0334231D01*
X0117152Y0333561D01*
X0117192Y0332774D01*
X0117192Y0326947D01*
X0120262Y0326947D01*
X0120262Y0336672D01*
X0120223Y0338050D01*
X0117310Y0338050D01*
X0117310Y0337520D02*
X0120238Y0337520D01*
X0120247Y0337222D02*
X0117310Y0337222D01*
X0117310Y0336923D02*
X0120255Y0336923D01*
X0120262Y0336625D02*
X0117310Y0336625D01*
X0117190Y0336625D02*
X0110335Y0336625D01*
X0110190Y0336326D02*
X0120262Y0336326D01*
X0120262Y0336028D02*
X0110101Y0336028D01*
X0110011Y0335729D02*
X0113858Y0335729D01*
X0113431Y0335431D02*
X0109947Y0335431D01*
X0109893Y0335132D02*
X0113213Y0335132D01*
X0113081Y0334834D02*
X0109839Y0334834D01*
X0109820Y0334535D02*
X0113006Y0334535D01*
X0112952Y0334237D02*
X0109808Y0334237D01*
X0109796Y0333938D02*
X0112909Y0333938D01*
X0112886Y0333640D02*
X0109790Y0333640D01*
X0109790Y0333341D02*
X0112869Y0333341D01*
X0112861Y0333043D02*
X0109790Y0333043D01*
X0109790Y0332744D02*
X0112861Y0332744D01*
X0112861Y0332446D02*
X0109790Y0332446D01*
X0109790Y0332147D02*
X0112861Y0332147D01*
X0112861Y0331849D02*
X0109790Y0331849D01*
X0109790Y0331550D02*
X0112861Y0331550D01*
X0112861Y0331252D02*
X0109790Y0331252D01*
X0109790Y0330953D02*
X0112861Y0330953D01*
X0112861Y0330655D02*
X0109790Y0330655D01*
X0109790Y0330356D02*
X0112861Y0330356D01*
X0112861Y0330058D02*
X0109790Y0330058D01*
X0109790Y0329759D02*
X0112861Y0329759D01*
X0112861Y0329461D02*
X0109790Y0329461D01*
X0109790Y0329162D02*
X0112861Y0329162D01*
X0112861Y0328864D02*
X0109790Y0328864D01*
X0109790Y0328565D02*
X0112861Y0328565D01*
X0112861Y0328267D02*
X0109790Y0328267D01*
X0109790Y0327968D02*
X0112861Y0327968D01*
X0112861Y0327670D02*
X0109790Y0327670D01*
X0109790Y0327371D02*
X0112861Y0327371D01*
X0112861Y0327072D02*
X0109790Y0327072D01*
X0117192Y0327072D02*
X0120262Y0327072D01*
X0120262Y0327371D02*
X0117192Y0327371D01*
X0117192Y0327670D02*
X0120262Y0327670D01*
X0120262Y0327968D02*
X0117192Y0327968D01*
X0117192Y0328267D02*
X0120262Y0328267D01*
X0120262Y0328565D02*
X0117192Y0328565D01*
X0117192Y0328864D02*
X0120262Y0328864D01*
X0120262Y0329162D02*
X0117192Y0329162D01*
X0117192Y0329461D02*
X0120262Y0329461D01*
X0120262Y0329759D02*
X0117192Y0329759D01*
X0117192Y0330058D02*
X0120262Y0330058D01*
X0120262Y0330356D02*
X0117192Y0330356D01*
X0117192Y0330655D02*
X0120262Y0330655D01*
X0120262Y0330953D02*
X0117192Y0330953D01*
X0117192Y0331252D02*
X0120262Y0331252D01*
X0120262Y0331550D02*
X0117192Y0331550D01*
X0117192Y0331849D02*
X0120262Y0331849D01*
X0120262Y0332147D02*
X0117192Y0332147D01*
X0117192Y0332446D02*
X0120262Y0332446D01*
X0120262Y0332744D02*
X0117192Y0332744D01*
X0117178Y0333043D02*
X0120262Y0333043D01*
X0120262Y0333341D02*
X0117163Y0333341D01*
X0117138Y0333640D02*
X0120262Y0333640D01*
X0120262Y0333938D02*
X0117086Y0333938D01*
X0117032Y0334237D02*
X0120262Y0334237D01*
X0120262Y0334535D02*
X0116947Y0334535D01*
X0116848Y0334834D02*
X0120262Y0334834D01*
X0120262Y0335132D02*
X0116685Y0335132D01*
X0116398Y0335431D02*
X0120262Y0335431D01*
X0120262Y0335729D02*
X0115954Y0335729D01*
X0116973Y0336923D02*
X0110510Y0336923D01*
X0110734Y0337222D02*
X0116708Y0337222D01*
X0116377Y0337520D02*
X0111032Y0337520D01*
X0111461Y0337819D02*
X0115951Y0337819D01*
X0115328Y0338117D02*
X0112137Y0338117D01*
X0121877Y0328565D02*
X0131878Y0328565D01*
X0131721Y0328267D02*
X0124987Y0328267D01*
X0124829Y0328267D02*
X0121878Y0328267D01*
X0121887Y0327968D02*
X0124829Y0327968D01*
X0124829Y0327670D02*
X0121895Y0327670D01*
X0121904Y0327371D02*
X0124829Y0327371D01*
X0124829Y0327072D02*
X0121912Y0327072D01*
X0125226Y0327968D02*
X0131562Y0327968D01*
X0131300Y0327670D02*
X0125524Y0327670D01*
X0125894Y0327371D02*
X0131001Y0327371D01*
X0130488Y0327072D02*
X0126354Y0327072D01*
X0127176Y0326774D02*
X0129598Y0326774D01*
X0135302Y0338117D02*
X0138373Y0338117D01*
X0138373Y0338416D02*
X0135302Y0338416D01*
X0135302Y0338714D02*
X0138373Y0338714D01*
X0138367Y0339013D02*
X0135302Y0339013D01*
X0135262Y0339311D02*
X0138351Y0339311D01*
X0138334Y0339610D02*
X0135135Y0339610D01*
X0134765Y0339908D02*
X0138250Y0339908D01*
X0138162Y0340207D02*
X0133018Y0340207D01*
X0133018Y0340505D02*
X0138031Y0340505D01*
X0137881Y0340804D02*
X0133018Y0340804D01*
X0133018Y0341103D02*
X0137663Y0341103D01*
X0137405Y0341401D02*
X0133018Y0341401D01*
X0133018Y0341700D02*
X0136987Y0341700D01*
X0136421Y0341998D02*
X0133018Y0341998D01*
X0134017Y0342297D02*
X0134690Y0342297D01*
X0148176Y0336326D02*
X0151247Y0336326D01*
X0151247Y0336028D02*
X0148176Y0336028D01*
X0148176Y0335729D02*
X0151247Y0335729D01*
X0151247Y0335431D02*
X0148176Y0335431D01*
X0148176Y0335132D02*
X0151247Y0335132D01*
X0151247Y0334834D02*
X0148176Y0334834D01*
X0148176Y0334535D02*
X0151247Y0334535D01*
X0151247Y0334237D02*
X0148176Y0334237D01*
X0147365Y0331550D02*
X0151247Y0331550D01*
X0151247Y0331252D02*
X0147674Y0331252D01*
X0147982Y0330953D02*
X0151247Y0330953D01*
X0151247Y0330655D02*
X0148176Y0330655D01*
X0148176Y0330356D02*
X0151247Y0330356D01*
X0151247Y0330058D02*
X0148176Y0330058D01*
X0148176Y0329759D02*
X0151247Y0329759D01*
X0151247Y0329461D02*
X0148176Y0329461D01*
X0148176Y0329162D02*
X0151247Y0329162D01*
X0151247Y0328864D02*
X0148176Y0328864D01*
X0148176Y0328565D02*
X0151247Y0328565D01*
X0151247Y0328267D02*
X0148176Y0328267D01*
X0148176Y0327968D02*
X0151247Y0327968D01*
X0151247Y0327670D02*
X0148176Y0327670D01*
X0148176Y0327371D02*
X0151247Y0327371D01*
X0151247Y0327072D02*
X0148176Y0327072D01*
D12*
X0133121Y0295892D03*
X0133121Y0289908D03*
X0093306Y0289750D03*
X0093306Y0296050D03*
X0093361Y0376750D03*
X0093361Y0383050D03*
X0133546Y0382892D03*
X0133546Y0376908D03*
X0213573Y0377065D03*
X0213573Y0382735D03*
X0213593Y0295735D03*
X0213593Y0290065D03*
D13*
X0213593Y0290380D03*
X0213593Y0295420D03*
X0173621Y0295735D03*
X0173621Y0290065D03*
X0093306Y0289908D03*
X0093306Y0295892D03*
X0093361Y0376908D03*
X0093361Y0382892D03*
X0173046Y0382235D03*
X0173046Y0376565D03*
X0213573Y0377380D03*
X0213573Y0382420D03*
D14*
X0213573Y0382105D03*
X0213573Y0377695D03*
X0173046Y0376723D03*
X0173046Y0382077D03*
X0133546Y0382420D03*
X0133546Y0377380D03*
X0093361Y0377065D03*
X0093361Y0382735D03*
X0093306Y0295735D03*
X0093306Y0290065D03*
X0133121Y0290380D03*
X0133121Y0295420D03*
X0173621Y0295577D03*
X0173621Y0290223D03*
X0213593Y0290695D03*
X0213593Y0295105D03*
D15*
X0173621Y0295262D03*
X0173621Y0290538D03*
X0133121Y0290695D03*
X0133121Y0295105D03*
X0093306Y0295577D03*
X0093306Y0290223D03*
X0093361Y0377223D03*
X0093361Y0382577D03*
X0133546Y0382105D03*
X0133546Y0377695D03*
X0173046Y0377038D03*
X0173046Y0381762D03*
D16*
X0173046Y0381605D03*
X0173046Y0377195D03*
X0093361Y0377380D03*
X0093361Y0382420D03*
X0093306Y0295420D03*
X0093306Y0290380D03*
X0173621Y0290695D03*
X0173621Y0295105D03*
D17*
X0093306Y0295262D03*
X0093306Y0290538D03*
X0093361Y0377538D03*
X0093361Y0382262D03*
D18*
X0093361Y0382105D03*
X0093361Y0377695D03*
X0093306Y0295105D03*
X0093306Y0290695D03*
D19*
X0099762Y0294947D03*
X0086849Y0290853D03*
X0166849Y0293057D03*
X0166849Y0293215D03*
X0219892Y0292585D03*
X0179818Y0379085D03*
X0179818Y0379243D03*
X0207274Y0380215D03*
X0099818Y0381947D03*
X0086904Y0377853D03*
D20*
X0095959Y0377853D03*
X0175329Y0377353D03*
X0171337Y0294947D03*
X0090707Y0294947D03*
D21*
X0086613Y0294790D03*
X0099999Y0294790D03*
X0099841Y0290853D03*
X0166770Y0292743D03*
X0166770Y0292900D03*
X0179896Y0379400D03*
X0179896Y0379557D03*
X0100054Y0378010D03*
X0086668Y0378010D03*
X0086825Y0381947D03*
D22*
X0089503Y0380845D03*
X0091077Y0381947D03*
X0093282Y0381475D03*
X0093282Y0381317D03*
X0093597Y0378640D03*
X0091077Y0378010D03*
X0097377Y0379270D03*
X0097377Y0380687D03*
X0129530Y0380530D03*
X0131420Y0379743D03*
X0131577Y0380057D03*
X0131735Y0380372D03*
X0133625Y0379270D03*
X0135829Y0379270D03*
X0137404Y0380530D03*
X0168873Y0380187D03*
X0170290Y0379085D03*
X0172495Y0378613D03*
X0172495Y0380345D03*
X0175014Y0378770D03*
X0175014Y0378613D03*
X0209873Y0380687D03*
X0211920Y0378325D03*
X0215227Y0381947D03*
X0168924Y0321243D03*
X0167192Y0321085D03*
X0167192Y0320455D03*
X0163885Y0320455D03*
X0163885Y0321085D03*
X0161995Y0321243D03*
X0159790Y0321243D03*
X0159633Y0320298D03*
X0158845Y0319353D03*
X0157900Y0320298D03*
X0157900Y0321243D03*
X0156325Y0321243D03*
X0152388Y0321243D03*
X0149711Y0321085D03*
X0149554Y0321243D03*
X0149711Y0320455D03*
X0149554Y0320298D03*
X0147822Y0320298D03*
X0147822Y0321243D03*
X0142782Y0321085D03*
X0171652Y0293687D03*
X0171652Y0293530D03*
X0174172Y0293687D03*
X0174172Y0291955D03*
X0176377Y0293215D03*
X0177794Y0292113D03*
X0211940Y0290853D03*
X0215247Y0294475D03*
X0217294Y0292113D03*
X0137136Y0292270D03*
X0135247Y0293057D03*
X0135089Y0292743D03*
X0134932Y0292428D03*
X0133042Y0293530D03*
X0130837Y0293530D03*
X0129262Y0292270D03*
X0097164Y0291955D03*
X0095589Y0290853D03*
X0093385Y0291325D03*
X0093385Y0291483D03*
X0093070Y0294160D03*
X0095589Y0294790D03*
X0089290Y0293530D03*
X0089290Y0292113D03*
D23*
X0093227Y0290853D03*
X0093227Y0294790D03*
X0130522Y0293372D03*
X0133042Y0294160D03*
X0148766Y0319510D03*
X0148766Y0322030D03*
X0151444Y0320455D03*
X0158845Y0319510D03*
X0158845Y0322030D03*
X0168136Y0318250D03*
X0176692Y0293372D03*
X0170077Y0291325D03*
X0215247Y0291010D03*
X0216192Y0293372D03*
X0210975Y0379428D03*
X0211920Y0381790D03*
X0176589Y0380975D03*
X0169975Y0378928D03*
X0136144Y0379428D03*
X0133625Y0378640D03*
X0093440Y0378010D03*
X0093440Y0381947D03*
D24*
X0092967Y0380530D03*
X0093912Y0379428D03*
X0095487Y0378010D03*
X0097062Y0381002D03*
X0095487Y0381790D03*
X0091235Y0381632D03*
X0091235Y0379585D03*
X0091235Y0378798D03*
X0091235Y0378640D03*
X0091235Y0378483D03*
X0091235Y0378325D03*
X0131105Y0378325D03*
X0131262Y0378640D03*
X0131420Y0378955D03*
X0131420Y0379113D03*
X0135829Y0378798D03*
X0135829Y0378640D03*
X0135987Y0378325D03*
X0169030Y0378298D03*
X0170605Y0378140D03*
X0170605Y0377983D03*
X0170605Y0377825D03*
X0170605Y0379400D03*
X0170605Y0380975D03*
X0172337Y0380502D03*
X0174227Y0380817D03*
X0174227Y0380975D03*
X0174385Y0380660D03*
X0174699Y0380030D03*
X0174857Y0379715D03*
X0174857Y0379557D03*
X0176589Y0379715D03*
X0210030Y0378798D03*
X0211762Y0380845D03*
X0211762Y0381002D03*
X0215385Y0380845D03*
X0215385Y0378955D03*
X0215385Y0378168D03*
X0153806Y0320298D03*
X0152546Y0320140D03*
X0135562Y0294475D03*
X0135404Y0294160D03*
X0135247Y0293845D03*
X0135247Y0293687D03*
X0130837Y0294002D03*
X0130837Y0294160D03*
X0130680Y0294475D03*
X0095432Y0294475D03*
X0095432Y0294317D03*
X0095432Y0294160D03*
X0095432Y0294002D03*
X0095432Y0293215D03*
X0093699Y0292270D03*
X0092755Y0293372D03*
X0091180Y0294790D03*
X0089605Y0291798D03*
X0091180Y0291010D03*
X0095432Y0291168D03*
X0170077Y0292585D03*
X0171810Y0292585D03*
X0171810Y0292743D03*
X0171967Y0292270D03*
X0172282Y0291640D03*
X0172440Y0291483D03*
X0172440Y0291325D03*
X0174329Y0291798D03*
X0176062Y0291325D03*
X0176062Y0292900D03*
X0176062Y0294160D03*
X0176062Y0294317D03*
X0176062Y0294475D03*
X0177636Y0294002D03*
X0211782Y0293845D03*
X0211782Y0294632D03*
X0211782Y0291955D03*
X0215404Y0291955D03*
X0215404Y0291798D03*
X0217136Y0294002D03*
D25*
X0219499Y0294947D03*
X0220129Y0292900D03*
X0180629Y0292900D03*
X0179999Y0294947D03*
X0166613Y0292270D03*
X0166613Y0292113D03*
X0139971Y0293530D03*
X0139341Y0294947D03*
X0126900Y0294947D03*
X0126270Y0292900D03*
X0100314Y0294475D03*
X0100156Y0294632D03*
X0086455Y0294632D03*
X0086298Y0294475D03*
X0086510Y0378168D03*
X0086353Y0378325D03*
X0100211Y0378168D03*
X0100369Y0378325D03*
X0126696Y0379270D03*
X0127325Y0377853D03*
X0139766Y0377853D03*
X0140396Y0379900D03*
X0166038Y0379400D03*
X0166668Y0377353D03*
X0180054Y0380030D03*
X0180054Y0380187D03*
X0207038Y0379900D03*
X0207668Y0377853D03*
D26*
X0211369Y0379743D03*
X0211841Y0381160D03*
X0211841Y0381317D03*
X0213888Y0381002D03*
X0215306Y0379113D03*
X0174936Y0379243D03*
X0174936Y0379400D03*
X0170526Y0379243D03*
X0170526Y0378298D03*
X0170526Y0377668D03*
X0170526Y0381132D03*
X0137483Y0381002D03*
X0137483Y0378955D03*
X0136066Y0378168D03*
X0135751Y0378955D03*
X0135751Y0379113D03*
X0133546Y0379743D03*
X0133546Y0379900D03*
X0131499Y0379270D03*
X0131026Y0378168D03*
X0129609Y0378955D03*
X0129609Y0381002D03*
X0095408Y0381947D03*
X0093046Y0380845D03*
X0093046Y0380687D03*
X0093833Y0379270D03*
X0091156Y0378955D03*
X0091156Y0378168D03*
X0089581Y0381002D03*
X0137507Y0323605D03*
X0138609Y0322187D03*
X0138609Y0319353D03*
X0137507Y0319353D03*
X0140814Y0319353D03*
X0142861Y0319353D03*
X0144278Y0319353D03*
X0145538Y0319353D03*
X0146325Y0322187D03*
X0144278Y0322187D03*
X0142861Y0322187D03*
X0141601Y0322187D03*
X0153885Y0319353D03*
X0156404Y0319353D03*
X0156404Y0322187D03*
X0163806Y0322187D03*
X0164908Y0322187D03*
X0167113Y0322187D03*
X0164908Y0319353D03*
X0163806Y0319353D03*
X0176140Y0294632D03*
X0176140Y0294002D03*
X0176140Y0293057D03*
X0176140Y0291168D03*
X0171731Y0292900D03*
X0171731Y0293057D03*
X0137058Y0293845D03*
X0135640Y0294632D03*
X0135168Y0293530D03*
X0133121Y0293057D03*
X0133121Y0292900D03*
X0130916Y0293687D03*
X0130916Y0293845D03*
X0130601Y0294632D03*
X0129184Y0293845D03*
X0129184Y0291798D03*
X0137058Y0291798D03*
X0097085Y0291798D03*
X0095510Y0293845D03*
X0095510Y0294632D03*
X0092833Y0293530D03*
X0093621Y0292113D03*
X0093621Y0291955D03*
X0091259Y0290853D03*
X0211861Y0293687D03*
X0213278Y0291798D03*
X0215325Y0291640D03*
X0215325Y0291483D03*
X0215798Y0293057D03*
D27*
X0215247Y0291168D03*
X0213199Y0293687D03*
X0174014Y0293372D03*
X0174014Y0293215D03*
X0174014Y0292585D03*
X0174014Y0292428D03*
X0174014Y0292270D03*
X0171652Y0293845D03*
X0171652Y0294002D03*
X0170077Y0291640D03*
X0161522Y0319668D03*
X0161522Y0319825D03*
X0161680Y0320140D03*
X0151759Y0319353D03*
X0151759Y0322187D03*
X0133042Y0293845D03*
X0131310Y0292270D03*
X0131467Y0291955D03*
X0131467Y0291798D03*
X0134774Y0291798D03*
X0134774Y0291955D03*
X0135247Y0292900D03*
X0097322Y0292428D03*
X0097322Y0292270D03*
X0093227Y0294632D03*
X0089133Y0293215D03*
X0089133Y0293057D03*
X0089133Y0292900D03*
X0089133Y0292743D03*
X0089133Y0292585D03*
X0093440Y0378168D03*
X0097534Y0379585D03*
X0097534Y0379743D03*
X0097534Y0379900D03*
X0097534Y0380057D03*
X0097534Y0380215D03*
X0089345Y0380372D03*
X0089345Y0380530D03*
X0131420Y0379900D03*
X0131892Y0380845D03*
X0131892Y0381002D03*
X0133625Y0378955D03*
X0135357Y0380530D03*
X0135199Y0380845D03*
X0135199Y0381002D03*
X0172652Y0380030D03*
X0172652Y0379872D03*
X0172652Y0379715D03*
X0172652Y0379085D03*
X0172652Y0378928D03*
X0175014Y0378455D03*
X0175014Y0378298D03*
X0176589Y0380660D03*
X0211920Y0381632D03*
X0213967Y0379113D03*
D28*
X0215463Y0378798D03*
X0215463Y0378325D03*
X0215463Y0381002D03*
X0215463Y0381160D03*
X0215463Y0381632D03*
X0211684Y0380687D03*
X0211684Y0380530D03*
X0211684Y0380372D03*
X0211526Y0380057D03*
X0211526Y0379900D03*
X0176510Y0379557D03*
X0174778Y0379872D03*
X0174621Y0380187D03*
X0174621Y0380345D03*
X0174463Y0380502D03*
X0170684Y0380502D03*
X0170684Y0380345D03*
X0170684Y0380660D03*
X0170684Y0380817D03*
X0170684Y0380030D03*
X0170684Y0379872D03*
X0170684Y0379715D03*
X0170684Y0379557D03*
X0135908Y0378483D03*
X0133546Y0380057D03*
X0133546Y0380215D03*
X0131341Y0378798D03*
X0131184Y0378483D03*
X0095408Y0378483D03*
X0095408Y0378640D03*
X0095408Y0378798D03*
X0095408Y0378955D03*
X0095408Y0379113D03*
X0095408Y0379270D03*
X0095408Y0379428D03*
X0095408Y0379585D03*
X0095408Y0379743D03*
X0095408Y0379900D03*
X0095408Y0380057D03*
X0095408Y0380215D03*
X0095408Y0380372D03*
X0095408Y0380530D03*
X0095408Y0380687D03*
X0095408Y0380845D03*
X0095408Y0381002D03*
X0095408Y0381160D03*
X0095408Y0381317D03*
X0095408Y0381475D03*
X0095408Y0381632D03*
X0093991Y0379743D03*
X0093991Y0379585D03*
X0092888Y0380372D03*
X0091314Y0380372D03*
X0091314Y0380215D03*
X0091314Y0380057D03*
X0091314Y0379900D03*
X0091314Y0379743D03*
X0091314Y0380530D03*
X0091314Y0380687D03*
X0091314Y0380845D03*
X0091314Y0381002D03*
X0091314Y0381160D03*
X0091314Y0381317D03*
X0091314Y0381475D03*
X0095408Y0378325D03*
X0095408Y0378168D03*
X0153885Y0321085D03*
X0168845Y0319038D03*
X0170156Y0292743D03*
X0171888Y0292428D03*
X0172046Y0292113D03*
X0172046Y0291955D03*
X0172203Y0291798D03*
X0175983Y0291798D03*
X0175983Y0291955D03*
X0175983Y0291640D03*
X0175983Y0291483D03*
X0175983Y0292270D03*
X0175983Y0292428D03*
X0175983Y0292585D03*
X0175983Y0292743D03*
X0211703Y0291798D03*
X0211703Y0291640D03*
X0211703Y0291168D03*
X0211703Y0294002D03*
X0211703Y0294475D03*
X0215640Y0292900D03*
X0215640Y0292743D03*
X0215483Y0292428D03*
X0215483Y0292270D03*
X0215483Y0292113D03*
X0135483Y0294317D03*
X0135325Y0294002D03*
X0133121Y0292743D03*
X0133121Y0292585D03*
X0130759Y0294317D03*
X0095353Y0293057D03*
X0095353Y0292900D03*
X0095353Y0292743D03*
X0095353Y0292585D03*
X0095353Y0292428D03*
X0095353Y0292270D03*
X0095353Y0292113D03*
X0095353Y0291955D03*
X0095353Y0291798D03*
X0095353Y0291640D03*
X0095353Y0291483D03*
X0095353Y0291325D03*
X0093778Y0292428D03*
X0092676Y0293057D03*
X0092676Y0293215D03*
X0091259Y0293215D03*
X0091259Y0293372D03*
X0091259Y0293530D03*
X0091259Y0293687D03*
X0091259Y0293845D03*
X0091259Y0294002D03*
X0091259Y0294160D03*
X0091259Y0294317D03*
X0091259Y0294475D03*
X0091259Y0294632D03*
X0091259Y0293057D03*
X0091259Y0292900D03*
X0091259Y0292743D03*
X0091259Y0292585D03*
X0091259Y0292428D03*
X0091259Y0292270D03*
X0091259Y0292113D03*
X0091259Y0291955D03*
X0091259Y0291798D03*
X0091259Y0291640D03*
X0091259Y0291483D03*
X0091259Y0291325D03*
X0091259Y0291168D03*
D29*
X0093306Y0291168D03*
X0093148Y0294317D03*
X0093148Y0294475D03*
X0089211Y0293372D03*
X0089211Y0292428D03*
X0089211Y0292270D03*
X0097243Y0292113D03*
X0131388Y0292113D03*
X0133121Y0293687D03*
X0135010Y0292585D03*
X0134853Y0292270D03*
X0134853Y0292113D03*
X0148688Y0319353D03*
X0151207Y0320298D03*
X0148688Y0322187D03*
X0158766Y0322187D03*
X0161444Y0319510D03*
X0167270Y0321243D03*
X0174093Y0293530D03*
X0174093Y0292113D03*
X0176298Y0290853D03*
X0213278Y0291955D03*
X0172573Y0378770D03*
X0172573Y0380187D03*
X0170369Y0381447D03*
X0135278Y0380687D03*
X0133546Y0379113D03*
X0131656Y0380215D03*
X0131814Y0380530D03*
X0131814Y0380687D03*
X0097455Y0380530D03*
X0097455Y0380372D03*
X0097455Y0379428D03*
X0093518Y0378483D03*
X0093518Y0378325D03*
X0093361Y0381632D03*
X0089424Y0380687D03*
X0213888Y0380845D03*
D30*
X0207510Y0381947D03*
X0207353Y0381790D03*
X0206881Y0379585D03*
X0206881Y0379428D03*
X0206881Y0379270D03*
X0206881Y0379113D03*
X0207353Y0378010D03*
X0180054Y0380345D03*
X0180054Y0380502D03*
X0166353Y0381290D03*
X0165881Y0378928D03*
X0165881Y0378770D03*
X0165881Y0378613D03*
X0140554Y0379428D03*
X0140554Y0379585D03*
X0140554Y0380057D03*
X0140554Y0380215D03*
X0139924Y0381947D03*
X0140081Y0378010D03*
X0127010Y0378010D03*
X0126538Y0379113D03*
X0126538Y0380530D03*
X0127168Y0381947D03*
X0100841Y0380687D03*
X0100684Y0381002D03*
X0100684Y0381160D03*
X0100526Y0381317D03*
X0100841Y0379113D03*
X0100684Y0378798D03*
X0086196Y0378483D03*
X0086038Y0378798D03*
X0085881Y0379113D03*
X0085881Y0379270D03*
X0085881Y0380530D03*
X0085881Y0380687D03*
X0086038Y0381002D03*
X0086038Y0381160D03*
X0086196Y0381317D03*
X0085983Y0294002D03*
X0085825Y0293687D03*
X0085825Y0292113D03*
X0085983Y0291798D03*
X0085983Y0291640D03*
X0086140Y0291483D03*
X0100471Y0291483D03*
X0100629Y0291640D03*
X0100629Y0291798D03*
X0100786Y0292113D03*
X0100786Y0292270D03*
X0100786Y0293530D03*
X0100786Y0293687D03*
X0100629Y0294002D03*
X0100471Y0294317D03*
X0126113Y0293372D03*
X0126113Y0293215D03*
X0126113Y0292743D03*
X0126113Y0292585D03*
X0126743Y0290853D03*
X0126585Y0294790D03*
X0139656Y0294790D03*
X0140129Y0293687D03*
X0140129Y0292270D03*
X0139499Y0290853D03*
X0166613Y0291798D03*
X0166613Y0291955D03*
X0180314Y0291010D03*
X0180786Y0293372D03*
X0180786Y0293530D03*
X0180786Y0293687D03*
X0219656Y0290853D03*
X0219814Y0291010D03*
X0220286Y0293215D03*
X0220286Y0293372D03*
X0220286Y0293530D03*
X0220286Y0293687D03*
X0219814Y0294790D03*
D31*
X0220207Y0293057D03*
X0220207Y0292113D03*
X0180707Y0292113D03*
X0180707Y0293057D03*
X0180707Y0293215D03*
X0180235Y0294790D03*
X0180077Y0290853D03*
X0126192Y0293057D03*
X0100550Y0294160D03*
X0100392Y0291325D03*
X0100235Y0291168D03*
X0086377Y0291168D03*
X0086219Y0291325D03*
X0086062Y0294160D03*
X0086219Y0294317D03*
X0086117Y0378640D03*
X0086274Y0381475D03*
X0086432Y0381632D03*
X0100290Y0381632D03*
X0100448Y0381475D03*
X0100605Y0378640D03*
X0100448Y0378483D03*
X0140475Y0379743D03*
X0165959Y0380187D03*
X0165959Y0379243D03*
X0165959Y0379085D03*
X0166432Y0377510D03*
X0166589Y0381447D03*
X0206959Y0380687D03*
X0206959Y0379743D03*
D32*
X0209951Y0380845D03*
X0211211Y0379585D03*
X0211526Y0378955D03*
X0211684Y0378640D03*
X0211841Y0378483D03*
X0213888Y0378955D03*
X0215306Y0378010D03*
X0211841Y0381475D03*
X0173991Y0381290D03*
X0168951Y0380345D03*
X0170369Y0377510D03*
X0137483Y0379113D03*
X0137325Y0379270D03*
X0137483Y0380687D03*
X0137483Y0380845D03*
X0136066Y0378010D03*
X0133546Y0379428D03*
X0133546Y0379585D03*
X0131499Y0379585D03*
X0131026Y0378010D03*
X0129609Y0379113D03*
X0129451Y0379270D03*
X0129609Y0380687D03*
X0129609Y0380845D03*
X0097298Y0380845D03*
X0097298Y0379113D03*
X0093676Y0378798D03*
X0093203Y0381160D03*
X0089581Y0378955D03*
X0088951Y0379585D03*
X0137507Y0323290D03*
X0137507Y0323132D03*
X0137507Y0322975D03*
X0137507Y0322817D03*
X0137507Y0322660D03*
X0137507Y0322502D03*
X0137507Y0322345D03*
X0137507Y0322187D03*
X0137507Y0321085D03*
X0137507Y0320928D03*
X0137507Y0320770D03*
X0137507Y0320613D03*
X0137507Y0320455D03*
X0139396Y0320455D03*
X0139396Y0320613D03*
X0139396Y0320928D03*
X0139396Y0321085D03*
X0140814Y0320928D03*
X0140814Y0320770D03*
X0140814Y0320613D03*
X0140814Y0320455D03*
X0140814Y0320298D03*
X0140814Y0320140D03*
X0140814Y0319983D03*
X0140814Y0319825D03*
X0140814Y0319668D03*
X0140971Y0321085D03*
X0142861Y0320928D03*
X0142861Y0320770D03*
X0142861Y0320613D03*
X0142861Y0320455D03*
X0142861Y0320298D03*
X0142861Y0320140D03*
X0142861Y0319983D03*
X0142861Y0319825D03*
X0142861Y0319668D03*
X0142861Y0319510D03*
X0144278Y0320455D03*
X0144278Y0320613D03*
X0144278Y0320770D03*
X0144278Y0320928D03*
X0144278Y0321085D03*
X0144278Y0321243D03*
X0144278Y0321400D03*
X0144278Y0321557D03*
X0144278Y0321715D03*
X0144278Y0321872D03*
X0144278Y0322030D03*
X0146168Y0320455D03*
X0147743Y0320455D03*
X0147743Y0320613D03*
X0147743Y0321085D03*
X0149790Y0320928D03*
X0149790Y0320770D03*
X0149790Y0320613D03*
X0153885Y0319983D03*
X0153885Y0319825D03*
X0153885Y0319668D03*
X0153885Y0319510D03*
X0153885Y0321400D03*
X0153885Y0321557D03*
X0153885Y0321715D03*
X0153885Y0321872D03*
X0156404Y0321085D03*
X0156404Y0320928D03*
X0156404Y0320770D03*
X0156404Y0320613D03*
X0156404Y0320455D03*
X0156404Y0320298D03*
X0156404Y0320140D03*
X0156404Y0319983D03*
X0156404Y0319825D03*
X0156404Y0319668D03*
X0156404Y0319510D03*
X0157822Y0320455D03*
X0157822Y0320613D03*
X0157822Y0320770D03*
X0157822Y0320928D03*
X0157822Y0321085D03*
X0159869Y0321085D03*
X0159869Y0320928D03*
X0159869Y0320770D03*
X0159869Y0320613D03*
X0159869Y0320455D03*
X0161916Y0320455D03*
X0161916Y0320298D03*
X0161916Y0320613D03*
X0161916Y0320770D03*
X0161916Y0320928D03*
X0161916Y0321085D03*
X0161916Y0322345D03*
X0161916Y0322502D03*
X0161916Y0322660D03*
X0161916Y0322817D03*
X0161916Y0322975D03*
X0163806Y0320928D03*
X0163806Y0320770D03*
X0163806Y0320613D03*
X0165696Y0320455D03*
X0165853Y0320770D03*
X0165696Y0321085D03*
X0167113Y0320928D03*
X0167113Y0320770D03*
X0167113Y0320613D03*
X0167113Y0319353D03*
X0167113Y0319195D03*
X0167270Y0319038D03*
X0169003Y0320455D03*
X0169003Y0321085D03*
X0176298Y0294790D03*
X0177715Y0291955D03*
X0172676Y0291010D03*
X0137215Y0293530D03*
X0137058Y0293687D03*
X0137058Y0292113D03*
X0137058Y0291955D03*
X0135168Y0293215D03*
X0135640Y0294790D03*
X0133121Y0293372D03*
X0133121Y0293215D03*
X0130601Y0294790D03*
X0129341Y0293530D03*
X0129184Y0293687D03*
X0129184Y0292113D03*
X0129184Y0291955D03*
X0097715Y0293215D03*
X0097085Y0293845D03*
X0092991Y0294002D03*
X0093463Y0291640D03*
X0089369Y0291955D03*
X0089369Y0293687D03*
X0211861Y0294790D03*
X0213278Y0293845D03*
X0215325Y0294317D03*
X0215483Y0294160D03*
X0215640Y0293845D03*
X0215955Y0293215D03*
X0217215Y0291955D03*
X0215325Y0291325D03*
D33*
X0215168Y0294947D03*
X0219892Y0294632D03*
X0220050Y0294475D03*
X0220050Y0294317D03*
X0220207Y0294160D03*
X0220207Y0294002D03*
X0220207Y0293845D03*
X0220207Y0291955D03*
X0220207Y0291798D03*
X0180707Y0291798D03*
X0180707Y0291955D03*
X0180707Y0291640D03*
X0180550Y0291325D03*
X0180707Y0293845D03*
X0180707Y0294002D03*
X0180707Y0294160D03*
X0180550Y0294317D03*
X0180550Y0294475D03*
X0180392Y0294632D03*
X0166534Y0291640D03*
X0140207Y0292113D03*
X0139735Y0291010D03*
X0140050Y0293845D03*
X0140050Y0294002D03*
X0140050Y0294160D03*
X0139892Y0294475D03*
X0139735Y0294632D03*
X0126507Y0294632D03*
X0126349Y0294475D03*
X0126192Y0294160D03*
X0126034Y0293687D03*
X0126034Y0293530D03*
X0126034Y0292428D03*
X0126034Y0292270D03*
X0126034Y0292113D03*
X0126507Y0291010D03*
X0100865Y0292428D03*
X0100865Y0292585D03*
X0100865Y0292743D03*
X0100865Y0292900D03*
X0100865Y0293057D03*
X0100865Y0293215D03*
X0100865Y0293372D03*
X0100707Y0293845D03*
X0100707Y0291955D03*
X0085904Y0291955D03*
X0085747Y0292270D03*
X0085747Y0292428D03*
X0085747Y0292585D03*
X0085747Y0292743D03*
X0085747Y0292900D03*
X0085747Y0293057D03*
X0085747Y0293215D03*
X0085747Y0293372D03*
X0085747Y0293530D03*
X0085904Y0293845D03*
X0085959Y0378955D03*
X0085802Y0379428D03*
X0085802Y0379585D03*
X0085802Y0379743D03*
X0085802Y0379900D03*
X0085802Y0380057D03*
X0085802Y0380215D03*
X0085802Y0380372D03*
X0085959Y0380845D03*
X0100762Y0380845D03*
X0100920Y0380530D03*
X0100920Y0380372D03*
X0100920Y0380215D03*
X0100920Y0380057D03*
X0100920Y0379900D03*
X0100920Y0379743D03*
X0100920Y0379585D03*
X0100920Y0379428D03*
X0100920Y0379270D03*
X0100762Y0378955D03*
X0126459Y0380687D03*
X0126932Y0381790D03*
X0126617Y0378955D03*
X0126617Y0378798D03*
X0126617Y0378640D03*
X0126774Y0378325D03*
X0126932Y0378168D03*
X0140160Y0378168D03*
X0140318Y0378325D03*
X0140475Y0378640D03*
X0140633Y0379113D03*
X0140633Y0379270D03*
X0140633Y0380372D03*
X0140633Y0380530D03*
X0140633Y0380687D03*
X0140160Y0381790D03*
X0165959Y0380660D03*
X0165959Y0380502D03*
X0165959Y0380345D03*
X0166117Y0380975D03*
X0165959Y0378455D03*
X0165959Y0378298D03*
X0165959Y0378140D03*
X0166117Y0377983D03*
X0166117Y0377825D03*
X0166274Y0377668D03*
X0180133Y0380660D03*
X0206959Y0380845D03*
X0206959Y0381002D03*
X0206959Y0378955D03*
X0206959Y0378798D03*
X0206959Y0378640D03*
X0207117Y0378483D03*
X0207117Y0378325D03*
X0207274Y0378168D03*
X0211999Y0377853D03*
D34*
X0211605Y0378798D03*
X0210030Y0378955D03*
X0210030Y0381002D03*
X0215385Y0381790D03*
X0175014Y0379085D03*
X0175014Y0378928D03*
X0174070Y0381132D03*
X0172337Y0378455D03*
X0170448Y0378455D03*
X0169030Y0378455D03*
X0169030Y0380502D03*
X0170448Y0381290D03*
X0131420Y0379428D03*
X0097219Y0378955D03*
X0093755Y0378955D03*
X0093755Y0379113D03*
X0093125Y0381002D03*
X0091235Y0381790D03*
X0088873Y0380215D03*
X0088873Y0380057D03*
X0088873Y0379900D03*
X0088873Y0379743D03*
X0137428Y0323447D03*
X0139475Y0320770D03*
X0140892Y0319510D03*
X0146247Y0320613D03*
X0146247Y0320770D03*
X0146247Y0320928D03*
X0146247Y0321085D03*
X0146247Y0321243D03*
X0146247Y0321400D03*
X0146247Y0321557D03*
X0146247Y0321715D03*
X0146247Y0321872D03*
X0146247Y0322030D03*
X0147664Y0320928D03*
X0147664Y0320770D03*
X0150971Y0320140D03*
X0152546Y0321400D03*
X0153806Y0321243D03*
X0153806Y0322030D03*
X0155223Y0322187D03*
X0153806Y0320140D03*
X0161365Y0319353D03*
X0161995Y0323132D03*
X0165774Y0320928D03*
X0165774Y0320613D03*
X0168294Y0322187D03*
X0169081Y0320928D03*
X0169081Y0320770D03*
X0169081Y0320613D03*
X0174329Y0293845D03*
X0176219Y0293845D03*
X0177636Y0293845D03*
X0177636Y0291798D03*
X0176219Y0291010D03*
X0172597Y0291168D03*
X0171652Y0293215D03*
X0171652Y0293372D03*
X0135247Y0293372D03*
X0097794Y0293057D03*
X0097794Y0292900D03*
X0097794Y0292743D03*
X0097794Y0292585D03*
X0095432Y0291010D03*
X0093542Y0291798D03*
X0092912Y0293687D03*
X0092912Y0293845D03*
X0089448Y0293845D03*
X0211782Y0291010D03*
X0215562Y0294002D03*
X0217136Y0293845D03*
X0217136Y0291798D03*
D35*
X0212885Y0292270D03*
X0212885Y0292428D03*
X0212885Y0292585D03*
X0212885Y0292743D03*
X0212885Y0292900D03*
X0212885Y0293057D03*
X0212885Y0293215D03*
X0212885Y0293372D03*
X0207215Y0290853D03*
X0207058Y0291010D03*
X0207058Y0291168D03*
X0166613Y0291168D03*
X0166613Y0291010D03*
X0167979Y0319983D03*
X0167979Y0320140D03*
X0167979Y0321557D03*
X0164672Y0321557D03*
X0164672Y0319983D03*
X0158845Y0319983D03*
X0158845Y0320140D03*
X0158845Y0321400D03*
X0158845Y0321557D03*
X0145144Y0319983D03*
X0145144Y0319825D03*
X0141995Y0321557D03*
X0141995Y0321715D03*
X0138373Y0321557D03*
X0138373Y0321400D03*
X0138373Y0320140D03*
X0138373Y0319983D03*
X0096534Y0293687D03*
X0090133Y0379113D03*
X0180054Y0381132D03*
X0180054Y0381290D03*
X0214282Y0380530D03*
X0214282Y0380372D03*
X0214282Y0380215D03*
X0214282Y0380057D03*
X0214282Y0379900D03*
X0214282Y0379743D03*
X0214282Y0379585D03*
X0214282Y0379428D03*
X0219951Y0381947D03*
X0220109Y0381790D03*
X0220109Y0381632D03*
D36*
X0220188Y0381475D03*
X0220188Y0381317D03*
X0180133Y0380975D03*
X0179818Y0381447D03*
X0140475Y0381317D03*
X0136223Y0380372D03*
X0135278Y0381947D03*
X0131814Y0381947D03*
X0126617Y0381317D03*
X0090054Y0379428D03*
X0090054Y0379270D03*
X0138451Y0321243D03*
X0138451Y0320298D03*
X0141916Y0321243D03*
X0141916Y0321400D03*
X0145223Y0320298D03*
X0145223Y0320140D03*
X0148688Y0320140D03*
X0148688Y0321400D03*
X0164751Y0321400D03*
X0164751Y0321243D03*
X0164751Y0320298D03*
X0164751Y0320140D03*
X0168058Y0320298D03*
X0168058Y0321400D03*
X0166534Y0291325D03*
X0166849Y0290853D03*
X0140050Y0291483D03*
X0134853Y0290853D03*
X0131388Y0290853D03*
X0130444Y0292428D03*
X0126192Y0291483D03*
X0096613Y0293372D03*
X0096613Y0293530D03*
X0206979Y0291483D03*
X0206979Y0291325D03*
D37*
X0158766Y0319195D03*
X0152625Y0320298D03*
X0151837Y0319195D03*
X0148688Y0319195D03*
X0133121Y0292428D03*
X0133121Y0292270D03*
X0093936Y0292900D03*
X0092518Y0292743D03*
X0092731Y0379900D03*
X0094148Y0380057D03*
X0133546Y0380372D03*
X0133546Y0380530D03*
D38*
X0129688Y0378798D03*
X0137562Y0378798D03*
X0170762Y0380187D03*
X0176589Y0379400D03*
X0176589Y0379243D03*
X0211605Y0380215D03*
X0215542Y0381317D03*
X0215542Y0381475D03*
X0215542Y0378640D03*
X0215542Y0378483D03*
X0161995Y0323290D03*
X0161050Y0321243D03*
X0158845Y0322345D03*
X0155066Y0321243D03*
X0151759Y0322345D03*
X0151129Y0321400D03*
X0148766Y0322345D03*
X0168294Y0319353D03*
X0170077Y0293057D03*
X0170077Y0292900D03*
X0175904Y0292113D03*
X0211625Y0291483D03*
X0211625Y0291325D03*
X0211625Y0294160D03*
X0211625Y0294317D03*
X0215562Y0292585D03*
X0136979Y0294002D03*
X0129105Y0294002D03*
X0093857Y0292743D03*
X0093857Y0292585D03*
X0092597Y0292900D03*
X0094070Y0379900D03*
X0092810Y0380057D03*
X0092810Y0380215D03*
D39*
X0100133Y0381790D03*
X0086589Y0381790D03*
X0166117Y0379557D03*
X0179975Y0379715D03*
X0179975Y0379872D03*
X0207117Y0380057D03*
X0220050Y0292743D03*
X0180550Y0292743D03*
X0166692Y0292585D03*
X0166692Y0292428D03*
X0100077Y0291010D03*
X0086534Y0291010D03*
D40*
X0093306Y0291010D03*
X0131546Y0291483D03*
X0131546Y0291640D03*
X0133121Y0294002D03*
X0134696Y0291640D03*
X0134696Y0291483D03*
X0161601Y0319983D03*
X0151995Y0321085D03*
X0171731Y0294160D03*
X0173936Y0293057D03*
X0173936Y0292900D03*
X0173936Y0292743D03*
X0172833Y0290853D03*
X0170156Y0291483D03*
X0215168Y0294632D03*
X0211999Y0378168D03*
X0176510Y0380817D03*
X0173833Y0381447D03*
X0172731Y0379557D03*
X0172731Y0379400D03*
X0172731Y0379243D03*
X0174936Y0378140D03*
X0135121Y0381160D03*
X0135121Y0381317D03*
X0133546Y0378798D03*
X0131971Y0381160D03*
X0131971Y0381317D03*
X0093361Y0381790D03*
D41*
X0133546Y0383050D03*
X0133546Y0376750D03*
X0133121Y0296050D03*
X0133121Y0289750D03*
D42*
X0133121Y0290065D03*
X0133121Y0295735D03*
X0213593Y0295577D03*
X0213593Y0290223D03*
X0213573Y0377223D03*
X0213573Y0382577D03*
X0133546Y0382735D03*
X0133546Y0377065D03*
D43*
X0133546Y0377223D03*
X0133546Y0382577D03*
X0213573Y0382262D03*
X0213573Y0377538D03*
X0213593Y0295262D03*
X0213593Y0290538D03*
X0133121Y0290223D03*
X0133121Y0295577D03*
D44*
X0133121Y0295262D03*
X0133121Y0290538D03*
X0173621Y0290380D03*
X0173621Y0295420D03*
X0173046Y0376880D03*
X0173046Y0381920D03*
X0133546Y0382262D03*
X0133546Y0377538D03*
D45*
X0133546Y0377853D03*
X0133121Y0294947D03*
X0209341Y0294947D03*
X0217825Y0377853D03*
D46*
X0211999Y0378010D03*
X0210739Y0379113D03*
X0176510Y0381447D03*
X0169739Y0378613D03*
X0135908Y0380215D03*
X0133546Y0378168D03*
X0133546Y0378010D03*
X0138136Y0322030D03*
X0138136Y0319510D03*
X0148688Y0321872D03*
X0151837Y0319668D03*
X0155774Y0321557D03*
X0155774Y0321715D03*
X0155774Y0321872D03*
X0155774Y0322030D03*
X0161759Y0322030D03*
X0161759Y0321872D03*
X0161759Y0321715D03*
X0161759Y0321557D03*
X0161759Y0321400D03*
X0164436Y0322030D03*
X0164436Y0319510D03*
X0167743Y0319510D03*
X0176928Y0293687D03*
X0170156Y0290853D03*
X0133121Y0294632D03*
X0133121Y0294790D03*
X0130759Y0292585D03*
X0215168Y0294790D03*
X0216428Y0293687D03*
D47*
X0171731Y0294317D03*
X0170156Y0291168D03*
X0151837Y0319510D03*
X0151680Y0320613D03*
X0151680Y0320770D03*
X0151837Y0320928D03*
X0151680Y0322030D03*
X0161759Y0322187D03*
X0133121Y0294475D03*
X0133121Y0294317D03*
X0130601Y0293215D03*
X0130601Y0293057D03*
X0131546Y0291325D03*
X0134696Y0291325D03*
X0133546Y0378325D03*
X0133546Y0378483D03*
X0136066Y0379585D03*
X0136066Y0379743D03*
X0135121Y0381475D03*
X0131971Y0381475D03*
X0174936Y0377983D03*
X0176510Y0381132D03*
D48*
X0180054Y0380817D03*
X0174699Y0377510D03*
X0166196Y0381132D03*
X0166038Y0380817D03*
X0140554Y0380845D03*
X0140554Y0381002D03*
X0140554Y0381160D03*
X0140396Y0381475D03*
X0140239Y0381632D03*
X0140554Y0378955D03*
X0140554Y0378798D03*
X0140396Y0378483D03*
X0126696Y0378483D03*
X0126538Y0380845D03*
X0126538Y0381002D03*
X0126538Y0381160D03*
X0126696Y0381475D03*
X0126853Y0381632D03*
X0206881Y0381160D03*
X0207038Y0381317D03*
X0207038Y0381475D03*
X0207196Y0381632D03*
X0171967Y0294790D03*
X0166613Y0291483D03*
X0180471Y0291168D03*
X0180629Y0291483D03*
X0219971Y0291168D03*
X0220129Y0291325D03*
X0220129Y0291483D03*
X0220286Y0291640D03*
X0140129Y0291640D03*
X0140129Y0291798D03*
X0140129Y0291955D03*
X0139971Y0291325D03*
X0139814Y0291168D03*
X0139971Y0294317D03*
X0126270Y0294317D03*
X0126113Y0294002D03*
X0126113Y0293845D03*
X0126113Y0291955D03*
X0126113Y0291798D03*
X0126113Y0291640D03*
X0126270Y0291325D03*
X0126428Y0291168D03*
D49*
X0139656Y0292585D03*
X0139656Y0292743D03*
X0139656Y0292900D03*
X0139656Y0293057D03*
X0139656Y0293215D03*
X0139656Y0293372D03*
X0166928Y0293372D03*
X0166928Y0293530D03*
X0167085Y0293845D03*
X0167085Y0294002D03*
X0167243Y0294317D03*
X0167400Y0294632D03*
X0180314Y0292585D03*
X0179266Y0377668D03*
X0179424Y0377983D03*
X0179581Y0378298D03*
X0179581Y0378455D03*
X0179739Y0378770D03*
X0179739Y0378928D03*
X0166353Y0379715D03*
X0127010Y0379743D03*
X0127010Y0379900D03*
X0127010Y0380057D03*
X0127010Y0380215D03*
X0127010Y0379585D03*
X0127010Y0379428D03*
D50*
X0131892Y0381632D03*
X0135199Y0381632D03*
X0135987Y0380057D03*
X0135987Y0379900D03*
X0169818Y0378770D03*
X0174857Y0377825D03*
X0176589Y0381290D03*
X0210818Y0379270D03*
X0167822Y0322030D03*
X0168136Y0318408D03*
X0158845Y0319668D03*
X0158845Y0321872D03*
X0155853Y0321400D03*
X0151916Y0321557D03*
X0151759Y0321715D03*
X0151759Y0321872D03*
X0148766Y0319668D03*
X0171810Y0294475D03*
X0170077Y0291010D03*
X0176849Y0293530D03*
X0216349Y0293530D03*
X0134774Y0291168D03*
X0131467Y0291168D03*
X0130680Y0292743D03*
X0130680Y0292900D03*
D51*
X0139341Y0292428D03*
X0207845Y0291955D03*
X0207845Y0291798D03*
X0207845Y0291640D03*
X0207845Y0293845D03*
X0207845Y0294002D03*
X0207845Y0294160D03*
X0219322Y0378640D03*
X0219322Y0378798D03*
X0219322Y0378955D03*
X0219322Y0380845D03*
X0219322Y0381002D03*
X0219322Y0381160D03*
X0127325Y0380372D03*
D52*
X0131892Y0381790D03*
X0135199Y0381790D03*
X0138215Y0321872D03*
X0138215Y0319668D03*
X0142152Y0322030D03*
X0144987Y0319510D03*
X0148766Y0319825D03*
X0148766Y0321715D03*
X0151759Y0319983D03*
X0151759Y0319825D03*
X0158845Y0319825D03*
X0158845Y0321715D03*
X0164514Y0321872D03*
X0164514Y0319668D03*
X0167822Y0319668D03*
X0167979Y0318880D03*
X0168136Y0318565D03*
X0134774Y0291010D03*
X0131467Y0291010D03*
X0215247Y0290853D03*
X0211920Y0381947D03*
D53*
X0213573Y0382892D03*
X0213573Y0376908D03*
X0173046Y0376250D03*
X0173046Y0382550D03*
X0173621Y0296050D03*
X0173621Y0289750D03*
X0213593Y0289908D03*
X0213593Y0295892D03*
D54*
X0173621Y0295892D03*
X0173621Y0289908D03*
X0173046Y0376408D03*
X0173046Y0382392D03*
D55*
X0179188Y0377510D03*
X0179345Y0377825D03*
X0179503Y0378140D03*
X0179660Y0378613D03*
X0167479Y0294790D03*
X0167322Y0294475D03*
X0167164Y0294160D03*
X0167007Y0293687D03*
D56*
X0171888Y0294632D03*
X0168058Y0318723D03*
X0167900Y0319825D03*
X0167900Y0321715D03*
X0167900Y0321872D03*
X0164593Y0321715D03*
X0164593Y0319825D03*
X0148688Y0319983D03*
X0148688Y0321557D03*
X0145066Y0319668D03*
X0142073Y0321872D03*
X0138294Y0321715D03*
X0138294Y0319825D03*
X0174778Y0377668D03*
X0214361Y0379270D03*
X0214361Y0380687D03*
X0212806Y0293530D03*
X0212806Y0292113D03*
D57*
X0208081Y0294632D03*
X0208081Y0294790D03*
X0207924Y0294475D03*
X0207924Y0294317D03*
X0219577Y0292428D03*
X0180077Y0292428D03*
X0219085Y0378010D03*
X0219085Y0378168D03*
X0219243Y0378325D03*
X0219243Y0378483D03*
X0207589Y0380372D03*
X0166589Y0379872D03*
D58*
X0166825Y0380030D03*
X0179841Y0292270D03*
D59*
X0213593Y0289750D03*
X0213593Y0296050D03*
X0213573Y0376750D03*
X0213573Y0383050D03*
D60*
X0219400Y0380687D03*
X0219400Y0380530D03*
X0219400Y0380372D03*
X0219400Y0380215D03*
X0219400Y0380057D03*
X0219400Y0379900D03*
X0219400Y0379743D03*
X0219400Y0379585D03*
X0219400Y0379428D03*
X0219400Y0379270D03*
X0219400Y0379113D03*
X0207747Y0380530D03*
X0207766Y0293687D03*
X0207766Y0293530D03*
X0207766Y0293372D03*
X0207766Y0293215D03*
X0207766Y0293057D03*
X0207766Y0292900D03*
X0207766Y0292743D03*
X0207766Y0292585D03*
X0207766Y0292428D03*
X0207766Y0292270D03*
X0207766Y0292113D03*
X0219420Y0292270D03*
M02*
