G75*
%MOIN*%
%OFA0B0*%
%FSLAX25Y25*%
%IPPOS*%
%LPD*%
%AMOC8*
5,1,8,0,0,1.08239X$1,22.5*
%
%ADD10R,0.04331X0.03937*%
%ADD11R,0.01575X0.01575*%
%ADD12R,0.06299X0.07087*%
%ADD13R,0.07087X0.06299*%
%ADD14R,0.03150X0.03150*%
%ADD15R,0.03268X0.02480*%
%ADD16R,0.03150X0.03937*%
%ADD17R,0.05906X0.02756*%
%ADD18R,0.03445X0.00984*%
%ADD19R,0.03543X0.03150*%
%ADD20R,0.03937X0.04331*%
%ADD21R,0.04724X0.02362*%
D10*
X0149987Y0291400D03*
X0156680Y0291400D03*
X0156680Y0311400D03*
X0149987Y0311400D03*
X0134180Y0316400D03*
X0134180Y0323900D03*
X0127487Y0323900D03*
X0127487Y0316400D03*
X0116680Y0318900D03*
X0109987Y0318900D03*
X0109987Y0326400D03*
X0116680Y0326400D03*
X0116680Y0336400D03*
X0109987Y0336400D03*
X0109987Y0343900D03*
X0116680Y0343900D03*
X0127487Y0346400D03*
X0127487Y0338900D03*
X0134180Y0338900D03*
X0134180Y0346400D03*
X0134180Y0353900D03*
X0127487Y0353900D03*
X0127487Y0361400D03*
X0134180Y0361400D03*
X0149987Y0356400D03*
X0156680Y0356400D03*
X0174987Y0353900D03*
X0181680Y0353900D03*
X0181680Y0346400D03*
X0174987Y0346400D03*
X0174987Y0338900D03*
X0181680Y0338900D03*
X0181680Y0331400D03*
X0174987Y0331400D03*
X0174987Y0323900D03*
X0181680Y0323900D03*
X0181680Y0316400D03*
X0174987Y0316400D03*
X0174987Y0308900D03*
X0181680Y0308900D03*
X0181680Y0301400D03*
X0174987Y0301400D03*
X0189987Y0291400D03*
X0196680Y0291400D03*
X0134180Y0331400D03*
X0127487Y0331400D03*
X0116680Y0298900D03*
X0109987Y0298900D03*
D11*
X0130833Y0306144D03*
X0130833Y0311656D03*
X0138333Y0311656D03*
X0138333Y0306144D03*
D12*
X0147822Y0301400D03*
X0158845Y0301400D03*
D13*
X0113333Y0350888D03*
X0113333Y0361912D03*
D14*
X0110381Y0306400D03*
X0116286Y0306400D03*
D15*
X0118833Y0293928D03*
X0118833Y0284872D03*
X0153333Y0275928D03*
X0153333Y0266872D03*
X0193333Y0266872D03*
X0193333Y0275928D03*
D16*
X0097664Y0311124D03*
X0089003Y0311124D03*
X0089003Y0351676D03*
X0097664Y0351676D03*
D17*
X0100223Y0343211D03*
X0100223Y0337306D03*
X0100223Y0325494D03*
X0100223Y0319589D03*
D18*
X0145213Y0362463D03*
X0145213Y0364431D03*
X0145213Y0366400D03*
X0145213Y0368369D03*
X0145213Y0370337D03*
X0161453Y0370337D03*
X0161453Y0368369D03*
X0161453Y0366400D03*
X0161453Y0364431D03*
X0161453Y0362463D03*
D19*
X0112770Y0293140D03*
X0112770Y0285660D03*
X0104503Y0289400D03*
D20*
X0113333Y0268054D03*
X0113333Y0274746D03*
X0153333Y0388054D03*
X0153333Y0394746D03*
D21*
X0142310Y0348900D03*
X0142310Y0343900D03*
X0142310Y0338900D03*
X0142310Y0333900D03*
X0142310Y0328900D03*
X0142310Y0323900D03*
X0142310Y0318900D03*
X0164357Y0318900D03*
X0164357Y0323900D03*
X0164357Y0328900D03*
X0164357Y0333900D03*
X0164357Y0338900D03*
X0164357Y0343900D03*
X0164357Y0348900D03*
M02*
