G75*
%MOIN*%
%OFA0B0*%
%FSLAX25Y25*%
%IPPOS*%
%LPD*%
%AMOC8*
5,1,8,0,0,1.08239X$1,22.5*
%
%ADD10C,0.00800*%
%ADD11C,0.00000*%
D10*
X0078333Y0261400D02*
X0078333Y0306400D01*
X0088333Y0316400D01*
X0088333Y0346400D01*
X0078333Y0356400D01*
X0078333Y0411400D01*
X0228333Y0411400D01*
X0228333Y0261400D01*
X0078333Y0261400D01*
D11*
X0091561Y0321557D02*
X0091563Y0321641D01*
X0091569Y0321724D01*
X0091579Y0321807D01*
X0091593Y0321890D01*
X0091610Y0321972D01*
X0091632Y0322053D01*
X0091657Y0322132D01*
X0091686Y0322211D01*
X0091719Y0322288D01*
X0091755Y0322363D01*
X0091795Y0322437D01*
X0091838Y0322509D01*
X0091885Y0322578D01*
X0091935Y0322645D01*
X0091988Y0322710D01*
X0092044Y0322772D01*
X0092102Y0322832D01*
X0092164Y0322889D01*
X0092228Y0322942D01*
X0092295Y0322993D01*
X0092364Y0323040D01*
X0092435Y0323085D01*
X0092508Y0323125D01*
X0092583Y0323162D01*
X0092660Y0323196D01*
X0092738Y0323226D01*
X0092817Y0323252D01*
X0092898Y0323275D01*
X0092980Y0323293D01*
X0093062Y0323308D01*
X0093145Y0323319D01*
X0093228Y0323326D01*
X0093312Y0323329D01*
X0093396Y0323328D01*
X0093479Y0323323D01*
X0093563Y0323314D01*
X0093645Y0323301D01*
X0093727Y0323285D01*
X0093808Y0323264D01*
X0093889Y0323240D01*
X0093967Y0323212D01*
X0094045Y0323180D01*
X0094121Y0323144D01*
X0094195Y0323105D01*
X0094267Y0323063D01*
X0094337Y0323017D01*
X0094405Y0322968D01*
X0094470Y0322916D01*
X0094533Y0322861D01*
X0094593Y0322803D01*
X0094651Y0322742D01*
X0094705Y0322678D01*
X0094757Y0322612D01*
X0094805Y0322544D01*
X0094850Y0322473D01*
X0094891Y0322400D01*
X0094930Y0322326D01*
X0094964Y0322250D01*
X0094995Y0322172D01*
X0095022Y0322093D01*
X0095046Y0322012D01*
X0095065Y0321931D01*
X0095081Y0321849D01*
X0095093Y0321766D01*
X0095101Y0321682D01*
X0095105Y0321599D01*
X0095105Y0321515D01*
X0095101Y0321432D01*
X0095093Y0321348D01*
X0095081Y0321265D01*
X0095065Y0321183D01*
X0095046Y0321102D01*
X0095022Y0321021D01*
X0094995Y0320942D01*
X0094964Y0320864D01*
X0094930Y0320788D01*
X0094891Y0320714D01*
X0094850Y0320641D01*
X0094805Y0320570D01*
X0094757Y0320502D01*
X0094705Y0320436D01*
X0094651Y0320372D01*
X0094593Y0320311D01*
X0094533Y0320253D01*
X0094470Y0320198D01*
X0094405Y0320146D01*
X0094337Y0320097D01*
X0094267Y0320051D01*
X0094195Y0320009D01*
X0094121Y0319970D01*
X0094045Y0319934D01*
X0093967Y0319902D01*
X0093889Y0319874D01*
X0093808Y0319850D01*
X0093727Y0319829D01*
X0093645Y0319813D01*
X0093563Y0319800D01*
X0093479Y0319791D01*
X0093396Y0319786D01*
X0093312Y0319785D01*
X0093228Y0319788D01*
X0093145Y0319795D01*
X0093062Y0319806D01*
X0092980Y0319821D01*
X0092898Y0319839D01*
X0092817Y0319862D01*
X0092738Y0319888D01*
X0092660Y0319918D01*
X0092583Y0319952D01*
X0092508Y0319989D01*
X0092435Y0320029D01*
X0092364Y0320074D01*
X0092295Y0320121D01*
X0092228Y0320172D01*
X0092164Y0320225D01*
X0092102Y0320282D01*
X0092044Y0320342D01*
X0091988Y0320404D01*
X0091935Y0320469D01*
X0091885Y0320536D01*
X0091838Y0320605D01*
X0091795Y0320677D01*
X0091755Y0320751D01*
X0091719Y0320826D01*
X0091686Y0320903D01*
X0091657Y0320982D01*
X0091632Y0321061D01*
X0091610Y0321142D01*
X0091593Y0321224D01*
X0091579Y0321307D01*
X0091569Y0321390D01*
X0091563Y0321473D01*
X0091561Y0321557D01*
X0091561Y0341243D02*
X0091563Y0341327D01*
X0091569Y0341410D01*
X0091579Y0341493D01*
X0091593Y0341576D01*
X0091610Y0341658D01*
X0091632Y0341739D01*
X0091657Y0341818D01*
X0091686Y0341897D01*
X0091719Y0341974D01*
X0091755Y0342049D01*
X0091795Y0342123D01*
X0091838Y0342195D01*
X0091885Y0342264D01*
X0091935Y0342331D01*
X0091988Y0342396D01*
X0092044Y0342458D01*
X0092102Y0342518D01*
X0092164Y0342575D01*
X0092228Y0342628D01*
X0092295Y0342679D01*
X0092364Y0342726D01*
X0092435Y0342771D01*
X0092508Y0342811D01*
X0092583Y0342848D01*
X0092660Y0342882D01*
X0092738Y0342912D01*
X0092817Y0342938D01*
X0092898Y0342961D01*
X0092980Y0342979D01*
X0093062Y0342994D01*
X0093145Y0343005D01*
X0093228Y0343012D01*
X0093312Y0343015D01*
X0093396Y0343014D01*
X0093479Y0343009D01*
X0093563Y0343000D01*
X0093645Y0342987D01*
X0093727Y0342971D01*
X0093808Y0342950D01*
X0093889Y0342926D01*
X0093967Y0342898D01*
X0094045Y0342866D01*
X0094121Y0342830D01*
X0094195Y0342791D01*
X0094267Y0342749D01*
X0094337Y0342703D01*
X0094405Y0342654D01*
X0094470Y0342602D01*
X0094533Y0342547D01*
X0094593Y0342489D01*
X0094651Y0342428D01*
X0094705Y0342364D01*
X0094757Y0342298D01*
X0094805Y0342230D01*
X0094850Y0342159D01*
X0094891Y0342086D01*
X0094930Y0342012D01*
X0094964Y0341936D01*
X0094995Y0341858D01*
X0095022Y0341779D01*
X0095046Y0341698D01*
X0095065Y0341617D01*
X0095081Y0341535D01*
X0095093Y0341452D01*
X0095101Y0341368D01*
X0095105Y0341285D01*
X0095105Y0341201D01*
X0095101Y0341118D01*
X0095093Y0341034D01*
X0095081Y0340951D01*
X0095065Y0340869D01*
X0095046Y0340788D01*
X0095022Y0340707D01*
X0094995Y0340628D01*
X0094964Y0340550D01*
X0094930Y0340474D01*
X0094891Y0340400D01*
X0094850Y0340327D01*
X0094805Y0340256D01*
X0094757Y0340188D01*
X0094705Y0340122D01*
X0094651Y0340058D01*
X0094593Y0339997D01*
X0094533Y0339939D01*
X0094470Y0339884D01*
X0094405Y0339832D01*
X0094337Y0339783D01*
X0094267Y0339737D01*
X0094195Y0339695D01*
X0094121Y0339656D01*
X0094045Y0339620D01*
X0093967Y0339588D01*
X0093889Y0339560D01*
X0093808Y0339536D01*
X0093727Y0339515D01*
X0093645Y0339499D01*
X0093563Y0339486D01*
X0093479Y0339477D01*
X0093396Y0339472D01*
X0093312Y0339471D01*
X0093228Y0339474D01*
X0093145Y0339481D01*
X0093062Y0339492D01*
X0092980Y0339507D01*
X0092898Y0339525D01*
X0092817Y0339548D01*
X0092738Y0339574D01*
X0092660Y0339604D01*
X0092583Y0339638D01*
X0092508Y0339675D01*
X0092435Y0339715D01*
X0092364Y0339760D01*
X0092295Y0339807D01*
X0092228Y0339858D01*
X0092164Y0339911D01*
X0092102Y0339968D01*
X0092044Y0340028D01*
X0091988Y0340090D01*
X0091935Y0340155D01*
X0091885Y0340222D01*
X0091838Y0340291D01*
X0091795Y0340363D01*
X0091755Y0340437D01*
X0091719Y0340512D01*
X0091686Y0340589D01*
X0091657Y0340668D01*
X0091632Y0340747D01*
X0091610Y0340828D01*
X0091593Y0340910D01*
X0091579Y0340993D01*
X0091569Y0341076D01*
X0091563Y0341159D01*
X0091561Y0341243D01*
X0082333Y0368900D02*
X0082335Y0369054D01*
X0082341Y0369209D01*
X0082351Y0369363D01*
X0082365Y0369517D01*
X0082383Y0369670D01*
X0082404Y0369823D01*
X0082430Y0369976D01*
X0082460Y0370127D01*
X0082493Y0370278D01*
X0082531Y0370428D01*
X0082572Y0370577D01*
X0082617Y0370725D01*
X0082666Y0370871D01*
X0082719Y0371017D01*
X0082775Y0371160D01*
X0082835Y0371303D01*
X0082899Y0371443D01*
X0082966Y0371583D01*
X0083037Y0371720D01*
X0083111Y0371855D01*
X0083189Y0371989D01*
X0083270Y0372120D01*
X0083355Y0372249D01*
X0083443Y0372377D01*
X0083534Y0372501D01*
X0083628Y0372624D01*
X0083726Y0372744D01*
X0083826Y0372861D01*
X0083930Y0372976D01*
X0084036Y0373088D01*
X0084145Y0373197D01*
X0084257Y0373303D01*
X0084372Y0373407D01*
X0084489Y0373507D01*
X0084609Y0373605D01*
X0084732Y0373699D01*
X0084856Y0373790D01*
X0084984Y0373878D01*
X0085113Y0373963D01*
X0085244Y0374044D01*
X0085378Y0374122D01*
X0085513Y0374196D01*
X0085650Y0374267D01*
X0085790Y0374334D01*
X0085930Y0374398D01*
X0086073Y0374458D01*
X0086216Y0374514D01*
X0086362Y0374567D01*
X0086508Y0374616D01*
X0086656Y0374661D01*
X0086805Y0374702D01*
X0086955Y0374740D01*
X0087106Y0374773D01*
X0087257Y0374803D01*
X0087410Y0374829D01*
X0087563Y0374850D01*
X0087716Y0374868D01*
X0087870Y0374882D01*
X0088024Y0374892D01*
X0088179Y0374898D01*
X0088333Y0374900D01*
X0088487Y0374898D01*
X0088642Y0374892D01*
X0088796Y0374882D01*
X0088950Y0374868D01*
X0089103Y0374850D01*
X0089256Y0374829D01*
X0089409Y0374803D01*
X0089560Y0374773D01*
X0089711Y0374740D01*
X0089861Y0374702D01*
X0090010Y0374661D01*
X0090158Y0374616D01*
X0090304Y0374567D01*
X0090450Y0374514D01*
X0090593Y0374458D01*
X0090736Y0374398D01*
X0090876Y0374334D01*
X0091016Y0374267D01*
X0091153Y0374196D01*
X0091288Y0374122D01*
X0091422Y0374044D01*
X0091553Y0373963D01*
X0091682Y0373878D01*
X0091810Y0373790D01*
X0091934Y0373699D01*
X0092057Y0373605D01*
X0092177Y0373507D01*
X0092294Y0373407D01*
X0092409Y0373303D01*
X0092521Y0373197D01*
X0092630Y0373088D01*
X0092736Y0372976D01*
X0092840Y0372861D01*
X0092940Y0372744D01*
X0093038Y0372624D01*
X0093132Y0372501D01*
X0093223Y0372377D01*
X0093311Y0372249D01*
X0093396Y0372120D01*
X0093477Y0371989D01*
X0093555Y0371855D01*
X0093629Y0371720D01*
X0093700Y0371583D01*
X0093767Y0371443D01*
X0093831Y0371303D01*
X0093891Y0371160D01*
X0093947Y0371017D01*
X0094000Y0370871D01*
X0094049Y0370725D01*
X0094094Y0370577D01*
X0094135Y0370428D01*
X0094173Y0370278D01*
X0094206Y0370127D01*
X0094236Y0369976D01*
X0094262Y0369823D01*
X0094283Y0369670D01*
X0094301Y0369517D01*
X0094315Y0369363D01*
X0094325Y0369209D01*
X0094331Y0369054D01*
X0094333Y0368900D01*
X0094331Y0368746D01*
X0094325Y0368591D01*
X0094315Y0368437D01*
X0094301Y0368283D01*
X0094283Y0368130D01*
X0094262Y0367977D01*
X0094236Y0367824D01*
X0094206Y0367673D01*
X0094173Y0367522D01*
X0094135Y0367372D01*
X0094094Y0367223D01*
X0094049Y0367075D01*
X0094000Y0366929D01*
X0093947Y0366783D01*
X0093891Y0366640D01*
X0093831Y0366497D01*
X0093767Y0366357D01*
X0093700Y0366217D01*
X0093629Y0366080D01*
X0093555Y0365945D01*
X0093477Y0365811D01*
X0093396Y0365680D01*
X0093311Y0365551D01*
X0093223Y0365423D01*
X0093132Y0365299D01*
X0093038Y0365176D01*
X0092940Y0365056D01*
X0092840Y0364939D01*
X0092736Y0364824D01*
X0092630Y0364712D01*
X0092521Y0364603D01*
X0092409Y0364497D01*
X0092294Y0364393D01*
X0092177Y0364293D01*
X0092057Y0364195D01*
X0091934Y0364101D01*
X0091810Y0364010D01*
X0091682Y0363922D01*
X0091553Y0363837D01*
X0091422Y0363756D01*
X0091288Y0363678D01*
X0091153Y0363604D01*
X0091016Y0363533D01*
X0090876Y0363466D01*
X0090736Y0363402D01*
X0090593Y0363342D01*
X0090450Y0363286D01*
X0090304Y0363233D01*
X0090158Y0363184D01*
X0090010Y0363139D01*
X0089861Y0363098D01*
X0089711Y0363060D01*
X0089560Y0363027D01*
X0089409Y0362997D01*
X0089256Y0362971D01*
X0089103Y0362950D01*
X0088950Y0362932D01*
X0088796Y0362918D01*
X0088642Y0362908D01*
X0088487Y0362902D01*
X0088333Y0362900D01*
X0088179Y0362902D01*
X0088024Y0362908D01*
X0087870Y0362918D01*
X0087716Y0362932D01*
X0087563Y0362950D01*
X0087410Y0362971D01*
X0087257Y0362997D01*
X0087106Y0363027D01*
X0086955Y0363060D01*
X0086805Y0363098D01*
X0086656Y0363139D01*
X0086508Y0363184D01*
X0086362Y0363233D01*
X0086216Y0363286D01*
X0086073Y0363342D01*
X0085930Y0363402D01*
X0085790Y0363466D01*
X0085650Y0363533D01*
X0085513Y0363604D01*
X0085378Y0363678D01*
X0085244Y0363756D01*
X0085113Y0363837D01*
X0084984Y0363922D01*
X0084856Y0364010D01*
X0084732Y0364101D01*
X0084609Y0364195D01*
X0084489Y0364293D01*
X0084372Y0364393D01*
X0084257Y0364497D01*
X0084145Y0364603D01*
X0084036Y0364712D01*
X0083930Y0364824D01*
X0083826Y0364939D01*
X0083726Y0365056D01*
X0083628Y0365176D01*
X0083534Y0365299D01*
X0083443Y0365423D01*
X0083355Y0365551D01*
X0083270Y0365680D01*
X0083189Y0365811D01*
X0083111Y0365945D01*
X0083037Y0366080D01*
X0082966Y0366217D01*
X0082899Y0366357D01*
X0082835Y0366497D01*
X0082775Y0366640D01*
X0082719Y0366783D01*
X0082666Y0366929D01*
X0082617Y0367075D01*
X0082572Y0367223D01*
X0082531Y0367372D01*
X0082493Y0367522D01*
X0082460Y0367673D01*
X0082430Y0367824D01*
X0082404Y0367977D01*
X0082383Y0368130D01*
X0082365Y0368283D01*
X0082351Y0368437D01*
X0082341Y0368591D01*
X0082335Y0368746D01*
X0082333Y0368900D01*
X0212333Y0368900D02*
X0212335Y0369054D01*
X0212341Y0369209D01*
X0212351Y0369363D01*
X0212365Y0369517D01*
X0212383Y0369670D01*
X0212404Y0369823D01*
X0212430Y0369976D01*
X0212460Y0370127D01*
X0212493Y0370278D01*
X0212531Y0370428D01*
X0212572Y0370577D01*
X0212617Y0370725D01*
X0212666Y0370871D01*
X0212719Y0371017D01*
X0212775Y0371160D01*
X0212835Y0371303D01*
X0212899Y0371443D01*
X0212966Y0371583D01*
X0213037Y0371720D01*
X0213111Y0371855D01*
X0213189Y0371989D01*
X0213270Y0372120D01*
X0213355Y0372249D01*
X0213443Y0372377D01*
X0213534Y0372501D01*
X0213628Y0372624D01*
X0213726Y0372744D01*
X0213826Y0372861D01*
X0213930Y0372976D01*
X0214036Y0373088D01*
X0214145Y0373197D01*
X0214257Y0373303D01*
X0214372Y0373407D01*
X0214489Y0373507D01*
X0214609Y0373605D01*
X0214732Y0373699D01*
X0214856Y0373790D01*
X0214984Y0373878D01*
X0215113Y0373963D01*
X0215244Y0374044D01*
X0215378Y0374122D01*
X0215513Y0374196D01*
X0215650Y0374267D01*
X0215790Y0374334D01*
X0215930Y0374398D01*
X0216073Y0374458D01*
X0216216Y0374514D01*
X0216362Y0374567D01*
X0216508Y0374616D01*
X0216656Y0374661D01*
X0216805Y0374702D01*
X0216955Y0374740D01*
X0217106Y0374773D01*
X0217257Y0374803D01*
X0217410Y0374829D01*
X0217563Y0374850D01*
X0217716Y0374868D01*
X0217870Y0374882D01*
X0218024Y0374892D01*
X0218179Y0374898D01*
X0218333Y0374900D01*
X0218487Y0374898D01*
X0218642Y0374892D01*
X0218796Y0374882D01*
X0218950Y0374868D01*
X0219103Y0374850D01*
X0219256Y0374829D01*
X0219409Y0374803D01*
X0219560Y0374773D01*
X0219711Y0374740D01*
X0219861Y0374702D01*
X0220010Y0374661D01*
X0220158Y0374616D01*
X0220304Y0374567D01*
X0220450Y0374514D01*
X0220593Y0374458D01*
X0220736Y0374398D01*
X0220876Y0374334D01*
X0221016Y0374267D01*
X0221153Y0374196D01*
X0221288Y0374122D01*
X0221422Y0374044D01*
X0221553Y0373963D01*
X0221682Y0373878D01*
X0221810Y0373790D01*
X0221934Y0373699D01*
X0222057Y0373605D01*
X0222177Y0373507D01*
X0222294Y0373407D01*
X0222409Y0373303D01*
X0222521Y0373197D01*
X0222630Y0373088D01*
X0222736Y0372976D01*
X0222840Y0372861D01*
X0222940Y0372744D01*
X0223038Y0372624D01*
X0223132Y0372501D01*
X0223223Y0372377D01*
X0223311Y0372249D01*
X0223396Y0372120D01*
X0223477Y0371989D01*
X0223555Y0371855D01*
X0223629Y0371720D01*
X0223700Y0371583D01*
X0223767Y0371443D01*
X0223831Y0371303D01*
X0223891Y0371160D01*
X0223947Y0371017D01*
X0224000Y0370871D01*
X0224049Y0370725D01*
X0224094Y0370577D01*
X0224135Y0370428D01*
X0224173Y0370278D01*
X0224206Y0370127D01*
X0224236Y0369976D01*
X0224262Y0369823D01*
X0224283Y0369670D01*
X0224301Y0369517D01*
X0224315Y0369363D01*
X0224325Y0369209D01*
X0224331Y0369054D01*
X0224333Y0368900D01*
X0224331Y0368746D01*
X0224325Y0368591D01*
X0224315Y0368437D01*
X0224301Y0368283D01*
X0224283Y0368130D01*
X0224262Y0367977D01*
X0224236Y0367824D01*
X0224206Y0367673D01*
X0224173Y0367522D01*
X0224135Y0367372D01*
X0224094Y0367223D01*
X0224049Y0367075D01*
X0224000Y0366929D01*
X0223947Y0366783D01*
X0223891Y0366640D01*
X0223831Y0366497D01*
X0223767Y0366357D01*
X0223700Y0366217D01*
X0223629Y0366080D01*
X0223555Y0365945D01*
X0223477Y0365811D01*
X0223396Y0365680D01*
X0223311Y0365551D01*
X0223223Y0365423D01*
X0223132Y0365299D01*
X0223038Y0365176D01*
X0222940Y0365056D01*
X0222840Y0364939D01*
X0222736Y0364824D01*
X0222630Y0364712D01*
X0222521Y0364603D01*
X0222409Y0364497D01*
X0222294Y0364393D01*
X0222177Y0364293D01*
X0222057Y0364195D01*
X0221934Y0364101D01*
X0221810Y0364010D01*
X0221682Y0363922D01*
X0221553Y0363837D01*
X0221422Y0363756D01*
X0221288Y0363678D01*
X0221153Y0363604D01*
X0221016Y0363533D01*
X0220876Y0363466D01*
X0220736Y0363402D01*
X0220593Y0363342D01*
X0220450Y0363286D01*
X0220304Y0363233D01*
X0220158Y0363184D01*
X0220010Y0363139D01*
X0219861Y0363098D01*
X0219711Y0363060D01*
X0219560Y0363027D01*
X0219409Y0362997D01*
X0219256Y0362971D01*
X0219103Y0362950D01*
X0218950Y0362932D01*
X0218796Y0362918D01*
X0218642Y0362908D01*
X0218487Y0362902D01*
X0218333Y0362900D01*
X0218179Y0362902D01*
X0218024Y0362908D01*
X0217870Y0362918D01*
X0217716Y0362932D01*
X0217563Y0362950D01*
X0217410Y0362971D01*
X0217257Y0362997D01*
X0217106Y0363027D01*
X0216955Y0363060D01*
X0216805Y0363098D01*
X0216656Y0363139D01*
X0216508Y0363184D01*
X0216362Y0363233D01*
X0216216Y0363286D01*
X0216073Y0363342D01*
X0215930Y0363402D01*
X0215790Y0363466D01*
X0215650Y0363533D01*
X0215513Y0363604D01*
X0215378Y0363678D01*
X0215244Y0363756D01*
X0215113Y0363837D01*
X0214984Y0363922D01*
X0214856Y0364010D01*
X0214732Y0364101D01*
X0214609Y0364195D01*
X0214489Y0364293D01*
X0214372Y0364393D01*
X0214257Y0364497D01*
X0214145Y0364603D01*
X0214036Y0364712D01*
X0213930Y0364824D01*
X0213826Y0364939D01*
X0213726Y0365056D01*
X0213628Y0365176D01*
X0213534Y0365299D01*
X0213443Y0365423D01*
X0213355Y0365551D01*
X0213270Y0365680D01*
X0213189Y0365811D01*
X0213111Y0365945D01*
X0213037Y0366080D01*
X0212966Y0366217D01*
X0212899Y0366357D01*
X0212835Y0366497D01*
X0212775Y0366640D01*
X0212719Y0366783D01*
X0212666Y0366929D01*
X0212617Y0367075D01*
X0212572Y0367223D01*
X0212531Y0367372D01*
X0212493Y0367522D01*
X0212460Y0367673D01*
X0212430Y0367824D01*
X0212404Y0367977D01*
X0212383Y0368130D01*
X0212365Y0368283D01*
X0212351Y0368437D01*
X0212341Y0368591D01*
X0212335Y0368746D01*
X0212333Y0368900D01*
M02*
